<?xml version="1.0" encoding="UTF-8" standalone="no"?>
<svg
   xmlns:dc="http://purl.org/dc/elements/1.1/"
   xmlns:cc="http://creativecommons.org/ns#"
   xmlns:rdf="http://www.w3.org/1999/02/22-rdf-syntax-ns#"
   xmlns:svg="http://www.w3.org/2000/svg"
   xmlns="http://www.w3.org/2000/svg"
   viewBox="0 0 6717.4668 3405.2134"
   height="3405.2134"
   width="6717.4668"
   xml:space="preserve"
   id="svg2"
   version="1.1"><metadata
     id="metadata8"><rdf:RDF><cc:Work
         rdf:about=""><dc:format>image/svg+xml</dc:format><dc:type
           rdf:resource="http://purl.org/dc/dcmitype/StillImage" /></cc:Work></rdf:RDF></metadata><defs
     id="defs6"><clipPath
       id="clipPath18"
       clipPathUnits="userSpaceOnUse"><path
         id="path16"
         d="M 0,2553.915 H 5038.102 V 0 H 0 Z" /></clipPath><clipPath
       id="clipPath42"
       clipPathUnits="userSpaceOnUse"><path
         id="path40"
         d="M 0,2553.915 H 5038.102 V 0 H 0 Z" /></clipPath></defs><g
     transform="matrix(1.3333333,0,0,-1.3333333,0,3405.2133)"
     id="g10"><g
       id="g12"><g
         clip-path="url(#clipPath18)"
         id="g14"><g
           transform="translate(206.7264,2540.2285)"
           id="g20"><path
             id="path22"
             style="fill:none;stroke:#000000;stroke-width:7;stroke-linecap:butt;stroke-linejoin:miter;stroke-miterlimit:4;stroke-dasharray:none;stroke-opacity:1"
             d="m 0,0 7.94,-7.241 10.164,1.651 5.209,-2.223 16.516,-14.864 15.245,2.858 6.225,-1.969 8.131,-4.764 5.209,-1.017 7.814,0.064 4.7,-0.572 12.133,-2.033 7.051,0.254 5.336,3.43 5.399,4.447 3.621,2.096 14.483,-9.274 15.119,-1.969 7.241,-4.51 6.353,-9.02 7.686,-3.304 8.067,-2.858 13.277,-2.414 18.358,-6.606 5.971,-0.509 11.434,6.289 18.612,22.424 6.035,4.002 6.67,1.334 4.891,1.778 5.145,3.049 7.496,5.781 7.94,-0.127 4.51,-1.08 6.416,-5.78 4.066,-6.543 3.875,-7.941 4.256,-3.62 6.797,-2.732 6.225,-1.461 12.895,-0.572 8.83,-4.129 11.243,-6.161 7.496,-5.336 6.797,-6.797 9.084,-4.955 15.308,-6.797 9.021,-4.955 9.846,-7.241 26.425,0.444 9.02,-0.826 9.719,-5.971 3.875,-3.875 0.953,-5.209 -2.668,-9.655 0.445,-3.049 3.24,-4.002 6.733,-2.414 6.86,-4.319 5.59,-5.336 7.687,-17.469 9.973,-3.494 11.752,0.953 6.733,2.287 4.256,5.59 3.112,2.414 4.638,0.762 5.526,-2.16 8.068,-6.67 8.448,-5.463 8.576,-4.129 4.827,-6.479 3.939,-6.86 0.762,-12.578 1.715,-1.588 11.879,-7.051 21.534,-5.145 8.449,0.381 3.748,3.303 2.35,5.781 3.43,4.764 4.256,3.938 4.701,0.381 9.909,-0.762 9.465,-3.113 9.275,-4.764 11.116,-3.303 16.707,-6.416 13.466,-4.319 12.324,-6.353 12.895,-9.465 23.376,-4.51 5.908,-2.667 6.987,-6.353 7.941,-11.053 9.211,0.509 5.653,-0.382 -0.19,-1.397 1.651,3.239 6.606,3.875 6.035,5.781 8.258,13.34 5.273,3.43 3.303,-0.889 4.319,-2.287 h 2.795 l 7.814,3.494 6.479,0.825 4.701,-1.334 9.337,-8.575 1.97,-44.72 1.969,-3.875 3.748,-2.033 5.399,-1.207 17.723,-2.858 5.018,0.317 8.004,-3.366 3.812,-4.193 2.604,-4.192 5.272,-5.527 7.115,-5.336 16.389,-8.131 14.737,-9.592 4.066,-5.018 2.667,-7.305 14.23,-5.399 6.924,-8.385 12.45,-2.16 17.85,-9.021 5.78,-1.588 7.56,1.017 6.924,5.78 5.653,0.572 3.24,-1.207 19.628,-10.481 2.923,-2.097 5.844,-1.397 5.717,-0.254 6.225,3.303 5.081,5.781 3.812,7.686 2.731,1.588 3.621,-0.19 9.021,-5.908 11.18,-11.625 14.102,-4.065 9.02,-0.826 15.753,-7.305 4.002,0.063 7.941,1.779 16.198,5.4 8.258,5.018 3.494,7.305 -4.383,9.655 -0.89,4.955 1.525,5.082 2.477,3.748 4.256,1.27 4.701,-0.889 9.274,-9.528 19.819,-8.703 15.055,-1.398 4.193,-1.715 2.922,-3.366 5.781,-9.719 3.747,-2.859 5.844,0.508 9.656,4.828 15.626,0.889 12.641,-1.334 9.338,-8.385 6.416,-9.655 7.178,-2.224 7.051,-0.635 17.533,10.609 17.151,0.952 6.733,2.224 17.913,13.53 6.48,0.445 7.241,-2.351 -2.159,-4.891 -1.843,-7.368 -6.225,-12.705 -1.651,-6.416 -6.416,-13.657 -0.826,-3.939 -0.063,-25.599 7.051,-14.357 0.635,-6.098 -2.986,-7.368 -1.778,-10.672 -6.353,-13.149 -1.27,-5.654 -12.133,-24.964 -1.588,-2.478 -10.545,-10.862 -5.971,-5.018 -7.178,-4.129 -3.303,-3.05 -2.096,-3.049 -3.431,-7.178 -1.08,-3.875 -0.889,-7.622 -2.922,-6.035 -1.525,-1.779 -2.604,-1.143 -7.623,-1.08 -6.034,-2.16 -5.4,-0.635 -14.102,-0.317 -9.719,-3.177 -12.45,-1.08 -20.899,-10.036 -11.18,-1.969 -6.67,-2.478 -11.434,-0.889 -3.558,-0.889 -15.563,-7.242 -2.223,-2.033 -1.334,-2.731 0.318,-3.494 2.541,-6.733 1.079,-8.322 3.812,-6.543 1.397,-1.08 2.668,-0.635 11.816,-0.254 2.921,-1.715 1.017,-4.764 -0.635,-4.002 -2.541,-5.781 -0.89,-4.129 v -24.011 l 1.779,-4.32 2.605,-2.604 3.748,-1.842 2.54,-3.05 0.953,-2.922 0.508,-11.434 1.08,-3.62 5.527,-5.718 1.016,-3.239 -0.445,-4.32 -4.319,-9.338 -4.193,-5.717 -6.542,-2.477 -10.418,-5.145 -4.447,-4.701 -2.604,-4.764 -4.193,-5.336 -1.016,-2.859 1.08,-3.049 9.147,-9.147 v -4.129 l 3.557,-10.164 0.763,-18.294 0.571,-3.049 2.287,-4.701 0.508,-3.049 0.255,-43.958 0.635,-7.368 2.477,-5.654 1.652,-6.479 2.54,-4.32 14.992,-15.372 3.303,-5.971 4.193,-5.463 1.905,-3.939 0.636,-4.637 -0.127,-16.135 -0.509,-3.557 -2.477,-6.098 -1.652,-10.291 -2.35,-5.781 -1.652,-6.415 -3.811,-4.256 -7.115,-3.685 -12.704,-4.319 -7.051,-8.639 -5.654,-11.625 -9.909,-11.498 -3.621,-6.479 -15.436,-15.881 -5.4,-8.702 -11.053,-10.926 -5.717,-3.049 -6.479,-4.892 -6.289,-3.43 -11.116,-9.338 -6.416,-3.43 -6.606,-5.082 -47.706,-23.249 -11.815,-1.842 -5.526,-2.223 -5.718,-1.271 -9.02,-4.002 -2.795,-2.033 -3.176,-3.493 -5.082,-8.258 -14.292,-14.611 -2.097,-2.795 -2.096,-4.256 -4.764,-5.463 -18.422,-9.337 -19.501,-9.084 -15.627,-8.449 -1.842,6.988 -0.826,8.448 -1.905,9.275 -1.652,10.671 -1.906,13.213 -2.858,25.6 -0.445,8.194 -1.461,9.275 -1.016,13.53 -0.826,6.733 -6.289,39.956 -1.207,6.226 -1.905,7.305 -1.271,3.112 -1.651,9.275 -1.017,4.827 -0.826,5.4 -2.731,6.161 -1.906,6.48 -4.319,15.499 -1.716,12.705 -18.294,54.756 -5.018,14.674 -5.844,11.815 -1.652,3.685 -1.271,3.938 -2.477,4.828 -5.844,9.91 -6.035,6.733 -2.922,0.318 -7.686,-1.716 -0.635,-0.254 -1.842,4.51 -2.541,1.97 -2.478,4.256 -4.764,5.907 -8.957,5.4 -11.497,3.684 -5.59,-0.318 h -3.367 l -4.573,1.398 -3.304,0.889 -3.748,0.826 -2.54,1.715 -6.035,2.541 -3.113,0.826 -3.303,0.889 -3.367,0.254 -2.096,-0.826 h -2.033 l -5.018,0.826 -3.303,1.398 -4.637,3.43 -3.748,3.367 -6.67,5.082 -5.781,1.397 -4.192,1.715 -5.209,1.715 -3.748,0.826 -10.799,2.859 -4.383,1.397 -4.383,1.144 -3.938,2.54 -7.941,2.224 -11.052,0.571 -7.242,-2.223 -1.906,-0.889 -3.557,-2.795 -3.938,-3.43 -3.748,-1.97 h -3.558 l -2.922,0.763 -3.303,0.698 -5.018,1.652 -6.035,0.889 -2.287,0.508 -3.303,3.431 -0.635,1.397 -2.287,5.971 -0.445,4.51 -1.206,1.716 -1.906,1.079 -2.732,3.685 -2.286,2.858 -4.765,3.367 -1.016,1.715 -0.445,3.367 -5.018,6.225 -4.383,3.176 -1.842,3.367 -2.732,8.512 -0.381,6.797 -1.27,7.877 -1.842,6.797 -1.461,9.909 -1.461,12.197 -4.574,25.79 -2.35,11.625 -2.668,12.768 -2.732,7.051 -3.303,7.368 -1.461,5.654 -1.461,3.176 -2.732,5.654 -1.461,2.54 -2.286,3.431 -2.287,3.684 -1.461,5.082 -2.287,3.684 -5.4,5.145 -3.557,3.367 -7.305,2.859 -5.781,-0.318 -1.27,-2.223 -4.764,-1.715 -9.402,1.397 -6.034,-0.254 -4.193,-4.574 -1.461,-1.397 -2.922,-3.113 -1.842,-2.032 -3.113,-3.113 -4.192,-1.143 -3.557,1.46 -1.398,1.144 -1.27,1.398 -2.287,7.368 -3.748,4.002 -5.653,6.225 -1.843,2.287 -5.844,2.795 -0.826,1.144 -2.096,5.717 -1.842,4.827 -1.08,2.224 -6.86,8.829 -3.113,2.859 -7.114,4.192 -2.478,4.828 -3.303,1.461 -1.715,4.51 -1.652,2.859 -2.477,4.002 -4.002,6.797 -4.574,5.653 -2.287,2.604 -8.956,7.623 -4.383,1.461 -10.609,0.572 -7.305,3.684 -9.973,2.287 -9.147,0.254 -2.096,1.144 h -2.732 l -2.858,-0.826 -3.558,-2.033 h -2.096 l -2.477,0.889 -1.461,1.398 -5.654,1.397 -18.739,2.605 -14.166,-0.318 -4.129,-1.397 -5.653,-0.572 h -2.478 l -8.766,1.143 -3.557,0.826 h -2.922 l -2.287,-1.143 -4.573,0.317 -4.955,0.826 -11.053,4.828 -7.75,6.289 -7.242,1.651 -2.731,1.144 h -2.287 l -7.94,-3.939 -15.182,-4.256 -9.147,-2.032 -8.322,-0.572 -4.828,0.317 -2.286,0.826 -3.113,2.033 -8.766,10.481 -3.748,7.369 -3.113,4.002 -5.59,7.368 -1.461,3.431 -2.731,4.256 -2.096,1.715 -4.765,3.112 -2.477,2.605 -2.35,2.541 -3.304,2.287 -4.764,1.969 -3.366,0.317 h -3.748 l -2.922,-0.317 -1.652,-1.398 h -3.303 l -5.654,0.254 -2.477,1.144 h -2.096 l -2.097,-0.572 -2.096,-1.715 -1.651,-1.143 -1.652,-0.826 -3.113,3.43 -1.27,3.113 -2.732,2.286 -5.018,2.859 -2.033,1.143 -1.905,0.826 h -2.859 l -1.715,-0.826 -5.399,2.224 -2.287,1.715 -3.303,3.684 -2.732,1.461 -1.651,0.254 -2.922,1.144 -4.002,3.43 -1.398,2.287 -2.541,1.715 -8.131,4.256 -6.67,0.572 -9.147,-2.287 -6.86,-4.002 -2.732,-2.287 -2.668,-2.541 -3.748,-5.145 -2.096,-2.541 -3.748,-3.43 0.381,-2.541 0.255,-1.716 -1.08,-1.969 -0.826,-0.889 -2.478,0.572 -4.192,3.43 -2.922,4.574 -3.494,2.286 -4.002,3.685 -2.858,2.541 -5.654,8.258 -2.477,1.969 h -5.019 l -2.286,1.143 -4.828,5.146 -2.477,2.858 -1.652,1.397 -4.828,4.574 -1.016,2.287 -2.732,14.229 -2.477,37.733 -2.922,25.218 -4.193,19.946 -3.303,12.514 -3.112,9.402 -3.113,6.606 -2.922,4.256 -2.096,1.969 -4.764,2.859 -6.48,2.604 -3.112,0.572 -1.652,0.254 -1.906,1.461 -1.842,2.287 -4.002,1.969 -3.303,1.715 -12.323,1.97 -4.129,1.715 -9.592,2.287 -7.305,3.43 -6.861,4.573 -14.991,12.26 -4.574,2.287 -7.496,-0.254 -0.825,0.826 -0.191,1.143 -9.782,6.606 -5.019,3.113 -1.08,0.572 -9.973,6.543 -5.209,1.461 h -9.337 l -9.402,0.571 -12.26,2.859 -6.924,1.969 -4.129,1.461 -4.065,-0.317 -0.635,14.229 3.62,16.452 -0.952,8.004 1.651,5.59 3.621,4.891 12.895,24.52 2.096,7.432 3.304,18.485 4.51,5.209 8.512,11.307 0.762,5.971 2.414,5.4 4.955,4.256 15.88,16.516 2.541,6.034 -0.254,4.51 -3.938,10.672 0.19,7.623 2.541,6.606 3.685,4.511 3.62,0.825 13.467,-3.049 7.496,1.207 9.338,3.621 10.926,5.082 10.798,2.477 4.955,-0.063 7.369,-2.796 14.674,0.255 5.463,2.096 5.463,4.383 7.178,2.604 9.21,0.763 10.926,-1.716 z" /></g></g></g><g
       transform="translate(1322.5674,839.5334)"
       id="g24"><path
         id="path26"
         style="fill:none;stroke:#000000;stroke-width:7;stroke-linecap:butt;stroke-linejoin:miter;stroke-miterlimit:4;stroke-dasharray:none;stroke-opacity:1"
         d="m 0,0 1.969,1.334 5.59,-0.445 4.002,-0.571 5.781,-2.414 3.112,-0.636 39.13,-0.317 4.193,-0.826 5.844,-2.477 3.176,-0.572 32.651,-0.191 6.606,-0.953 16.516,-7.876 3.621,-5.209 0.445,-4.637 -0.445,-19.248 0.572,-2.795 1.778,-2.223 2.859,-0.762 5.082,-0.191 20.39,0.381 5.845,-1.27 3.176,-2.16 2.223,-2.414 4.574,-7.559 2.795,-3.43 3.176,-2.033 7.622,-2.223 3.748,-1.779 12.451,-2.033 5.209,-2.795 1.842,-1.588 1.08,-3.43 0.571,-7.813 2.224,-2.986 2.604,-0.445 3.303,1.017 20.074,10.036 6.288,1.398 7.623,2.859 3.176,0.381 26.045,-0.191 5.272,-0.19 3.049,-0.89 16.008,-7.559 3.748,-3.811 4.065,-7.623 3.43,-9.656 8.83,2.605 5.717,2.477 14.356,1.525 4.828,2.032 5.399,1.271 38.368,-0.635 18.04,17.278 14.611,7.432 11.053,9.274 2.795,0.953 2.985,0.318 16.58,-0.064 5.018,-0.571 2.668,-1.271 10.989,-10.481 2.986,-3.938 9.274,-19.121 3.049,-3.112 2.668,-1.017 2.986,-0.317 25.981,-0.191 1.778,-7.369 10.355,-20.391 0.762,-2.858 0.19,-4.129 0.127,-21.725 -0.698,-5.145 -2.478,-4.066 -10.799,-10.671 -2.096,-4.32 -0.317,-9.528 0.889,-3.685 2.604,-5.399 1.144,-5.273 8.766,-17.595 9.592,-10.99 2.985,-5.399 2.668,-2.224 12.197,-5.78 5.399,-4.764 7.877,-15.182 14.102,-14.039 2.414,-2.985 1.524,-3.558 1.207,-9.21 2.224,-4.574 3.049,-8.322 5.209,-17.087 -3.875,-2.223 -3.176,-4.129 -1.398,-4.384 0.508,-11.37 -0.889,-5.971 -9.274,-18.994 2.286,-3.176 0.953,-11.18 -5.018,-2.096 -4.764,-4.319 -5.654,-10.99 -9.782,0.826 -3.176,-2.732 -0.89,-5.272 -2.985,-2.922 -5.463,-1.906 -2.287,-2.287 -4.51,-10.481 8.067,-13.657 1.843,-7.94 -0.191,-3.685 -2.033,-3.176 -5.018,-0.254 -6.861,5.653 -5.907,-0.254 -18.93,-5.78 -18.231,1.016 -5.717,2.478 -7.305,7.241 -11.244,6.988 -5.272,9.337 -16.643,-0.317 -10.672,-1.715 -6.67,3.875 -7.559,4.51 -8.639,-0.763 -5.018,-1.143 -6.607,2.668 -5.526,6.797 -5.527,3.367 -5.463,1.778 -10.799,8.385 -5.272,1.08 -13.213,-2.159 -10.735,4.065 -30.301,-1.398 -4.128,-2.096 -4.193,12.26 -2.287,2.287 -3.875,1.334 -4.637,4.955 -9.338,0.381 -14.546,-5.59 -4.828,-0.064 -6.352,-0.953 -5.717,-1.905 -6.797,-0.509 -1.461,7.052 -5.019,0.889 -7.241,-4.447 -11.244,2.414 -6.098,-2.35 -19.057,-13.848 -4.065,-0.953 -5.082,1.525 -17.215,9.401 -6.162,0.826 -10.036,-0.127 -3.176,0.444 -2.351,4.066 -0.254,5.463 -9.02,9.083 -16.389,-0.698 -5.844,-8.004 -18.358,-12.768 -3.621,-1.461 -7.94,-1.906 -3.113,-8.703 -5.209,-4.637 -0.381,-7.749 -7.813,-9.148 -5.145,-9.02 -20.01,-6.416 -1.525,-5.272 -6.415,-9.147 -10.228,-5.654 -3.43,0.127 -6.034,7.94 -3.05,6.099 -8.258,3.747 -7.305,1.97 -1.905,7.051 -4.828,2.668 -10.1,4.446 -10.354,5.082 -19.121,-0.699 -9.655,2.096 -1.588,3.177 1.715,4.827 3.621,2.795 0.635,3.875 -2.096,4.51 -7.369,3.367 -24.71,-10.862 -9.084,-2.224 -6.606,-1.016 -6.67,2.859 -18.867,12.514 -9.719,8.956 -18.866,6.988 -3.049,5.018 -5.717,2.16 -10.037,0.762 -7.114,3.303 0.635,7.432 0.826,1.398 1.461,1.652 0.381,3.62 1.27,1.144 1.652,0.254 1.461,1.08 2.541,2.223 1.461,6.416 1.016,8.575 0.636,11.625 -0.191,9.719 2.033,11.688 3.748,11.053 4.002,5.59 2.667,2.478 1.271,2.223 1.842,3.875 3.557,4.701 3.113,2.54 4.192,5.527 1.462,2.795 6.479,8.067 7.241,6.924 6.861,6.098 3.176,1.97 1.207,0.508 h 2.731 l 2.478,-1.08 v -2.795 l 0.826,-2.477 1.715,-4.193 4.319,0.826 2.732,-0.826 -0.381,1.969 0.381,1.906 1.905,1.715 1.207,-2.223 3.367,-0.318 3.303,2.223 1.08,0.826 2.287,3.049 1.842,1.97 3.367,5.59 4.129,4.383 4.573,6.67 4.384,7.813 3.112,5.526 1.715,3.049 1.017,3.621 1.461,1.144 2.477,0.254 1.652,3.621 2.922,4.192 2.731,7.496 2.732,6.352 7.686,21.407 5.209,18.93 2.922,1.651 1.461,1.716 2.033,5.018 3.366,4.701 4.764,12.768 0.89,4.192 5.145,14.229 1.461,6.098 3.557,24.52 0.826,13.658 1.08,15.563 -0.635,5.844 -4.002,17.278 -0.191,5.336 -0.825,4.129 z" /></g><g
       transform="translate(1286.7405,1031.4991)"
       id="g28"><path
         id="path30"
         style="fill:none;stroke:#000000;stroke-width:7;stroke-linecap:butt;stroke-linejoin:miter;stroke-miterlimit:4;stroke-dasharray:none;stroke-opacity:1"
         d="m 0,0 -0.826,1.906 -2.541,0.571 -0.571,2.224 -1.715,-0.508 -0.826,1.905 1.27,2.287 h 1.271 1.016 l 2.731,-1.143 2.033,-0.826 2.351,1.08 1.207,0.572 1.46,0.571 5.654,1.969 4.129,1.97 H 20.2 l 2.097,0.254 1.461,0.825 1.461,1.97 1.016,2.795 -0.826,3.938 v 4.764 l 0.826,1.652 1.906,0.572 1.461,0.571 2.477,0.826 1.842,0.826 v 1.143 l -2.032,1.652 -1.716,0.572 -2.477,0.571 -1.016,0.254 -1.461,1.144 -0.89,2.16 3.748,2.35 2.668,0.762 8.576,1.271 5.717,2.223 4.002,0.572 50.882,-0.445 3.874,0.445 8.957,2.668 14.039,1.588 5.78,2.223 11.244,1.969 11.751,5.4 4.193,1.27 36.017,-0.064 4.256,0.763 4.828,2.096 15.373,2.604 9.21,-5.018 10.672,-1.588 5.844,-2.414 10.354,-1.651 5.654,-2.414 6.797,-1.779 5.209,-4.129 18.294,-18.421 5.844,-3.812 10.355,-1.461 4.827,-2.223 2.986,-0.572 33.413,-0.381 7.051,-0.826 5.717,-2.668 6.162,-1.397 6.924,-3.812 1.905,-2.668 2.224,-6.034 -6.226,-3.367 -4.7,-3.43 -5.781,-6.162 -1.08,-1.779 -0.698,-2.795 -0.382,-9.401 1.017,-2.985 8.004,-15.881 3.684,-3.684 7.115,-3.558 2.858,-0.825 20.391,-0.382 5.145,-0.825 8.83,-4.511 7.051,-5.336 3.875,-1.27 3.112,-0.318 h 4.066 l 4.446,1.398 3.685,5.463 2.414,5.653 2.985,4.955 1.08,1.207 2.668,1.08 6.225,0.318 18.74,-0.509 3.112,-0.698 5.654,-2.414 6.606,-1.207 4.256,-1.461 11.053,-22.233 1.525,-10.1 2.477,-5.654 1.779,-7.241 4.192,-8.83 4.002,-6.162 4.383,-1.27 h 12.451 l 4.954,-0.572 17.85,-8.512 9.719,-5.336 16.453,-15.563 2.731,-1.334 5.527,-1.207 5.78,-2.414 8.004,-2.286 3.938,-3.05 8.703,-8.512 4.256,-2.541 5.971,-0.698 36.145,0.254 5.336,-0.381 3.938,-1.334 3.049,-2.986 7.178,-10.799 1.271,-4.129 0.254,-53.867 1.143,-6.225 2.287,-5.781 0.889,-13.467 -20.264,0.191 -3.874,-0.826 -3.621,-2.223 -5.146,-4.891 -3.112,-4.066 -3.748,-8.004 -1.143,-9.147 -0.826,-2.795 -3.43,-5.527 -2.224,-1.397 -7.813,-1.207 -6.733,-2.604 h -4.637 l -4.511,1.969 -9.21,8.131 -2.923,1.143 -3.176,0.381 h -14.102 l -4.129,-0.889 -4.7,-2.16 -1.97,-0.317 -14.673,-0.636 -25.981,0.191 -2.986,0.317 -2.668,1.017 -3.049,3.112 -9.274,19.121 -2.986,3.938 -10.989,10.482 -2.668,1.27 -5.018,0.572 -16.58,0.063 -2.985,-0.317 -2.795,-0.953 -11.053,-9.275 -14.611,-7.432 -18.04,-17.278 -38.368,0.635 -5.399,-1.27 -4.828,-2.033 -14.356,-1.524 -5.717,-2.478 -8.83,-2.604 -3.43,9.655 -4.066,7.623 -3.747,3.811 -16.008,7.559 -3.049,0.89 -5.273,0.19 -26.044,0.191 -3.176,-0.381 -7.623,-2.859 -6.289,-1.397 -20.073,-10.037 -3.303,-1.016 -2.604,0.444 -2.224,2.986 -0.571,7.813 -1.08,3.431 -1.843,1.588 -5.208,2.795 -12.451,2.032 -3.748,1.779 -7.622,2.223 -3.176,2.033 -2.796,3.43 -4.573,7.559 -2.223,2.414 -3.177,2.16 -5.844,1.271 -20.391,-0.381 -5.081,0.19 -2.859,0.762 -1.778,2.224 -0.572,2.794 0.445,19.248 -0.445,4.637 -3.621,5.209 -16.516,7.877 -6.606,0.953 -32.651,0.19 -3.176,0.572 -5.844,2.477 -4.193,0.826 -39.13,0.318 -3.112,0.635 -5.781,2.414 -4.002,0.572 -5.59,0.444 -1.969,-1.334 -0.445,5.4 -1.207,6.161 -1.08,2.478 -1.46,21.788 -1.208,19.819 -2.922,24.266 -0.254,14.547 0.445,5.272 -1.906,4.192 -2.286,10.037 0.254,3.621 1.207,1.397 1.27,7.814 -0.826,0.317 -1.651,-3.938 -0.636,-4.447 -1.461,-0.571 -3.938,6.161 -1.27,4.447 -3.558,1.143 -1.461,3.621 -2.668,3.938 -1.27,2.795 -5.209,12.006 -1.652,6.988 -6.86,12.006 -1.715,3.049 -0.381,2.795 -2.287,3.62 -1.08,2.859 -2.478,3.049 v 1.652 l 1.017,1.969 h 1.715 l 1.461,-0.254 -0.445,2.795 0.191,0.826 1.08,0.825 h 1.016 v -2.795 l 2.096,-5.272 0.636,-1.969 v -3.367 l 1.461,-1.969 1.016,-2.795 v -1.398 l -0.826,-1.079 -0.635,-3.113 2.732,-1.652 1.46,-0.317 0.572,1.397 2.351,-0.508 1.842,-4.764" /></g><g
       transform="translate(1955.3812,1466.249)"
       id="g32"><path
         id="path34"
         style="fill:none;stroke:#000000;stroke-width:7;stroke-linecap:butt;stroke-linejoin:miter;stroke-miterlimit:4;stroke-dasharray:none;stroke-opacity:1"
         d="M 0,0 8.131,-9.656 9.91,-14.42 9.846,-23.758 9.084,-26.68 6.289,-33.286 5.781,-44.593 l 1.08,-5.971 5.717,-7.813 1.207,-3.812 0.19,-18.612 -0.762,-9.02 8.067,-1.017 7.559,0.572 5.654,2.414 7.241,1.842 4.765,2.096 7.305,1.716 7.242,3.366 4.001,3.367 6.797,13.34 1.97,1.778 2.667,1.08 7.687,-0.19 7.432,-3.113 9.528,-1.334 3.304,-1.906 8.067,-7.368 1.461,-1.017 3.938,-1.08 h 6.289 l 7.813,2.859 6.797,1.016 1.652,0.699 1.398,1.588 1.969,10.1 2.668,7.814 1.27,2.287 3.113,1.016 2.668,-0.191 14.165,-5.717 1.207,-1.143 3.494,-6.225 4.192,-4.32 1.715,-1.08 9.593,-1.778 1.079,-0.636 0.381,-1.016 9.021,-2.795 8.067,-5.781 6.543,-3.748 33.731,-33.158 3.493,-4.765 1.842,-7.178 2.414,-5.653 1.08,-17.469 2.414,-5.59 1.334,-4.891 0.953,-1.398 2.287,-1.143 2.668,-0.318 17.913,0.064 4.574,-1.08 16.071,-8.131 9.528,-8.385 7.305,-4.256 6.988,-6.543 2.922,-1.779 h 1.779 l 1.524,0.699 7.559,6.924 3.367,1.842 12.578,0.953 6.543,2.668 3.747,0.699 6.924,-0.127 5.781,-1.588 7.686,4.764 11.371,1.652 8.829,4.256 7.179,5.463 5.716,2.985 9.974,9.211 4.065,5.145 5.463,11.244 2.224,2.604 26.869,13.531 6.48,6.098 0.571,2.795 0.826,1.334 3.621,1.588 11.561,0.063 12.387,-0.825 8.893,1.016 6.607,2.604 4.065,0.699 38.304,-0.064 5.146,-0.889 4.764,-2.223 6.352,-1.588 6.606,-2.732 12.388,-1.206 7.749,-2.986 8.258,-0.699 5.146,0.572 5.717,2.477 7.241,1.842 4.828,2.097 10.291,1.588 6.733,2.731 7.305,0.381 3.939,-1.016 36.017,-18.104 10.291,-1.652 7.559,-2.922 10.163,-0.952 11.308,-11.18 4.891,-3.431 10.354,-1.651 5.654,-2.414 2.922,-0.635 18.612,-0.826 6.543,-2.732 3.747,-0.635 4.574,0.826 15.182,7.559 11.815,9.91 9.846,4.637 6.162,0.635 9.465,-0.318 3.748,-1.016 5.209,-2.922 1.842,-1.652 3.938,-6.542 3.812,-8.004 0.571,-3.748 -0.635,-3.684 -2.223,-4.638 -1.842,-7.178 -2.287,-4.7 -1.779,-7.178 -6.034,-11.752 -0.89,-2.605 -0.254,-4.764 0.508,-3.811 2.605,-5.59 2.159,-6.607 -8.003,-1.524 -6.67,-2.605 -10.291,-1.524 -8.067,-3.875 -6.988,-5.209 -2.731,-1.27 -5.209,-0.635 -17.278,0.19 -4.892,-1.207 -3.303,-2.414 -4.383,-4.446 -2.541,-3.176 -3.113,-5.908 -6.352,-6.733 -4.129,-2.986 -11.37,-5.272 -3.24,-2.922 -4.383,-8.576 -1.524,-6.352 -2.542,-5.527 -0.508,-2.731 0.508,-4.637 2.288,-4.638 1.905,-7.114 2.541,-5.654 0.572,-4.891 -0.127,-21.344 -0.826,-3.811 -2.668,-6.479 -0.826,-10.736 -15.309,-7.432 -3.748,-3.621 -3.875,-7.876 -1.715,-7.242 -2.223,-4.637 -1.461,-10.291 -2.478,-5.59 -2.096,-7.94 -4.065,-7.941 -9.02,-10.1 -4.638,-7.75 -5.526,-4.637 -27.505,-13.085 -4.383,-3.176 -0.699,-6.607 -2.414,-5.59 -0.826,-5.018 0.127,-54.312 -0.635,-6.098 -2.541,-3.621 -7.178,-4.193 -12.578,-11.243 -5.907,-3.176 -3.303,-2.478 -7.687,-7.368 -3.875,-4.828 -4.002,-7.877 -0.825,-6.035 0.444,-7.178 2.986,-7.495 0.699,-6.67 -6.797,-0.572 -6.543,-2.604 -8.576,-0.953 -2.668,-0.762 -8.893,-4.511 -11.053,-10.354 -4.065,-2.731 -10.418,-1.525 -6.543,-2.541 -8.575,-0.953 -2.668,-0.762 -8.893,-4.446 -10.227,-8.894 -16.136,-7.813 -2.667,-0.762 -9.465,-1.207 -4.764,-2.16 -7.306,-1.715 -4.764,-2.16 -7.305,-1.715 -4.764,-2.16 -6.416,-1.397 -5.653,-2.478 -7.242,-1.651 -44.847,-21.788 -10.037,-4.32 -9.465,4.383 -8.194,4.637 -4.383,-0.953 -9.465,-0.825 -9.846,-3.177 -25.282,-0.317 -10.799,-3.367 -20.391,-0.318 -4.002,-0.698 -6.797,-2.478 -11.307,-0.826 -2.922,-0.952 -2.541,-1.715 -8.385,-8.322 -9.02,-0.381 -6.416,0.635 -1.715,0.572 -19.12,9.655 -2.795,0.826 -5.272,0.508 -19.819,-0.19 -5.337,0.381 -3.938,1.016 -12.832,6.226 -4.256,0.635 h -14.102 l -4.446,-0.953 -23.821,-11.371 -4.129,-3.112 -9.91,-9.465 -2.668,-1.588 -8.385,-1.017 -7.686,0.128 -6.416,0.889 -14.61,6.733 -4.764,0.572 -8.195,-0.127 -4.065,2.985 -4.51,7.687 -12.895,13.212 -0.89,13.467 -2.287,5.781 -1.143,6.225 -0.254,53.867 -1.27,4.129 -7.179,10.799 -3.049,2.986 -3.938,1.334 -5.336,0.381 -36.144,-0.254 -5.972,0.699 -4.256,2.54 -8.702,8.512 -3.939,3.05 -8.004,2.286 -5.78,2.414 -5.527,1.207 -2.731,1.334 -16.452,15.563 -9.719,5.336 -17.85,8.512 -4.955,0.572 h -12.451 l -4.383,1.27 -4.002,6.162 -4.192,8.83 -1.779,7.241 -2.477,5.654 -1.525,10.1 -11.053,22.233 -4.256,1.461 -6.606,1.207 -5.654,2.414 -3.112,0.699 -18.739,0.508 -6.226,-0.318 -2.668,-1.08 -1.08,-1.207 -2.985,-4.954 -2.414,-5.654 -3.684,-5.463 -4.447,-1.397 h -4.065 l -3.113,0.317 -3.875,1.271 -7.051,5.336 -8.83,4.51 -5.145,0.825 -20.391,0.382 -2.858,0.825 -7.115,3.558 -3.684,3.684 -8.004,15.881 -1.016,2.985 0.381,9.402 0.699,2.795 1.079,1.778 5.781,6.162 4.701,3.43 6.225,3.367 5.717,0.953 4.383,-0.127 3.113,-0.636 5.717,-2.413 5.336,-0.064 2.985,1.271 6.035,4.383 4.065,2.223 2.287,2.033 1.144,1.778 0.825,3.113 0.636,9.719 2.858,7.813 0.699,7.686 -0.064,71.273 -0.762,5.399 -2.985,7.496 0.571,3.811 2.096,1.843 9.529,3.049 8.702,1.27 2.16,1.715 1.017,3.621 0.063,6.289 -0.572,6.479 -1.333,4.828 6.86,12.831 6.543,9.974 7.051,8.766 6.543,12.895 5.971,7.686 18.612,36.653 8.258,8.194 6.606,3.557 3.113,2.414 13.975,13.531 4.701,5.209 4.256,7.305 9.973,10.1 2.414,3.112 0.952,2.732 0.381,3.875 -0.253,42.496 0.317,4.892 1.016,2.604 2.478,2.478 12.006,5.59 2.096,1.588 1.525,2.159 0.952,5.019 -0.063,19.12 1.143,3.875 4.701,5.018 7.432,4.066 3.684,3.303 2.351,3.176 5.336,11.18 1.651,2.033 2.16,1.524 6.162,0.953 29.22,-0.317 4.891,1.334 6.226,4.637 3.493,1.524 9.084,0.445 z" /></g><g
       id="g36"><g
         clip-path="url(#clipPath42)"
         id="g38"><g
           transform="translate(4972.2051,46.3244)"
           id="g44"><path
             id="path46"
             style="fill:none;stroke:#000000;stroke-width:7;stroke-linecap:butt;stroke-linejoin:miter;stroke-miterlimit:4;stroke-dasharray:none;stroke-opacity:1"
             d="m 0,0 -15.309,0.381 -6.035,-5.145 -8.512,0.889 -11.942,13.658 -17.152,6.86 -17.913,4.256 -14.547,-10.291 -21.343,-30.745 -10.291,-19.692 -10.227,-2.541 -17.087,22.678 -3.431,21.344 -17.087,6.86 -16.263,-8.575 h -13.656 l -23.44,29.538 -10.8,15.753 -23.884,29.094 -22.233,20.518 -43.64,1.715 -29.919,-3.431 -17.088,8.512 h -11.942 l -3.875,-4.573 -14.039,-3.748 -5.272,-19.374 -10.227,-5.717 -12.07,4.51 -9.274,1.715 -19.311,-1.08 -16.77,1.779 -6.924,-2.033 -14.801,-2.414 -24.265,1.588 -19.375,10.926 -15.817,14.229 -17.405,9.274 -12.705,5.908 -9.02,2.35 -17.977,-0.698 -11.053,2.159 -13.911,5.273 -15.31,11.878 -16.261,8.131 -21.09,14.357 -19.756,27.823 -7.876,11.624 -2.986,5.4 0.191,3.366 2.223,4.32 4.066,0.889 3.874,5.654 3.621,8.194 4.701,3.621 3.112,4.256 3.303,1.525 3.875,0.825 11.562,0.381 3.938,1.271 1.715,2.668 -1.016,3.049 -11.498,11.307 -4.573,5.336 -4.32,0.317 -15.753,-9.782 -5.527,0.572 -7.432,2.541 -20.073,12.133 -8.385,2.032 -13.277,-1.143 -13.593,-3.939 -12.515,4.892 -4.192,3.176 -4.002,4.764 -2.541,14.864 -3.557,8.258 -10.037,4.638 -24.964,6.098 -14.419,5.018 -6.734,4.065 -4.193,4.002 -12.514,14.992 -5.399,2.922 -5.908,0.826 h -5.907 l -3.43,0.762 -11.816,-14.483 -6.098,-5.718 -4.447,-2.858 -5.717,-0.762 -5.717,0.444 -18.803,11.752 -16.261,11.879 -11.307,11.942 -2.097,7.75 -14.038,27.188 0.063,3.557 5.4,11.053 -0.318,2.35 -2.668,3.431 -11.878,11.37 -4.765,2.922 -6.416,1.461 -6.606,2.668 -18.612,0.699 -9.528,3.24 -9.72,0.571 -3.684,0.762 -2.223,1.525 -1.652,1.969 -7.876,15.691 -0.699,3.684 0.127,4.764 0.699,2.731 2.604,5.4 0.191,4.573 -0.699,2.605 -10.291,19.374 -0.572,2.732 0.318,3.748 1.842,3.366 10.672,10.609 4.955,7.94 9.084,9.973 4.002,7.75 0.444,2.541 -0.508,2.604 -2.033,4.574 -1.397,9.274 -2.478,5.59 -1.842,7.115 -2.16,4.637 -1.588,10.164 -2.985,7.432 -0.318,19.184 -0.572,4.891 -10.671,21.343 -1.715,7.179 -2.097,4.7 -1.334,4.828 -0.953,1.397 -1.524,0.89 -5.59,0.635 -16.579,-0.445 -2.859,-0.698 -4.637,-2.224 -2.795,-0.571 -3.748,0.317 -2.414,1.271 -2.287,2.604 -5.844,12.006 -8.893,10.037 -3.24,5.78 -5.399,6.924 -11.053,21.598 -8.512,8.766 -5.781,4.192 v 11.371 l -0.508,4.701 -5.209,10.481 -5.018,4.828 -5.844,3.112 -7.051,5.336 -10.037,3.875 36.208,35.001 1.652,0.762 2.795,0.255 8.766,-4.002 5.209,-4.193 10.989,-10.989 4.447,-3.431 8.13,-3.811 10.418,-1.588 6.416,-2.541 3.494,0.445 12.704,6.098 12.641,0.889 7.433,2.859 12.323,1.524 -2.223,6.607 -5.082,9.592 -12.26,12.641 -6.416,4.955 -7.241,1.905 -6.607,2.605 -14.737,0.762 -9.401,3.24 -12.578,1.143 -6.606,2.668 -10.482,1.588 -4.7,2.096 -4.955,1.398 -1.905,1.588 -1.589,8.575 -2.413,5.59 -0.636,2.795 -0.317,5.781 0.444,4.828 1.525,3.493 4.828,6.035 3.239,5.59 8.449,9.147 0.825,1.652 0.255,2.731 -6.416,13.213 -1.779,7.242 -3.875,7.94 -3.049,4.002 -8.766,8.512 -1.715,2.986 0.381,2.985 7.623,15.182 0.508,2.986 -2.859,6.924 -10.036,18.612 -0.826,3.43 0.318,1.779 1.397,2.477 10.736,10.545 2.477,4.192 0.953,16.389 2.668,6.416 0.826,3.811 0.508,21.344 2.922,7.432 1.334,9.338 2.35,5.59 1.906,7.115 3.557,4.827 12.641,12.26 2.541,4.256 0.635,5.908 -0.254,23.376 0.318,2.922 1.016,2.795 3.113,3.875 21.344,21.026 3.747,6.543 5.336,6.988 3.685,6.034 3.049,1.843 6.288,1.461 4.764,2.032 10.482,1.398 5.717,2.35 7.178,1.779 3.303,2.731 8.068,15.69 1.08,4.574 v 3.875 l -0.509,2.795 -2.477,5.653 -1.525,8.83 -2.858,5.781 -1.461,4.446 -6.035,11.816 -0.826,2.667 -0.508,22.424 0.572,5.971 1.905,3.43 2.033,2.16 3.113,2.35 6.67,3.558 12.005,10.926 7.052,4.065 2.477,3.621 0.699,5.717 -0.318,32.46 -0.762,4.002 -2.224,4.701 -1.651,6.289 -2.732,6.415 -0.063,5.654 12.387,24.647 5.907,7.749 6.48,12.895 9.211,10.228 2.858,5.59 3.621,4.256 6.479,-14.039 8.068,-9.528 6.796,-5.781 6.416,-2.731 7.369,-0.953 8.194,1.905 8.449,3.431 15.436,4.446 5.209,2.605 4.891,1.016 18.866,1.271 18.74,-2.16 23.44,-0.762 19.056,1.016 20.01,8.448 12.768,0.318 9.719,-1.715 5.717,-2.731 10.545,-11.244 7.877,-6.988 20.962,-12.069 22.678,-9.338 36.335,-21.915 2.795,-0.762 21.597,1.842 7.687,-0.318 6.987,-4.828 5.337,-6.923 3.175,-8.449 2.224,-9.846 -0.381,-10.672 -1.271,-9.465 -4.954,-9.782 -26.235,-41.29 -2.542,-7.305 -1.206,-6.479 3.557,-19.311 -0.318,-9.021 -4.637,-13.276 2.223,-3.049 9.211,-8.004 2.859,-3.748 1.207,-11.18 -2.668,-4.065 -5.019,-4.002 -15.944,-6.861 -8.385,-1.588 -4.891,-1.905 -9.274,0.063 -8.004,-3.875 -5.082,0.191 -4.256,4.319 -4.51,2.414 -5.781,0.699 -4.446,-1.461 -2.478,-4.828 -10.291,-33.158 -7.622,-20.582 -5.526,-12.514 1.714,-4.446 3.113,-3.113 5.527,-1.334 3.875,-1.715 12.895,-13.848 17.151,-5.4 19.374,-12.895 6.416,-2.731 4.891,-4.32 16.262,-10.481 9.402,-8.194 3.366,-10.228 4.32,-1.08 4.955,-3.43 5.59,-5.717 3.048,-4.955 11.308,-6.161 8.258,-1.398 6.035,-5.082 4.573,-2.032 7.115,-0.89 14.165,3.367 9.655,-0.572 16.643,-5.844 8.766,-4.955 16.771,-14.419 0.952,-6.48 -0.19,-11.561 1.08,-8.067 2.986,-7.051 8.575,-10.227 1.906,-11.117 3.112,-3.112 6.734,-4.384 5.018,-1.079 5.399,3.43 13.594,11.752 4.892,0.698 6.352,-2.477 7.75,-1.906 5.653,3.43 7.432,1.843 3.176,-1.271 2.16,-4.256 1.461,-9.274 1.271,-3.24 3.621,-1.524 4.636,0.698 4.257,2.16 4.51,4.193 8.702,11.243 5.717,-2.096 4.002,-3.811 1.652,-16.199 1.778,-6.987 3.622,-7.496 7.495,-8.385 8.385,-4.701 4.192,1.271 1.716,3.367 1.778,16.261 3.431,5.4 3.048,1.27 3.875,-1.27 4.257,-2.732 24.075,-26.044 8.448,-1.461 11.307,0.445 8.576,2.413 17.278,11.562 7.242,1.524 4.065,-1.08 3.303,-3.621 2.732,-7.432 7.368,-9.973 22.869,-21.216 4.446,-8.449 6.607,-1.906 2.858,-2.858 1.271,-3.049 -0.89,-4.764 0.381,-1.843 11.942,-0.952 3.05,2.604 1.588,4.51 0.826,8.766 2.731,4.002 4.129,0.318 3.621,-1.779 4.955,-7.368 4.256,-2.478 3.557,2.414 7.368,10.481 3.304,2.16 3.43,-0.127 1.525,-2.35 1.461,-9.529 -0.89,-9.592 2.605,-13.721 2.096,-5.145 20.2,-12.323 -2.604,-27.95 -3.748,-12.26 -8.068,-16.389 -4.382,-6.035 -12.26,-12.577 -11.689,-5.971 -16.325,-10.99 -32.651,-29.411 -37.605,-7.813 -33.413,-12.197 -19.756,-25.79 10.672,-54.756 10.609,-31.889 1.524,-47.134 13.657,-16.706 21.28,21.28 13.022,-1.906 -0.444,-1.461 22.106,-9.592 5.844,-11.624 -3.239,-8.512 1.778,-10.799 5.209,-11.244 8.702,-10.926 1.969,-3.43 9.91,-13.785 1.652,-8.766 -1.969,-14.292 3.239,-5.781 7.242,-6.289 25.345,-9.338 19.311,-8.512 1.207,-4.192 0.318,-9.147 1.969,-1.461 16.833,-0.89 4.701,-2.477 6.797,-6.924 6.099,-11.434 5.716,-4.637 14.42,-9.973 10.99,-3.621 43.258,-16.961 0.763,-0.571 1.08,-4.066 5.59,-2.223 16.897,-5.019 0.953,-2.604 3.049,-2.16 0.572,2.541 2.159,4.129 2.541,-0.127 2.541,-3.113 -0.635,-3.62 -1.652,-4.066 0.445,-4.129 4.129,-0.063 3.113,2.477 2.032,-2.604 1.397,-3.685 3.622,-1.079 2.731,7.114 4.065,-2.16 2.478,-4.7 -3.812,-8.131 -3.684,-1.461 -3.557,-0.445 -2.16,-2.986 -0.572,-2.604 5.59,-1.143 3.621,-0.127 4.002,-4.193 2.16,2.033 1.588,3.557 -0.381,4.129 0.635,5.082 1.08,2.033 3.557,-1.08 1.906,-5.717 -0.191,-9.275 -2.667,-4.065 2.032,-1.08 4.129,0.953 2.033,-1.588 0.381,-4.129 -1.144,-4.637 0.445,-2.541 5.146,-1.144 7.749,2.351 3.557,-1.144 0.953,-2.604 -2.604,-2.478 0.889,-4.129 1.969,-3.684 -1.715,-6.098 2.986,-5.209 5.018,-4.764 0.953,-3.113 -1.652,-4.065 2.033,-0.826 17.596,-1.461 4.066,-5.4 0.253,-4.383 -3.62,-3.874 -7.178,-3.812 -7.623,-10.989 -4.256,-4.129 -0.699,-20.264 -13.149,-13.276 -2.795,-7.369 -5.272,-5.908 -7.877,-11.942 1.652,-9.846 4.192,-6.733 2.223,-5.59 -2.731,-2.541 V 60.156 L 10.291,57.552 7.813,49.802 9.274,20.073 3.938,11.688 3.43,4.574 Z" /></g></g></g><g
       transform="translate(3663.1274,706.199)"
       id="g48"><path
         id="path50"
         style="fill:none;stroke:#000000;stroke-width:7;stroke-linecap:butt;stroke-linejoin:miter;stroke-miterlimit:4;stroke-dasharray:none;stroke-opacity:1"
         d="m 0,0 2.414,0.762 3.748,2.732 10.862,10.354 3.684,4.447 1.208,4.573 0.063,14.61 1.08,5.527 4.129,7.877 5.526,6.797 2.605,4.891 5.272,6.987 2.414,4.701 2.541,2.287 2.604,0.635 2.605,-0.508 4.637,-2.096 6.352,-1.652 13.721,-6.606 5.019,-0.572 19.628,-0.445 13.403,-5.844 2.478,0.382 6.797,4.827 7.686,3.24 5.78,-4.193 8.513,-8.766 11.053,-21.598 5.399,-6.924 3.239,-5.78 8.894,-10.037 5.844,-12.006 2.287,-2.604 2.413,-1.27 3.748,-0.318 2.796,0.572 4.637,2.223 2.858,0.699 16.58,0.445 5.589,-0.636 1.525,-0.889 0.953,-1.398 1.334,-4.827 2.096,-4.701 1.715,-7.178 10.672,-21.344 0.572,-4.891 0.318,-19.184 2.985,-7.432 1.588,-10.164 2.16,-4.637 1.842,-7.114 2.478,-5.59 1.397,-9.275 2.032,-4.573 0.509,-2.605 -0.445,-2.541 -4.002,-7.75 -9.084,-9.973 -4.955,-7.94 -10.671,-10.608 -1.842,-3.367 -0.318,-3.748 0.572,-2.731 10.29,-19.375 0.699,-2.604 -0.19,-4.574 -2.605,-5.399 -0.699,-2.732 -0.126,-4.764 0.698,-3.684 7.877,-15.69 1.652,-1.97 2.223,-1.524 3.684,-0.762 9.719,-0.572 9.529,-3.24 18.612,-0.698 6.606,-2.668 6.416,-1.461 4.764,-2.923 11.879,-11.37 2.668,-3.43 0.317,-2.351 -5.399,-11.053 -0.064,-3.557 14.039,-27.188 2.096,-7.749 -9.592,5.272 -7.75,1.398 -5.526,-1.652 -7.94,-5.971 -5.654,0.381 -5.78,-1.652 -9.783,-0.127 -4.955,-5.59 -6.225,-18.104 -6.225,-2.795 -10.481,-7.432 -5.463,-6.479 -7.242,-6.416 -20.835,-4.193 -4.892,-2.858 -10.862,-13.34 -9.782,-8.385 -9.974,-16.135 -14.038,-20.581 -7.051,-8.004 -9.02,-5.463 -10.291,-2.922 -6.226,-2.35 -16.96,-12.578 -16.325,-6.86 -10.799,-3.558 -4.701,-2.858 -6.225,0.381 -5.781,-2.795 -23.249,-20.581 -2.605,-3.812 -1.397,-8.385 -4.256,-7.368 -7.051,-0.762 -7.941,0.381 -16.96,4.51 -3.43,0.127 -5.908,-1.906 -3.43,-0.191 -5.145,3.558 -9.783,8.639 -3.176,0.762 -3.875,-0.127 -5.463,0.826 -13.276,5.971 -9.528,17.977 -2.478,2.541 -2.985,-0.381 -2.287,-1.334 -4.32,-11.244 -1.08,-4.764 3.113,-3.938 0.826,-3.431 -5.781,-5.081 -1.461,-13.15 13.149,-22.36 5.336,-2.668 14.229,-3.684 10.99,-6.225 4.7,-3.049 3.113,-3.685 -1.016,-4.319 -14.547,-1.207 -7.496,0.826 -18.167,8.829 -7.051,1.779 -5.463,-0.572 -5.717,-3.049 -6.098,2.414 -14.674,-4.891 h -10.418 l -5.907,-1.017 -6.988,-5.971 -8.195,-2.35 -4.065,2.16 -0.699,8.385 -2.223,2.35 -3.367,1.398 -7.051,-0.255 -7.559,-2.604 -4.319,0.318 -4.32,1.27 -4.193,5.273 -2.159,5.717 -3.812,1.905 -22.741,-0.444 -8.131,2.477 -4.955,0.762 -2.286,-1.524 -5.717,-12.832 -2.287,-11.116 -1.652,-12.895 -0.953,-3.621 -2.795,-3.557 -2.541,-1.589 -5.272,-1.905 0.063,13.848 -2.413,4.129 -3.621,-0.381 -11.688,-3.621 -16.77,-8.766 -2.732,-0.382 -4.7,1.652 -16.961,3.557 -5.019,-0.381 -9.845,-2.795 -14.864,-7.432 -5.464,-0.826 -5.018,0.127 -9.02,3.367 -22.424,15.118 -14.038,13.213 -25.854,15.944 -4.32,1.398 -3.62,-0.381 -4.383,-2.414 -2.351,-4.32 -1.016,-9.274 0.127,-3.43 -1.906,-4.51 -2.985,-1.715 -4.955,1.206 -14.674,6.353 -14.483,1.397 -15.246,-2.033 -8.385,1.97 -2.477,2.096 -2.922,16.135 -3.748,5.082 -4.701,3.493 -2.541,0.953 -8.512,-9.211 -3.176,-0.635 -6.161,0.127 -5.209,1.398 -9.148,8.385 -4.319,-0.191 -3.049,-3.367 -1.207,-3.176 0.635,-4.51 4.828,-10.1 0.889,-3.684 -8.258,-19.629 -3.684,-3.557 -5.082,-3.303 -9.592,-2.859 -7.051,-0.571 -31.062,1.143 -14.484,1.397 -6.352,-0.381 -7.051,-1.461 -12.133,-6.416 -7.75,-2.413 -7.241,-0.826 -9.338,-3.24 -7.369,-5.399 -12.196,-14.356 -1.588,-0.255 -4.891,19.184 -1.144,6.48 -2.414,5.463 -0.698,2.858 -0.127,25.727 -0.89,5.907 -4.446,8.703 -8.957,9.846 -3.24,5.717 -5.272,6.924 -2.414,7.813 -2.668,6.543 -0.445,9.656 1.017,7.368 2.096,4.638 2.35,7.94 4.129,7.75 5.146,6.67 1.143,2.922 0.445,6.415 -0.509,24.012 -2.858,7.686 -1.652,10.037 -3.62,8.004 -3.494,5.59 -2.033,1.651 -1.842,0.572 -13.213,0.635 -1.651,0.953 -1.334,2.478 -0.127,53.295 -0.89,5.145 -2.413,5.718 -0.699,6.352 0.254,6.606 1.651,5.781 -10.417,4.637 -7.115,5.209 -4.764,2.477 -2.858,3.303 -0.89,4.002 0.191,4.066 0.762,2.985 2.668,5.527 0.635,4.002 -0.063,3.112 -1.271,3.748 -3.938,3.367 -29.665,14.547 -4.447,1.207 -4.701,-0.445 -4.7,-2.096 -7.242,-1.906 -13.721,-6.289 -12.45,-0.953 -9.719,-3.176 -60.665,0.127 -0.444,13.276 1.079,5.972 2.859,3.176 11.879,5.526 2.668,2.287 1.651,3.367 1.207,8.957 2.541,6.669 0.572,6.543 -0.127,28.713 -0.572,4.255 -2.858,6.543 -0.508,6.226 0.825,4.002 2.414,5.589 1.461,9.021 2.351,5.653 0.635,2.922 0.444,36.78 0.953,3.557 4.002,10.227 5.59,3.558 2.478,0.953 9.909,0.508 6.861,-0.572 7.495,-2.922 10.418,-1.652 4.764,-2.159 7.242,-1.842 5.653,-2.478 9.529,-1.397 6.352,-2.478 2.732,0.191 1.715,0.826 3.748,3.049 30.554,29.982 3.176,3.812 2.922,5.526 5.654,6.924 28.839,-0.317 5.59,-0.445 3.049,-0.953 11.752,-5.78 4.319,-0.826 63.015,-0.572 4.32,-0.826 6.796,-2.604 22.17,-0.763 3.176,-0.698 5.781,-2.414 8.956,-0.826 9.084,0.127 4.32,0.763 23.884,11.243 15.309,-0.508 5.844,-1.144 7.305,-3.557 5.019,-3.367 12.196,-0.19 9.338,-3.43 7.813,-0.509 6.543,1.207 35.255,17.152 8.893,2.35 8.131,3.938 7.75,5.971 5.399,2.414 2.351,0.508 3.366,-1.524 4.32,-4.129 3.176,-4.066 3.049,-5.78 6.797,-7.496 5.209,-4.764 3.557,-1.779 6.162,-0.698 53.359,-0.318 6.162,0.572 2.477,1.27 2.351,2.541 2.096,3.938 3.875,5.146 0.825,2.35 -0.19,1.525 -4.193,11.053 12.006,-1.271 6.543,-2.668 2.922,-0.635 15.5,-0.889 5.717,-2.478 7.305,-1.842 4.764,-2.16 7.305,-1.715 6.035,-3.239 1.842,-1.652 3.494,-5.717 10.799,-21.534 6.987,-7.369 8.512,-7.623 6.162,0.445 5.336,-0.254 3.049,-0.699 5.717,-2.477 4.066,-0.699 5.208,-0.127 4.066,0.635 3.748,2.478 4.192,6.86 6.48,8.766 3.367,3.367 4.827,-0.889 6.733,-2.033 5.019,-2.859 1.715,-1.524 0.571,-1.525 -0.317,-2.35 -5.971,-14.547 0.19,-2.35 1.969,-1.715 3.685,-0.508 29.347,0.063 3.812,-0.762 6.543,-2.668 12.577,-1.016 4.891,-2.986 14.293,-13.848 6.67,-3.811 7.94,-5.654 5.019,-0.953 h 19.247 l 6.225,-0.635 38.749,-18.866 5.145,-0.635 6.289,0.254 9.656,3.303 13.467,0.444 4.827,1.017 16.135,7.623 5.781,3.43 1.651,1.779 3.494,5.717 3.748,7.94 1.524,10.227 2.668,6.416 1.525,9.274 2.35,4.955 -0.127,2.35 -1.906,1.715 -3.62,0.508 -9.275,-0.19 -4.764,-1.334 -2.986,-3.049 -5.336,-11.117 -3.493,-4.573 -6.479,-5.781 -2.669,-1.207 -2.985,-0.508 -13.53,0.064 -5.971,0.889 -16.072,7.877 -7.178,5.272 -6.289,3.557 -2.159,2.732 -0.763,2.795 v 14.165 l -0.571,4.955 -8.131,16.77 -2.35,3.113 -3.685,3.303 -11.688,6.035 -1.08,1.334 -0.635,2.477 0.571,3.557 2.287,3.177 3.748,3.176 5.908,2.922 4.7,3.684 8.639,8.576 z" /></g><g
       transform="translate(3778.0403,1643.2235)"
       id="g52"><path
         id="path54"
         style="fill:none;stroke:#000000;stroke-width:7;stroke-linecap:butt;stroke-linejoin:miter;stroke-miterlimit:4;stroke-dasharray:none;stroke-opacity:1"
         d="m 0,0 28.077,-4.002 15.5,4.51 20.136,4.574 19.248,-1.906 8.258,-3.938 7.051,-7.178 7.559,-12.324 15.182,-15.055 18.104,-24.964 18.612,-23.567 6.352,-6.416 18.613,-14.928 5.081,-7.813 4.193,-23.376 1.207,-2.668 -3.621,-4.256 -2.858,-5.59 -9.211,-10.228 -6.48,-12.895 -5.907,-7.75 -12.387,-24.646 0.063,-5.654 2.732,-6.416 1.651,-6.288 2.223,-4.701 0.763,-4.002 0.317,-32.46 -0.698,-5.717 -2.478,-3.621 -7.051,-4.065 -12.005,-10.926 -6.671,-3.558 -3.112,-2.35 -2.033,-2.16 -1.906,-3.43 -0.571,-5.971 0.508,-22.424 0.826,-2.668 6.035,-11.815 1.46,-4.447 2.859,-5.78 1.525,-8.83 2.477,-5.653 0.508,-2.795 v -3.875 l -1.079,-4.574 -8.068,-15.69 -3.303,-2.731 -7.179,-1.779 -5.716,-2.35 -10.482,-1.398 -4.764,-2.033 -6.289,-1.461 -3.049,-1.842 -3.684,-6.034 -5.336,-6.988 -3.748,-6.543 -21.343,-21.026 -3.113,-3.875 -1.016,-2.795 -0.318,-2.922 0.254,-23.376 -0.635,-5.908 -2.541,-4.256 -12.641,-12.26 -3.557,-4.827 -1.906,-7.115 -2.35,-5.59 -1.334,-9.338 -2.923,-7.432 -0.508,-21.344 -0.825,-3.811 -2.668,-6.416 -0.953,-16.389 -2.478,-4.192 -10.735,-10.545 -1.397,-2.477 -0.318,-1.779 0.826,-3.43 10.036,-18.612 2.859,-6.924 -0.508,-2.986 -7.623,-15.182 -0.381,-2.985 1.715,-2.986 8.766,-8.512 3.049,-4.002 3.875,-7.94 1.779,-7.242 6.416,-13.213 -0.255,-2.731 -0.825,-1.652 -8.449,-9.147 -3.24,-5.59 -4.827,-6.035 -1.525,-3.493 -0.445,-4.828 0.318,-5.781 0.635,-2.795 2.414,-5.59 1.588,-8.575 1.906,-1.588 4.954,-1.398 4.701,-2.096 10.482,-1.588 6.606,-2.668 12.578,-1.144 9.401,-3.239 14.737,-0.763 6.606,-2.604 7.242,-1.906 6.416,-4.954 12.26,-12.642 5.082,-9.591 2.223,-6.607 -12.323,-1.524 -7.433,-2.859 -12.641,-0.889 -12.704,-6.098 -3.494,-0.445 -6.416,2.541 -10.418,1.588 -8.13,3.811 -4.447,3.431 -10.989,10.989 -5.209,4.193 -8.766,4.002 -2.795,-0.255 -1.652,-0.762 -36.208,-35.001 10.037,-3.875 7.05,-5.336 5.845,-3.112 5.018,-4.828 5.209,-10.481 0.508,-4.701 v -11.371 l -7.686,-3.239 -6.797,-4.828 -2.478,-0.381 -13.403,5.844 -19.628,0.445 -5.019,0.571 -13.72,6.607 -6.353,1.651 -4.637,2.097 -2.604,0.508 -2.605,-0.635 -2.541,-2.287 -2.414,-4.701 -5.272,-6.988 -2.604,-4.891 -5.527,-6.797 -4.129,-7.876 -1.08,-5.527 -0.063,-14.61 -1.207,-4.574 -3.685,-4.447 -10.862,-10.354 -3.748,-2.731 -2.414,-0.762 -7.368,2.731 -8.703,0.953 -2.668,0.762 -8.829,4.51 -11.308,10.736 -3.747,2.795 -8.131,3.874 -6.416,1.588 -5.209,2.351 -2.414,-0.064 -1.842,-1.461 -3.304,-5.653 -3.684,-8.004 -1.651,-7.178 -4.383,-8.576 -2.478,-2.413 -5.526,-2.923 -6.416,-4.954 -6.289,-2.859 -2.223,-0.508 -2.287,0.635 -10.1,4.955 -4.701,0.699 -3.62,-0.763 -5.781,-3.366 -1.397,-2.287 -0.382,-3.875 0.635,-4.002 2.669,-5.527 0.762,-2.985 0.127,-3.938 -0.763,-2.732 -1.714,-1.906 -4.383,-2.413 -8.957,-2.224 -7.369,-3.875 -4.446,-4.827 -4.256,-11.562 -3.367,-3.366 -6.48,-8.766 -4.192,-6.861 -3.748,-2.477 -4.065,-0.636 -5.209,0.128 -4.066,0.698 -5.717,2.478 -3.049,0.698 -5.336,0.255 -6.161,-0.445 -8.513,7.623 -6.987,7.368 -10.799,21.535 -3.494,5.716 -1.842,1.652 -6.034,3.24 -7.306,1.715 -4.764,2.16 -7.305,1.842 -5.717,2.477 -15.5,0.89 -2.921,0.635 -6.544,2.668 -12.005,1.27 -1.398,2.096 -1.27,7.56 -2.859,6.606 -0.508,4.002 0.191,2.986 1.715,3.112 15.817,8.195 1.271,1.079 1.079,2.478 0.381,4.828 -0.381,18.802 -0.762,3.939 -2.731,6.543 -0.509,9.147 0.635,7.114 4.193,11.053 2.16,1.589 2.795,0.508 22.868,-0.318 6.352,-0.762 6.416,-2.795 2.668,-0.254 3.303,0.953 4.129,6.034 4.574,10.799 0.508,8.449 -0.445,10.544 -1.08,2.922 -8.766,10.037 -3.239,5.717 -2.605,3.24 -18.231,17.977 -5.272,6.352 -11.625,22.932 -0.825,2.795 -0.382,4.129 0.127,35.954 -0.889,4.637 -2.096,3.239 -2.668,2.795 -19.629,18.613 -12.704,-0.445 -14.992,0.381 -2.985,0.635 -5.781,2.414 -9.274,1.398 -6.734,2.668 -13.403,1.461 -7.686,2.922 -5.209,0.508 -6.225,-0.381 -6.797,-2.541 -6.226,-1.525 -2.35,-1.27 -2.35,-2.541 -5.717,-11.942 -4.066,-6.289 -6.415,-3.939 -4.955,-2.223 -7.623,-4.955 0.318,26.807 -0.318,3.113 -1.334,2.604 -3.811,1.525 -6.734,0.063 -5.653,-0.699 -5.4,-2.159 -2.477,-0.255 -1.461,0.636 -1.08,1.524 -0.572,5.844 0.254,11.117 0.699,6.289 2.478,5.653 1.842,7.115 6.034,11.688 1.017,3.557 -0.191,6.67 -2.731,6.479 -0.826,3.875 -0.254,18.93 0.953,8.131 6.034,11.625 0.763,2.604 -0.255,4.637 -2.921,7.242 0.381,5.59 7.876,15.753 2.351,3.177 3.684,3.239 10.989,5.781 2.351,2.223 3.049,5.018 3.811,8.004 2.351,8.83 3.938,6.416 7.369,4.065 8.131,1.906 5.082,2.858 1.715,1.779 1.588,8.703 2.858,7.559 0.445,5.209 -0.127,15.944 -0.89,4.002 -1.461,2.541 -4.256,5.336 -2.731,4.891 -5.971,7.75 -3.939,8.004 -0.762,3.938 -0.19,24.139 0.444,5.018 2.16,3.938 6.543,4.002 2.223,2.668 1.08,5.908 -0.699,8.258 -4.51,9.782 -3.748,7.051 -1.651,2.097 -2.859,2.032 -12.196,5.654 -5.463,3.684 -1.334,4.383 -0.254,11.117 -0.635,2.922 -2.605,6.733 -0.381,12.133 -0.826,3.621 -1.779,1.842 -4.319,2.414 -7.242,2.287 -1.206,1.143 -0.89,3.367 0.508,5.526 2.668,5.59 2.605,7.75 3.938,4.828 6.861,3.938 2.413,2.478 1.144,3.493 0.381,10.609 0.889,2.668 3.621,4.446 6.352,6.035 6.734,5.399 -4.574,7.051 -2.096,8.004 -4.193,7.305 -6.542,3.875 -7.179,1.779 -2.35,1.27 -1.842,1.842 -3.112,5.527 -4.892,6.225 -4.7,9.846 -0.509,14.102 -1.27,3.303 -2.16,1.271 -10.862,3.684 -16.58,0.381 -4.955,0.89 -4.954,3.62 -12.578,12.896 -2.16,3.049 -7.877,16.007 -1.524,10.355 -3.049,8.004 15.881,3.557 6.161,4.129 3.05,2.922 6.415,22.741 7.178,13.34 7.178,11.752 5.717,8.067 16.707,11.624 15.499,6.925 17.533,6.479 15.88,2.731 11.18,-0.19 24.647,-3.43 9.719,-0.445 6.098,1.779 8.449,3.811 8.258,4.955 15.817,12.958 13.213,8.639 12.958,5.781 11.18,2.35 12.832,-0.444 59.457,-7.496 19.629,1.969 12.387,3.176 12.641,1.398 18.739,-4.383 7.623,-3.621 7.114,-4.383 4.511,-5.908 5.907,-5.717 5.018,-6.162 14.293,-77.815 4.891,-10.799 4.066,-3.557 7.114,-4.383 7.178,-0.826 4.447,0.572 11.053,6.543 14.801,35.699 10.608,35.319 14.293,23.694 6.733,9.401 6.734,7.496 6.86,5.463 10.1,2.986 10.735,2.096 16.135,0.762 20.582,-4.256 12.069,-4.002 18.485,-14.928 29.475,-29.157 z" /></g><g
       transform="translate(2512.095,1837.7302)"
       id="g56"><path
         id="path58"
         style="fill:none;stroke:#000000;stroke-width:7;stroke-linecap:butt;stroke-linejoin:miter;stroke-miterlimit:4;stroke-dasharray:none;stroke-opacity:1"
         d="m 0,0 2.223,-0.127 9.592,2.541 7.686,3.239 14.928,0.826 19.375,-1.524 27.314,-3.621 18.104,-7.877 6.035,-5.844 6.734,-4.701 8.384,-2.413 19.629,-1.334 6.289,-0.953 7.178,-2.16 12.069,-6.861 15.309,-12.514 4.828,-4.7 2.795,-5.59 2.922,-10.545 3.24,-4.701 5.971,-4.7 6.034,-5.908 9.211,-11.942 3.685,-1.652 4.192,-0.953 11.244,3.113 7.178,-1.461 6.733,-2.605 7.877,-6.352 6.67,-9.401 10.608,-7.814 38.749,-15.753 12.514,-7.813 6.162,-8.004 3.43,-6.988 1.08,-6.987 -1.016,-10.228 -27.633,-55.137 -8.639,-7.559 -4.955,-3.24 -4.891,-1.779 -3.557,-5.526 -3.303,-3.939 -1.652,-3.239 -0.508,-3.748 0.889,-8.131 22.424,-33.477 6.67,-6.987 4.383,-0.318 3.747,0.445 14.42,5.654 4.637,0.635 4.892,-0.763 10.735,-14.038 5.78,-1.906 5.59,1.779 6.162,5.971 5.336,1.334 4.637,-1.652 8.957,-9.401 4.637,-0.762 8.131,-0.064 11.688,-4.891 0.762,-6.035 2.414,-5.653 1.652,-6.289 2.477,-5.526 0.508,-2.795 -0.508,-4.638 -2.668,-6.415 -1.143,-8.513 -2.35,-5.653 -1.906,-7.114 -2.795,-3.24 -12.895,-6.353 -7.941,-5.844 -20.263,-9.655 -6.48,-3.875 -4.256,-7.241 -1.143,-9.465 -0.762,-2.668 -2.859,-5.146 -1.651,-1.842 -6.734,-3.621 -10.481,-1.334 -5.654,-2.414 -6.415,-1.524 -7.75,-2.922 -22.043,-0.508 -3.239,-0.635 -5.845,-2.351 -4.446,-0.572 -47.197,-0.063 -2.795,-0.572 -5.781,-2.35 -10.291,-1.588 -4.764,-2.097 -6.352,-1.524 -6.733,-2.604 -10.355,-1.398 -5.844,-3.176 -2.096,-2.731 -1.207,-7.75 -2.35,-5.717 -0.636,-2.986 0.064,-13.086 -10.164,0.953 -7.559,2.922 -10.291,1.652 -36.017,18.104 -3.938,1.016 -7.306,-0.381 -6.733,-2.732 -10.291,-1.588 -4.827,-2.096 -7.242,-1.842 -5.717,-2.477 -5.145,-0.572 -8.258,0.699 -7.75,2.985 -12.387,1.207 -6.606,2.732 -6.353,1.588 -4.764,2.223 -5.145,0.889 -38.305,0.064 -4.065,-0.699 -6.607,-2.604 -8.893,-1.017 -12.387,0.826 -11.561,-0.063 -3.62,-1.588 -0.826,-1.334 -0.572,-2.795 -6.479,-6.099 -26.87,-13.53 -2.224,-2.604 -5.463,-11.244 -4.065,-5.145 -9.973,-9.211 -5.717,-2.986 -7.178,-5.463 -8.83,-4.256 -11.371,-1.651 -7.686,-4.764 -5.78,1.588 -6.924,0.127 -3.748,-0.699 -6.543,-2.668 -12.578,-0.953 -3.366,-1.842 -7.559,-6.924 -1.525,-0.699 h -1.779 l -2.922,1.779 -6.987,6.543 -7.305,4.256 -9.529,8.385 -16.071,8.131 -4.574,1.079 -17.913,-0.063 -2.668,0.318 -2.287,1.143 -0.953,1.398 -1.334,4.891 -2.414,5.59 -1.079,17.469 -2.414,5.653 -1.843,7.178 -3.493,4.764 -33.731,33.159 -6.543,3.748 -8.067,5.781 -9.02,2.795 -0.381,1.016 -1.08,0.635 -9.592,1.779 -1.715,1.08 -4.193,4.319 -3.494,6.226 -1.206,1.143 -14.166,5.717 -2.668,0.191 -3.113,-1.017 -1.27,-2.287 -2.668,-7.813 -1.969,-10.1 -1.398,-1.588 -1.652,-0.699 -6.796,-1.016 -7.814,-2.859 h -6.288 l -3.939,1.08 -1.461,1.017 -8.067,7.368 -3.303,1.906 -9.529,1.334 -7.432,3.113 -7.686,0.19 -2.668,-1.08 -1.97,-1.778 -6.796,-13.34 -4.002,-3.367 -7.242,-3.367 -7.305,-1.715 -4.764,-2.096 -7.242,-1.842 -5.653,-2.414 -7.56,-0.572 -8.067,1.017 0.762,9.02 -0.19,18.612 -1.207,3.811 -5.717,7.814 -1.08,5.971 0.508,11.307 2.795,6.606 0.762,2.922 0.064,9.338 -1.779,4.764 -8.131,9.656 -5.208,9.211 -1.779,11.243 -7.94,16.008 -5.972,7.813 -6.542,13.022 -5.464,6.988 -2.604,5.018 -5.463,6.988 -2.541,4.954 -9.655,11.053 -4.701,9.719 -0.572,5.972 -0.063,25.536 0.953,6.86 2.159,3.303 2.923,2.732 7.305,3.938 8.004,5.717 -6.925,6.67 -4.001,7.115 -8.385,9.528 -3.494,6.479 -5.146,5.146 -21.026,10.481 -7.876,6.098 -8.004,4.066 -8.131,2.16 -5.717,2.477 -10.418,1.524 -10.989,6.48 -16.262,15.118 -5.654,2.986 -7.178,5.59 -14.483,7.368 -4.383,4.701 -4.447,7.813 -6.67,6.035 4.701,7.686 16.961,34.43 2.096,2.858 2.16,1.525 4.065,0.826 h 28.331 l 3.049,0.635 5.718,2.35 11.307,0.762 3.747,1.207 2.541,2.287 8.195,12.705 1.651,10.29 2.287,5.781 0.953,6.86 1.397,3.367 1.525,0.953 3.811,0.635 16.008,-0.381 5.146,-0.889 29.792,-14.801 6.225,-0.635 28.522,-0.254 3.748,-0.763 6.606,-2.668 12.577,-1.143 9.02,-4.129 19.883,-10.291 4.701,-1.143 26.743,-0.254 4.828,-0.953 5.59,-2.477 5.653,-0.128 17.786,8.64 11.054,9.528 4.954,2.604 6.098,4.765 3.558,1.079 3.367,-0.825 19.056,-9.783 7.242,-1.842 5.717,-2.414 10.418,-1.588 8.067,-3.875 4.637,-3.621 12.578,-12.704 2.541,-1.842 2.795,-0.953 4.7,0.19 5.59,2.351 3.113,0.699 14.166,0.698 9.909,3.24 39.13,0.127 4.256,0.572 7.75,3.049 6.034,0.127 3.24,-1.652 3.431,-5.78 0.698,-2.732 0.763,-8.639 3.366,-6.86 2.732,-1.97 4.383,-0.063 5.59,2.477 6.352,1.588 2.668,1.271 6.225,5.526 3.621,4.955 0.889,6.734 -0.317,38.24 0.317,2.986 1.271,2.541 1.397,0.889 16.135,5.463 4.066,6.289 2.35,8.893 3.494,7.305 2.35,3.176 4.447,3.812 6.479,3.493 11.561,10.926 7.814,4.383 6.86,6.353 4.319,-3.24 5.971,-3.049 2.859,-2.478 9.147,-2.604 43.132,-10.164 44.022,-20.772 6.733,-7.051 10.227,-4.7 z" /></g><g
       transform="translate(2563.9929,853.4448)"
       id="g60"><path
         id="path62"
         style="fill:none;stroke:#000000;stroke-width:7;stroke-linecap:butt;stroke-linejoin:miter;stroke-miterlimit:4;stroke-dasharray:none;stroke-opacity:1"
         d="m 0,0 6.734,0.699 7.686,2.922 4.192,0.254 4.193,-0.508 14.674,-6.924 14.419,-0.699 4.002,-0.889 3.367,-2.223 6.86,-6.226 2.605,-1.588 2.985,-0.762 8.258,-0.445 4.066,-0.698 16.071,-7.687 2.604,-2.287 1.588,-3.43 0.064,-15.881 0.889,-5.081 1.588,-2.541 2.732,-2.795 9.084,-5.273 4.637,-5.081 0.953,-2.859 1.016,-8.131 2.223,-5.781 1.144,-7.622 1.207,-2.414 2.477,-1.271 2.859,-0.317 38.05,0.063 -0.445,-7.241 0.381,-6.289 2.732,-7.686 1.016,-6.607 0.635,-1.651 1.271,-1.271 3.239,-0.889 13.594,-0.572 8.957,-4.065 4.065,-3.049 14.102,-13.721 4.51,-2.16 18.549,-0.445 5.082,0.382 2.731,0.825 13.277,6.67 29.601,-0.127 8.512,-0.953 5.654,-2.413 6.352,-1.652 4.828,-2.096 7.242,-1.843 9.147,-4.128 5.463,-3.431 1.08,-1.397 0.953,-4.764 -0.89,-16.771 -5.653,-6.923 -2.922,-5.527 -3.176,-3.811 -30.555,-29.983 -3.748,-3.049 -1.715,-0.826 -2.731,-0.19 -6.353,2.477 -9.528,1.397 -5.654,2.478 -7.241,1.842 -4.764,2.16 -10.418,1.651 -7.496,2.922 -6.86,0.572 -9.91,-0.508 -2.477,-0.953 -5.59,-3.557 -4.002,-10.227 -0.953,-3.558 -0.445,-36.779 -0.635,-2.922 -2.35,-5.654 -1.461,-9.02 -2.414,-5.59 -0.826,-4.002 0.508,-6.225 2.859,-6.543 0.572,-4.256 0.126,-28.713 -0.571,-6.542 -2.541,-6.67 -1.207,-8.957 -1.652,-3.367 -2.667,-2.287 -11.879,-5.526 -2.859,-3.176 -1.08,-5.971 0.445,-13.277 60.664,-0.127 9.719,3.177 12.45,0.952 13.721,6.289 7.242,1.906 4.701,2.096 4.701,0.445 4.446,-1.207 29.665,-14.547 3.939,-3.367 1.27,-3.747 0.064,-3.113 -0.635,-4.002 -2.669,-5.526 -0.762,-2.986 -0.19,-4.066 0.889,-4.001 2.858,-3.304 4.765,-2.477 7.114,-5.209 10.418,-4.637 -1.652,-5.781 -0.254,-6.606 0.699,-6.352 2.414,-5.717 0.889,-5.146 0.127,-53.295 1.334,-2.478 1.652,-0.952 13.212,-0.636 1.843,-0.571 2.032,-1.652 3.494,-5.59 3.621,-8.004 1.651,-10.037 2.859,-7.686 0.508,-24.011 -0.444,-6.416 -1.144,-2.922 -5.145,-6.67 -4.129,-7.75 -2.351,-7.94 -2.096,-4.637 -1.016,-7.369 0.444,-9.655 2.668,-6.543 2.414,-7.814 5.273,-6.924 3.239,-5.717 8.957,-9.846 4.447,-8.702 0.889,-5.908 0.127,-25.727 0.699,-2.858 2.414,-5.463 1.143,-6.479 4.891,-19.184 -2.731,-0.381 -8.131,1.461 -14.42,7.686 -35.001,-0.699 -9.973,-0.826 -24.71,2.351 -6.606,-0.826 -16.199,-7.115 -25.345,-17.405 -9.084,-3.557 -5.273,-4.256 -3.493,-5.4 -10.99,-13.721 -4.319,-1.969 -11.307,2.16 -9.974,5.272 -7.622,2.795 -10.609,9.211 -12.386,6.924 -6.353,-0.635 -10.989,-7.369 -11.815,-4.7 -17.469,0.19 -9.465,6.416 -8.576,8.004 -11.052,7.368 -6.734,1.843 -9.084,0.508 -9.083,-1.016 -28.459,-13.912 -9.782,-5.336 -4.129,-0.635 -10.354,0.635 -6.099,11.688 -2.413,11.18 -3.113,8.385 -3.367,6.162 -10.354,12.069 -9.719,3.939 -14.293,4.827 -5.208,3.24 -10.609,8.004 -7.051,2.287 -6.987,0.508 -7.496,-1.08 -28.204,-8.258 -32.524,-11.243 -19.755,-4.193 -16.135,-1.334 5.272,11.117 -1.334,5.462 -25.218,54.376 -4.51,4.574 -5.019,1.588 -7.051,0.953 -5.653,-2.033 -11.371,-6.988 -16.389,4.129 -5.653,4.32 3.176,3.43 9.338,5.4 7.75,3.366 6.352,1.842 11.625,6.797 9.782,9.973 6.416,4.256 0.445,2.986 2.985,2.287 1.398,2.668 -0.445,2.985 -2.541,3.177 -5.653,2.985 -5.019,1.842 -7.241,1.144 -6.353,-0.381 -5.018,1.334 -3.621,5.018 -19.12,2.35 -3.812,6.162 -13.847,25.726 -3.367,4.574 -26.426,14.166 -14.292,0.953 -8.004,5.209 -8.83,3.239 -6.162,9.084 -5.208,9.846 -12.07,9.782 -2.922,5.273 0.191,5.908 -4.32,8.448 -5.463,4.066 -2.477,2.731 v 12.577 l -2.922,5.209 -18.485,6.67 -10.227,14.356 -20.074,8.195 -1.588,3.875 0.636,7.305 -0.89,7.114 -5.018,4.51 -14.61,-0.889 -7.305,-3.684 -3.621,-15.055 -3.875,-8.639 -3.176,-2.541 -3.685,-0.191 -4.319,3.367 -4.129,4.574 -3.875,2.731 -5.908,1.398 -9.846,7.94 0.254,5.717 -2.032,4.764 -9.656,9.148 -0.635,4.129 3.176,8.639 5.209,3.684 5.526,1.842 6.607,5.209 -1.842,21.725 1.588,2.731 8.893,4.574 4.764,5.717 -1.842,12.133 -5.209,5.018 -26.997,0.635 -3.113,-3.811 -1.651,-3.24 -2.541,-3.239 -2.732,0.698 -5.463,3.875 -7.305,1.588 -17.151,9.783 -5.018,0.19 -8.957,2.732 -9.782,0.889 -22.805,-0.699 -25.854,-7.622 -3.875,-0.509 -7.559,-2.54 -5.018,-2.287 -10.672,1.524 -3.684,-2.032 -4.066,-7.496 -5.717,-3.811 -5.209,17.087 -3.049,8.322 -2.223,4.573 -1.207,9.211 -1.525,3.557 -2.413,2.986 -14.103,14.038 -7.876,15.182 -5.4,4.765 -12.196,5.78 -2.668,2.223 -2.986,5.4 -9.592,10.989 -8.766,17.596 -1.143,5.273 -2.605,5.399 -0.889,3.684 0.318,9.529 2.096,4.319 10.799,10.672 2.477,4.066 0.699,5.145 -0.127,21.725 -0.191,4.129 -0.762,2.858 -10.354,20.391 -1.779,7.369 14.674,0.635 1.969,0.318 4.701,2.159 4.129,0.89 h 14.102 l 3.176,-0.382 2.922,-1.143 9.211,-8.131 4.51,-1.969 h 4.637 l 6.734,2.604 7.813,1.207 2.223,1.398 3.43,5.526 0.826,2.795 1.144,9.147 3.748,8.004 3.112,4.066 5.145,4.891 3.621,2.223 3.875,0.826 20.264,-0.19 12.895,-13.213 4.51,-7.686 4.066,-2.986 8.194,0.127 4.764,-0.572 14.61,-6.733 6.416,-0.889 7.686,-0.127 8.386,1.016 2.667,1.588 9.91,9.465 4.129,3.113 23.821,11.37 4.446,0.953 h 14.103 l 4.256,-0.635 12.831,-6.225 3.939,-1.017 5.336,-0.381 19.819,0.191 5.272,-0.509 2.795,-0.825 19.12,-9.656 1.715,-0.571 6.417,-0.636 9.02,0.381 8.385,8.322 2.541,1.715 2.922,0.953 11.307,0.826 6.796,2.477 4.002,0.699 20.391,0.317 10.799,3.367 25.282,0.318 9.846,3.176 9.465,0.826 4.383,0.952 8.195,-4.637 9.465,-4.383 10.036,4.32 44.847,21.788 7.242,1.652 5.653,2.477 6.416,1.398 4.765,2.159 7.304,1.716 4.765,2.159 7.305,1.715 4.764,2.16 9.465,1.207 2.668,0.762 16.135,7.814 10.227,8.893 8.893,4.446 2.668,0.763 8.576,0.953 6.543,2.54 10.417,1.525 4.066,2.732 11.052,10.354 8.894,4.51 2.668,0.762 8.575,0.953 6.543,2.604 z" /></g><g
       transform="translate(3134.9993,1566.7421)"
       id="g64"><path
         id="path66"
         style="fill:none;stroke:#000000;stroke-width:7;stroke-linecap:butt;stroke-linejoin:miter;stroke-miterlimit:4;stroke-dasharray:none;stroke-opacity:1"
         d="m 0,0 3.049,-8.004 1.524,-10.354 7.877,-16.008 2.16,-3.049 12.578,-12.895 4.954,-3.621 4.955,-0.889 16.58,-0.381 10.862,-3.685 2.16,-1.27 1.27,-3.303 0.509,-14.102 4.7,-9.846 4.892,-6.226 3.112,-5.526 1.842,-1.842 2.351,-1.271 7.178,-1.778 6.542,-3.875 4.193,-7.305 2.096,-8.004 4.574,-7.051 -6.734,-5.4 -6.352,-6.034 -3.621,-4.447 -0.889,-2.668 -0.381,-10.608 -1.144,-3.494 -2.413,-2.477 -6.861,-3.939 -3.938,-4.827 -2.605,-7.75 -2.668,-5.59 -0.508,-5.527 0.89,-3.366 1.206,-1.144 7.242,-2.287 4.319,-2.413 1.779,-1.843 0.826,-3.62 0.381,-12.133 2.605,-6.734 0.635,-2.922 0.254,-11.116 1.334,-4.383 5.463,-3.685 12.196,-5.653 2.859,-2.033 1.651,-2.096 3.748,-7.051 4.51,-9.783 0.699,-8.258 -1.08,-5.907 -2.223,-2.668 -6.543,-4.002 -2.16,-3.939 -0.444,-5.018 0.19,-24.139 0.762,-3.938 3.939,-8.004 5.971,-7.75 2.731,-4.891 4.256,-5.336 1.462,-2.541 0.889,-4.002 0.127,-15.944 -0.445,-5.209 -2.858,-7.559 -1.588,-8.702 -1.715,-1.779 -5.082,-2.859 -8.131,-1.905 -7.369,-4.066 -3.938,-6.416 -2.351,-8.829 -3.811,-8.004 -3.049,-5.018 -2.351,-2.224 -10.989,-5.78 -3.684,-3.24 -2.351,-3.176 -7.876,-15.754 -0.381,-5.59 2.922,-7.241 0.254,-4.638 -0.763,-2.604 -6.034,-11.625 -0.953,-8.131 0.254,-18.929 0.826,-3.875 2.731,-6.48 0.191,-6.669 -1.017,-3.558 -6.034,-11.688 -1.842,-7.114 -2.478,-5.654 -0.699,-6.289 -0.254,-11.116 0.572,-5.844 1.08,-1.525 1.461,-0.635 2.477,0.254 5.4,2.16 5.653,0.699 6.734,-0.064 3.811,-1.525 1.334,-2.604 0.318,-3.113 -0.318,-26.806 7.623,4.955 4.955,2.223 6.415,3.938 4.066,6.289 5.717,11.942 2.35,2.541 2.35,1.271 6.226,1.524 6.797,2.541 6.225,0.381 5.209,-0.508 7.686,-2.922 13.403,-1.461 6.734,-2.668 9.274,-1.397 5.781,-2.414 2.985,-0.636 14.992,-0.381 12.704,0.445 19.629,-18.612 2.668,-2.795 2.096,-3.24 0.889,-4.637 -0.127,-35.954 0.382,-4.129 0.825,-2.795 11.625,-22.931 5.272,-6.353 18.231,-17.977 2.605,-3.24 3.239,-5.717 8.766,-10.036 1.08,-2.922 0.445,-10.545 -0.508,-8.449 -4.574,-10.798 -4.129,-6.035 -3.303,-0.953 -2.668,0.254 -6.416,2.795 -6.352,0.763 -22.868,0.317 -2.795,-0.508 -2.16,-1.588 -4.193,-11.053 -0.635,-7.115 0.509,-9.147 2.731,-6.543 0.762,-3.938 0.382,-18.803 -0.382,-4.828 -1.079,-2.477 -1.271,-1.08 -15.817,-8.194 -1.715,-3.113 -0.191,-2.986 0.508,-4.002 2.859,-6.606 1.27,-7.559 1.398,-2.096 4.192,-11.053 0.191,-1.525 -0.826,-2.35 -3.875,-5.146 -2.096,-3.938 -2.351,-2.541 -2.477,-1.27 -6.161,-0.572 -53.36,0.318 -6.161,0.698 -3.558,1.779 -5.209,4.764 -6.796,7.496 -3.05,5.78 -3.176,4.066 -4.319,4.129 -3.367,1.524 -2.35,-0.508 -5.4,-2.414 -7.75,-5.971 -8.13,-3.938 -8.894,-2.35 -35.255,-17.152 -6.543,-1.207 -7.813,0.509 -9.338,3.43 -12.196,0.19 -5.018,3.367 -7.306,3.557 -5.844,1.144 -15.309,0.508 -23.884,-11.243 -4.32,-0.763 -9.083,-0.127 -8.957,0.826 -5.781,2.414 -3.176,0.698 -22.169,0.763 -6.797,2.604 -4.32,0.826 -63.015,0.572 -4.319,0.825 -11.752,5.781 -3.049,0.953 -5.59,0.445 -28.839,0.317 0.889,16.77 -0.953,4.764 -1.079,1.398 -5.464,3.43 -9.147,4.129 -7.241,1.842 -4.828,2.097 -6.352,1.651 -5.654,2.414 -8.512,0.953 -29.601,0.127 -13.277,-6.67 -2.731,-0.826 -5.082,-0.381 -18.549,0.445 -4.51,2.16 -14.102,13.721 -4.065,3.049 -8.957,4.065 -13.594,0.572 -3.24,0.889 -1.27,1.27 -0.635,1.652 -1.017,6.606 -2.731,7.687 -0.381,6.288 0.444,7.242 -38.05,-0.063 -2.858,0.317 -2.478,1.271 -1.207,2.414 -1.143,7.622 -2.224,5.781 -1.016,8.131 -0.953,2.858 -4.637,5.082 -9.084,5.273 -2.731,2.794 -1.588,2.541 -0.889,5.082 -0.064,15.881 -1.588,3.43 -2.605,2.287 -16.071,7.686 -4.065,0.699 -8.258,0.445 -2.986,0.762 -2.604,1.588 -6.861,6.225 -3.366,2.223 -4.002,0.89 -14.42,0.698 -14.673,6.925 -4.193,0.508 -4.193,-0.254 -7.686,-2.922 -6.733,-0.699 -0.699,6.67 -2.986,7.495 -0.444,7.178 0.825,6.035 4.002,7.877 3.875,4.828 7.687,7.368 3.303,2.478 5.907,3.176 12.578,11.243 7.178,4.193 2.541,3.621 0.635,6.098 -0.127,54.312 0.826,5.018 2.414,5.59 0.699,6.607 4.383,3.176 27.505,13.085 5.526,4.637 4.638,7.75 9.02,10.1 4.065,7.941 2.096,7.94 2.478,5.59 1.461,10.291 2.223,4.637 1.715,7.242 3.875,7.876 3.748,3.621 15.309,7.432 0.826,10.736 2.668,6.479 0.826,3.811 0.127,21.344 -0.572,4.891 -2.541,5.654 -1.906,7.114 -2.287,4.637 -0.508,4.638 0.508,2.731 2.542,5.527 1.524,6.352 4.383,8.575 3.24,2.922 11.37,5.273 4.129,2.986 6.352,6.733 3.113,5.908 2.541,3.176 4.383,4.446 3.303,2.414 4.892,1.207 17.278,-0.19 5.209,0.635 2.731,1.27 6.988,5.209 8.067,3.875 10.291,1.524 6.669,2.605 8.004,1.524 -2.159,6.607 -2.605,5.59 -0.508,3.811 0.254,4.764 0.889,2.605 6.035,11.752 1.779,7.178 2.287,4.7 1.842,7.178 2.223,4.638 0.635,3.684 -0.572,3.748 -3.811,8.004 -3.938,6.542 -1.842,1.652 -5.209,2.922 -3.748,1.016 -9.465,0.318 -6.162,-0.635 -9.846,-4.637 -11.815,-9.91 -15.182,-7.559 -4.574,-0.826 -3.747,0.635 -6.543,2.732 -18.612,0.826 -2.923,0.635 -5.653,2.414 -10.354,1.651 -4.891,3.431 -11.308,11.179 -0.063,13.086 0.635,2.986 2.351,5.717 1.207,7.75 2.096,2.731 5.844,3.176 10.354,1.398 6.734,2.604 6.352,1.525 4.764,2.096 10.291,1.588 5.78,2.35 2.795,0.572 47.198,0.064 4.446,0.571 5.844,2.351 3.24,0.635 22.043,0.508 7.749,2.922 6.416,1.525 5.654,2.413 10.481,1.334 6.733,3.621 1.652,1.842 2.858,5.146 0.763,2.668 1.143,9.465 4.256,7.241 6.479,3.875 20.264,9.656 7.941,5.844 12.895,6.352 2.795,3.24 1.905,7.114 2.351,5.654 1.143,8.512 2.668,6.416 0.508,4.637 -0.508,2.795 -2.477,5.526 -1.652,6.289 -2.414,5.653 -0.762,6.035 16.96,-5.209 12.641,-6.479 5.844,-0.064 11.435,3.367 7.241,6.606 6.861,8.068 19.755,19.692 7.305,6.416 6.543,3.176 18.994,-2.35 20.073,6.225 12.895,5.209 6.987,1.016 4.892,-0.254 11.053,-4.383 10.735,1.016 7.241,2.414 8.195,5.463 4.447,2.033 z" /></g><g
       transform="translate(1274.9888,1044.3937)"
       id="g68"><path
         id="path70"
         style="fill:none;stroke:#000000;stroke-width:7;stroke-linecap:butt;stroke-linejoin:miter;stroke-miterlimit:4;stroke-dasharray:none;stroke-opacity:1"
         d="m 0,0 1.842,-3.367 0.826,-1.651 0.191,-2.541 -1.271,-2.795 -1.461,-1.398 -0.826,-0.825 -0.826,-0.572 -2.477,-0.826 h -1.461 l -0.826,0.572 -1.651,2.223 -0.445,1.398 -7.305,10.036 -3.748,3.367 -1.651,4.447 -2.732,2.794 -4.574,6.734 -1.27,1.969 -3.113,4.193 -2.286,1.969 -1.462,2.795 -1.016,10.926 -1.461,2.795 -0.826,0.571 -4.383,0.826 1.017,1.144 0.825,1.651 1.144,0.826 1.588,0.254 -0.191,1.398 -2.731,-0.572 0.445,1.397 1.461,1.398 2.286,0.254 0.636,0.826 -0.445,1.651 -2.731,0.826 0.444,5.018 -1.842,4.765 -2.096,3.62 -4.383,6.162 0.444,2.795 2.097,5.018 3.303,3.939 0.826,2.541 2.096,2.795 1.461,0.826 m -0.826,2.541 -3.747,4.764 -3.939,1.969 -3.303,0.254 -1.271,1.652 -1.016,1.143 -2.731,1.651 -1.271,0.826 v 1.969 l 1.652,0.572 2.731,3.939 2.922,8.702 1.017,16.008 -2.922,21.026 -1.08,4.764 -4.129,12.324 -2.922,12.641 -2.732,10.354 -4.383,13.467 -4.192,11.815 -2.478,9.528 -3.748,10.418 -0.825,3.938 -1.271,3.939 -2.287,3.366 -3.112,7.56 -1.842,6.479 -3.558,1.398 -5.653,5.59 -5.844,2.795 -3.748,3.112 -3.303,1.715 -2.287,1.144 0.826,3.938 v 3.113 l 1.27,3.112 1.017,3.367 2.477,0.254 2.287,0.572 h 5.399 l 2.287,0.572 2.287,0.825 -0.445,2.224 -1.27,-0.254 -1.461,-0.254 -1.461,-1.398 -1.461,-0.572 -4.765,0.572 h -1.27 l -3.748,-1.969 -1.651,-4.764 -1.017,-1.398 -0.635,-2.795 0.445,-3.367 h -0.826 l -0.445,0.572 -1.016,2.795 -0.191,2.541 -2.731,9.592 15.563,8.448 19.501,9.084 18.422,9.338 4.764,5.463 2.096,4.256 2.097,2.859 14.292,14.61 5.082,8.258 3.176,3.43 2.859,2.033 9.02,4.002 5.654,1.207 5.526,2.223 11.879,1.842 47.705,23.249 6.607,5.082 6.479,3.494 11.116,9.338 6.289,3.43 6.48,4.891 5.717,3.05 11.053,10.925 5.399,8.703 15.5,15.881 3.557,6.479 9.909,11.498 5.654,11.561 7.051,8.702 12.705,4.257 7.114,3.747 3.811,4.256 1.652,6.416 2.35,5.717 1.652,10.354 2.414,6.099 0.508,3.62 0.127,16.135 -0.635,4.574 -1.906,4.002 -4.192,5.399 -3.304,5.971 -14.991,15.436 -2.541,4.256 -1.651,6.543 -2.478,5.654 -0.635,7.368 -0.191,43.958 -0.571,3.049 -2.224,4.637 -0.571,3.113 -0.763,18.295 -3.62,10.163 v 4.129 l -9.148,9.147 -1.08,3.05 1.08,2.858 4.129,5.336 2.605,4.828 4.51,4.7 10.354,5.146 6.606,2.477 4.193,5.717 4.319,9.338 0.445,4.256 -1.08,3.24 -5.526,5.717 -1.08,3.684 -0.508,11.371 -0.953,2.922 -2.541,3.049 -3.748,1.842 -2.604,2.668 -1.779,4.32 v 24.011 l 0.889,4.066 2.541,5.78 0.572,4.002 -1.016,4.701 -2.923,1.715 -11.815,0.254 -2.668,0.635 -1.397,1.08 -3.748,6.543 -1.143,8.321 -2.478,6.734 -0.381,3.493 1.334,2.732 2.223,2.033 15.627,7.241 3.494,0.826 11.498,0.889 6.669,2.478 11.18,2.033 20.899,10.036 12.451,1.08 9.782,3.176 14.102,0.318 5.4,0.635 6.034,2.16 7.623,1.08 2.605,1.143 1.524,1.779 2.986,5.971 0.889,7.623 1.08,3.874 3.43,7.178 2.097,3.05 3.303,3.049 7.178,4.065 5.971,5.082 10.545,10.862 1.588,2.478 12.133,24.964 1.27,5.654 6.352,13.149 1.716,10.735 2.985,7.305 -0.572,6.099 -7.051,14.356 0.064,25.536 0.826,3.938 6.479,13.721 1.652,6.353 6.161,12.704 1.906,7.432 2.16,4.828 0.318,1.143 19.31,-2.985 4.701,0.953 19.12,12.132 6.099,0.064 7.749,-1.588 7.051,-2.541 5.908,-4.383 11.37,-11.879 7.052,-1.143 11.243,-0.635 6.289,3.112 10.481,11.117 5.399,4.256 4.955,0.063 12.006,-1.778 4.193,1.206 2.35,3.05 2.096,6.352 2.35,4.002 2.795,1.906 5.4,1.461 20.899,2.032 8.448,2.414 15.69,7.623 7.75,0.254 4.447,-1.842 10.354,-6.988 6.352,-5.59 1.207,-4.955 -4.7,-3.049 -4.002,-3.557 -1.017,-1.714 -1.969,-3.367 -0.89,-4.256 1.207,-4.447 2.35,-2.54 3.494,-1.398 6.098,-1.143 6.543,-0.445 15.055,-6.289 15.245,-4.827 12.705,-6.48 11.752,-7.686 12.196,-5.336 8.957,-5.145 8.004,-7.242 7.051,-3.748 11.497,-2.795 9.402,-3.938 8.004,-6.988 22.741,-10.926 12.641,-3.239 2.35,1.651 0.953,4.256 -0.953,5.4 -9.211,20.391 1.398,4.954 3.303,1.207 10.545,-1.842 5.844,-0.191 9.401,3.812 7.242,0.699 30.936,9.21 11.052,0.255 8.449,-1.652 4.701,-3.494 4.954,-2.604 4.256,-4.002 6.543,-0.953 16.643,4.002 16.643,-5.844 22.297,-1.398 2.096,-4.192 0.698,-8.449 2.097,-5.844 3.049,-3.049 5.145,-2.795 9.846,-4.002 5.59,-4.192 0.699,-4.955 -2.351,-10.99 -2.604,-7.495 h 9.147 l 8.449,-0.953 14.991,-2.096 12.641,-2.605 12.196,-5.399 11.689,-7.496 10.989,-4.256 4.891,-2.605 0.699,-3.747 -3.748,-7.496 -3.748,-5.4 -4.002,-7.495 0.445,-10.037 1.397,-7.495 6.988,-11.689 4.891,-6.797 13.086,-12.387 39.892,-27.441 41.036,-37.288 7.241,-7.496 6.035,-10.545 2.033,-1.778 -5.971,3.049 -4.383,3.239 -6.86,-6.288 -7.877,-4.447 -11.561,-10.926 -6.48,-3.494 -4.446,-3.811 -2.351,-3.176 -3.493,-7.305 -2.351,-8.893 -4.065,-6.289 -16.199,-5.463 -1.397,-0.953 -1.27,-2.541 -0.318,-2.985 0.381,-38.241 -0.953,-6.734 -3.62,-4.954 -6.226,-5.463 -2.668,-1.334 -6.352,-1.588 -5.527,-2.478 h -4.446 l -2.668,2.033 -3.367,6.86 -0.762,8.64 -0.763,2.668 -3.43,5.78 -3.239,1.652 -6.035,-0.127 -7.75,-3.049 -4.319,-0.636 -39.067,-0.063 -9.91,-3.24 -14.165,-0.698 -3.049,-0.699 -5.59,-2.414 -4.701,-0.191 -2.795,0.953 -2.541,1.842 -12.578,12.705 -4.637,3.621 -8.067,3.875 -10.418,1.524 -5.717,2.477 -7.305,1.843 -18.993,9.782 -3.431,0.826 -3.557,-1.08 -6.098,-4.764 -4.955,-2.668 -11.116,-9.465 -17.723,-8.639 -5.654,0.063 -5.59,2.541 -4.827,0.89 -26.744,0.317 -4.7,1.144 -19.819,10.29 -9.021,4.129 -12.577,1.144 -6.543,2.668 -3.748,0.762 -28.585,0.254 -6.225,0.635 -29.729,14.801 -5.145,0.89 -16.072,0.317 -3.747,-0.571 -1.588,-0.953 -1.398,-3.367 -0.953,-6.861 -2.223,-5.844 -1.652,-10.29 -8.194,-12.705 -2.605,-2.35 -3.748,-1.144 -11.307,-0.762 -5.717,-2.35 -3.049,-0.635 h -28.331 l -4.065,-0.89 -2.224,-1.524 -2.096,-2.859 -16.961,-34.429 -4.7,-7.686 6.67,-6.099 4.383,-7.813 4.383,-4.637 14.483,-7.369 7.114,-5.59 5.654,-2.922 16.326,-15.182 10.989,-6.479 10.418,-1.525 5.653,-2.477 8.131,-2.096 8.004,-4.066 7.877,-6.098 21.026,-10.481 5.145,-5.209 3.494,-6.479 8.385,-9.529 4.066,-7.114 6.924,-6.67 -8.004,-5.717 -7.305,-3.939 -2.922,-2.731 -2.224,-3.303 -0.889,-6.861 0.064,-25.536 0.571,-5.908 4.701,-9.782 9.592,-10.989 2.541,-4.955 5.399,-6.988 2.605,-4.955 5.462,-6.987 6.543,-13.022 5.972,-7.814 7.876,-16.007 1.842,-11.244 5.146,-9.274 -10.863,1.08 -9.083,-0.445 -3.558,-1.525 -6.225,-4.637 -4.955,-1.334 -29.22,0.318 -6.098,-0.953 -2.16,-1.525 -1.652,-2.032 -5.336,-11.244 -2.286,-3.176 -3.684,-3.303 -7.496,-4.066 -4.637,-5.082 -1.207,-3.874 0.063,-19.121 -0.953,-5.018 -1.524,-2.16 -2.033,-1.588 -12.069,-5.59 -2.414,-2.477 -1.016,-2.605 -0.381,-4.891 0.317,-42.497 -0.381,-3.875 -1.017,-2.731 -2.413,-3.113 -9.973,-10.036 -4.257,-7.306 -4.7,-5.208 -13.912,-13.531 -3.112,-2.414 -6.607,-3.557 -8.258,-8.258 -18.548,-36.589 -5.971,-7.75 -6.543,-12.831 -6.733,-8.512 -6.543,-10.037 -6.797,-12.831 1.334,-4.765 0.508,-6.479 -0.063,-6.289 -1.017,-3.62 -2.159,-1.716 -8.703,-1.27 -9.465,-3.049 -2.159,-1.842 -0.572,-3.812 2.985,-7.495 0.763,-5.463 0.063,-71.273 -0.698,-7.686 -2.859,-7.813 -0.635,-9.783 -0.826,-3.113 -1.143,-1.778 -2.351,-2.033 -4.065,-2.223 -6.035,-4.383 -2.986,-1.271 -5.336,0.064 -5.716,2.414 -3.113,0.698 -4.383,0.064 -5.717,-0.953 -2.223,6.035 -1.906,2.668 -6.67,3.684 -6.352,1.525 -5.717,2.667 -7.051,0.826 -33.477,0.445 -2.985,0.572 -4.828,2.223 -10.354,1.461 -5.844,3.811 -18.358,18.422 -5.209,4.129 -6.797,1.779 -5.654,2.413 -10.354,1.652 -5.844,2.414 -10.672,1.588 -9.211,5.018 -15.372,-2.604 -4.828,-2.096 -4.256,-0.763 -36.017,0.064 -4.193,-1.271 -11.688,-5.463 -11.244,-1.969 -5.844,-2.223 -13.975,-1.588 -8.956,-2.605 -3.748,-0.444 -51.009,0.444 -4.002,-0.635 -5.717,-2.223 -8.576,-1.207 -2.667,-0.826 -3.685,-2.287 -1.27,3.113" /></g><g
       transform="translate(3504.575,641.914)"
       id="g72"><path
         id="path74"
         style="fill:none;stroke:#000000;stroke-width:7;stroke-linecap:butt;stroke-linejoin:miter;stroke-miterlimit:4;stroke-dasharray:none;stroke-opacity:1"
         d="m 0,0 4.256,11.561 4.446,4.828 7.369,3.875 8.957,2.223 4.383,2.414 1.715,1.906 0.762,2.731 -0.127,3.938 -0.762,2.986 -2.668,5.527 -0.635,4.001 0.381,3.875 1.397,2.287 5.781,3.367 3.621,0.762 4.7,-0.699 10.1,-4.954 2.287,-0.636 2.224,0.509 6.288,2.858 6.416,4.955 5.526,2.922 2.478,2.414 4.383,8.575 1.652,7.178 3.684,8.004 3.303,5.654 1.842,1.461 2.414,0.064 5.209,-2.351 6.416,-1.588 8.131,-3.875 3.748,-2.795 11.307,-10.735 8.829,-4.51 2.668,-0.763 8.703,-0.953 7.368,-2.731 -4.446,-6.733 -8.639,-8.576 -4.701,-3.684 -5.907,-2.922 -3.748,-3.176 -2.287,-3.176 -0.572,-3.558 0.635,-2.477 1.08,-1.334 11.689,-6.035 3.684,-3.303 2.35,-3.113 8.131,-16.77 0.572,-4.954 v -14.166 l 0.762,-2.795 2.16,-2.732 6.289,-3.557 7.177,-5.272 16.072,-7.877 5.971,-0.889 13.53,-0.064 2.986,0.508 2.668,1.207 6.479,5.781 3.494,4.573 5.336,11.117 2.985,3.049 4.765,1.334 9.274,0.191 3.621,-0.509 1.905,-1.715 0.128,-2.35 -2.351,-4.955 -1.524,-9.274 -2.668,-6.416 -1.525,-10.227 -3.748,-7.94 -3.494,-5.717 -1.651,-1.779 -5.781,-3.43 -16.134,-7.623 -4.828,-1.017 -13.467,-0.444 -9.656,-3.303 -6.288,-0.254 -5.145,0.635 -38.749,18.866 -6.226,0.635 h -19.247 l -5.018,0.953 -7.941,5.654 -6.67,3.811 -14.292,13.848 -4.891,2.986 -12.578,1.016 -6.543,2.668 -3.811,0.762 -29.348,-0.063 -3.684,0.508 -1.969,1.715 -0.191,2.35 5.971,14.547 0.318,2.35 -0.572,1.525 -1.715,1.524 -5.018,2.859 -6.734,2.033 z" /></g><text
       id="text86"
       style="font-variant:normal;font-weight:normal;font-stretch:normal;font-size:80px;font-family:Arial;-inkscape-font-specification:ArialMT;writing-mode:lr-tb;fill:#000000;fill-opacity:1;fill-rule:nonzero;stroke:none"
       transform="matrix(1,0,0,-1,762.9824,2091.3223)"><tspan
         id="tspan76"
         y="0"
         x="0 53.360001 97.839996 137.84 182.32001 226.8 266.79999 311.28 333.51999">Abkhazeti</tspan><tspan
         id="tspan78"
         y="1484.72"
         x="778.15997 831.52002 876 893.76001 938.23999 964.88">Adjara</tspan><tspan
         id="tspan80"
         y="1222.08"
         x="760.71997 822.96002 867.44 894.08002 911.84003">Guria</tspan><tspan
         id="tspan82"
         y="138.64"
         x="816.40002 869.76001 914.23999 980.88 1025.36 1069.84 1096.48 1140.96 1158.72 1203.2">Samegrelo </tspan><tspan
         id="tspan84"
         y="234.64"
         x="763.03998 811.91998 856.40002 923.03998 967.52002 989.76001 1043.12 1083.12 1127.6 1172.08 1216.5601 1238.8">Zemo Svaneti</tspan></text>
<text
       id="text224"
       style="font-variant:normal;font-weight:normal;font-stretch:normal;font-size:40px;font-family:Arial;-inkscape-font-specification:ArialMT;writing-mode:lr-tb;fill:#000000;fill-opacity:1;fill-rule:nonzero;stroke:none"
       transform="matrix(1,0,0,-1,2041.3555,2021.3154)"><tspan
         id="tspan88"
         y="0"
         x="0 33.32 55.560001 75.559998 86.68 95.559998">Mestia</tspan><tspan
         id="tspan90"
         y="589.15997"
         x="-552.96002 -528.52002 -506.28 -484.04001 -461.79999 -452.92001 -430.67999">Zugdidi</tspan><tspan
         id="tspan92"
         y="765.28003"
         x="-695.15997 -668.47998 -646.23999 -624 -601.76001">Khobi</tspan><tspan
         id="tspan94"
         y="478.35999"
         x="-824.96002 -793.84003 -771.59998 -762.71997">Gali</tspan><tspan
         id="tspan96"
         y="306.23999"
         x="-988.67999 -957.56 -937.56 -915.32001 -893.08002 -859.76001 -839.76001 -817.52002 -808.64001 -795.32001">Ochamchira</tspan><tspan
         id="tspan98"
         y="226.39999"
         x="-815.03998 -790.59998 -768.35999 -748.35999 -726.12 -712.79999 -692.79999 -670.56 -648.32001 -639.44">Tqvarcheli</tspan><tspan
         id="tspan100"
         y="127.8"
         x="-852.71997 -821.59998 -810.47998 -788.23999">Otap</tspan><tspan
         id="tspan102"
         y="53.880001"
         x="-950.96002 -928.71997 -906.47998 -895.35999">Lata</tspan><tspan
         id="tspan104"
         y="17.6"
         x="-761.12 -730 -696.67999 -674.44 -661.12 -652.23999 -632.23999 -610 -587.76001 -574.44">Omarishara</tspan><tspan
         id="tspan106"
         y="53.880001"
         x="-1237.72 -1211.04 -1188.8 -1168.8 -1146.5601 -1124.3199 -1091">Sukhumi</tspan><tspan
         id="tspan108"
         y="-61.84"
         x="-1546.6801 -1515.5601 -1493.3199 -1471.08 -1448.84 -1426.6 -1415.48">Gudauta</tspan><tspan
         id="tspan110"
         y="-138.56"
         x="-1805.76 -1779.08 -1770.2 -1759.08 -1739.08 -1716.84 -1694.6 -1672.36">Pitsunda</tspan><tspan
         id="tspan112"
         y="-294.28"
         x="-1916.76 -1885.64 -1863.4 -1841.16 -1827.84">Gagra</tspan><tspan
         id="tspan114"
         y="-276.76001"
         x="-1499.4 -1472.72 -1452.72 -1432.72 -1410.48">Pskhu</tspan><tspan
         id="tspan116"
         y="693.40002"
         x="-843.28003 -816.59998 -794.35999 -772.12 -752.12 -743.23999 -734.35999">Anaklia</tspan><tspan
         id="tspan118"
         y="890.15997"
         x="-803.20001 -776.52002 -754.28003 -743.15997">Poti</tspan><tspan
         id="tspan120"
         y="792.79999"
         x="-454.92001 -428.23999 -406 -383.76001 -361.51999 -341.51999">Senaki</tspan><tspan
         id="tspan122"
         y="1008.6"
         x="-707.40002 -685.15997 -662.91998 -640.67999 -620.67999 -598.44 -578.44 -556.20001 -533.96002 -522.84003">Lanchkhuti</tspan><tspan
         id="tspan124"
         y="1233.64"
         x="-266.16 -239.48 -217.24001 -197.24001 -175 -141.67999 -119.44 -106.12">Bakhmaro</tspan><tspan
         id="tspan126"
         y="1209.6"
         x="-562.91998 -531.79999 -511.79999 -489.56 -476.23999 -454 -431.76001 -420.64001">Ozurgeti</tspan><tspan
         id="tspan128"
         y="1313.48"
         x="-716.28003 -689.59998 -667.35999 -645.12 -622.88 -614 -591.76001 -580.64001">Kobuleti</tspan><tspan
         id="tspan130"
         y="1476.6801"
         x="-823.67999 -797 -774.76001 -763.64001 -741.40002 -708.08002">Batumi</tspan><tspan
         id="tspan132"
         y="1490.16"
         x="-578.59998 -551.91998 -529.67999 -507.44">Keda</tspan><tspan
         id="tspan134"
         y="1530.08"
         x="-333.48001 -306.79999 -284.56 -262.32001 -253.44">Khulo</tspan><tspan
         id="tspan136"
         y="777.76001"
         x="-232.96001 -212.96001 -192.96001 -172.96001 -150.72 -128.48 -119.6 -108.48 -86.239998 -64">Tskhaltubo</tspan><tspan
         id="tspan138"
         y="924.23999"
         x="-266.20001 -239.52 -217.28 -183.96001 -172.84 -159.52 -137.28 -115.04 -106.16">Samtredia</tspan><tspan
         id="tspan140"
         y="1066.3199"
         x="-595.20001 -566.32001 -544.08002 -521.84003 -501.84 -479.60001 -457.35999 -446.23999 -424 -401.76001 -388.44">Chokhatauri</tspan><tspan
         id="tspan142"
         y="1124.16"
         x="121.56 148.24001 170.48 192.72 214.96001 237.2 259.44">Bagdadi</tspan><tspan
         id="tspan144"
         y="705.84003"
         x="11.64 36.080002 56.080002 64.959999 87.199997 109.44 118.32">Tkibuli</tspan><tspan
         id="tspan146"
         y="834.67999"
         x="52.040001 78.720001 100.96 112.08 134.32001 143.2 163.2">Kutaisi</tspan><tspan
         id="tspan148"
         y="777.76001"
         x="442.88 471.76001 494 502.88 525.12 536.23999 558.47998 571.79999">Chiatura</tspan><tspan
         id="tspan150"
         y="964.59998"
         x="287.35999 311.79999 334.04001 354.04001 365.16 387.39999 409.64001 431.88 454.12">Zestaponi</tspan><tspan
         id="tspan152"
         y="478.44"
         x="-439.72 -419.72 -399.72 -377.48001 -368.60001 -346.35999 -324.12 -315.23999 -293 -284.12 -264.12 -241.88">Tsalenjhikha</tspan><tspan
         id="tspan154"
         y="379.23999"
         x="-529.59998 -509.60001 -489.60001 -467.35999 -454.04001">Jvari</tspan><tspan
         id="tspan156"
         y="211.39999"
         x="-328.76001 -302.07999 -279.84 -257.60001 -248.72 -228.72 -206.48">Khaishi</tspan><tspan
         id="tspan158"
         y="324.23999"
         x="-213 -190.75999 -168.52 -146.28 -135.16 -112.92 -92.919998 -70.68">Lentekhi</tspan><tspan
         id="tspan160"
         y="582.15997"
         x="78.160004 104.84 127.08 147.08 169.32001 191.56 211.56 233.8 253.8 276.04001 289.35999">Khvanchkara</tspan><tspan
         id="tspan162"
         y="545.84003"
         x="387.35999 414.04001 447.35999 469.60001 482.92001 505.16 514.03998 536.28003 558.52002 571.84003">Ambrolauri</tspan><tspan
         id="tspan164"
         y="1065"
         x="2180.72 2211.8401 2231.8401 2254.0801 2267.3999 2289.6399 2298.52">Qvareli</tspan><tspan
         id="tspan166"
         y="1182.08"
         x="2414.8799 2437.1201 2459.3601 2481.6001 2503.8401 2526.0801 2548.3201 2568.3201 2590.5601">Lagodekhi</tspan><tspan
         id="tspan168"
         y="1495.36"
         x="2436.96 2456.96 2476.96 2499.2 2521.4399 2534.76">Tsnori</tspan><tspan
         id="tspan170"
         y="1182.08"
         x="1880.6801 1900.6801 1922.92 1931.8 1954.04 1974.04">Telavi</tspan><tspan
         id="tspan172"
         y="1011.88"
         x="1814.04 1840.72 1860.72 1882.96 1916.28 1938.52 1949.64">Akhmeta</tspan><tspan
         id="tspan174"
         y="614.08002"
         x="1948.84 1975.52 1988.84 2008.84 2031.08 2039.96 2048.8401">Archilo</tspan><tspan
         id="tspan176"
         y="1583.28"
         x="1724.28 1753.16 1775.4 1795.4 1806.52 1828.76 1848.76">Rustavi</tspan><tspan
         id="tspan178"
         y="1358.5601"
         x="1635.76 1660.2 1682.4399 1691.3199 1700.2 1709.08 1729.08">Tbilisi</tspan><tspan
         id="tspan180"
         y="1744.96"
         x="1320.48 1347.16 1369.4 1389.4 1402.72 1424.96 1436.08">Kazreti</tspan><tspan
         id="tspan182"
         y="1632.4399"
         x="1189.6801 1216.36 1238.6 1247.48 1269.72 1278.6 1298.6">Bolnisi</tspan><tspan
         id="tspan184"
         y="1574"
         x="1328.88 1362.2 1384.4399 1397.76 1420 1442.24 1464.48 1473.36">Marneuli</tspan><tspan
         id="tspan186"
         y="1849.2"
         x="722.52002 751.40002 760.28003 782.52002 804.76001 815.88 835.88 869.20001 878.08002 900.32001 922.56">Ninotsminda</tspan><tspan
         id="tspan188"
         y="1744.92"
         x="537.15997 563.84003 583.84003 606.08002 628.32001 637.20001 657.20001 679.44 688.32001 710.56 730.56">Akhalkalaki</tspan><tspan
         id="tspan190"
         y="1444"
         x="208.72 235.39999 255.39999 277.64001 299.88 308.76001 319.88 339.88 348.76001 368.76001 391">Akhaltsikhe</tspan><tspan
         id="tspan192"
         y="1194.48"
         x="1446.64 1479.96 1491.08 1511.08 1531.08 1553.3199 1575.5601 1586.6801">Mtskheta</tspan><tspan
         id="tspan194"
         y="1085.04"
         x="1417.88 1446.76 1469 1489 1511.24 1533.48 1544.6">Dusheti</tspan><tspan
         id="tspan196"
         y="665.28003"
         x="1315.48 1342.16 1364.4 1384.4 1406.64 1428.88 1451.12 1473.36 1486.6801">Pasanauri</tspan><tspan
         id="tspan198"
         y="589.15997"
         x="1251.04 1284.36 1293.24 1315.48 1326.6">Mleta</tspan><tspan
         id="tspan200"
         y="1179.04"
         x="932.52002 963.64001 985.88 999.20001">Gori</tspan><tspan
         id="tspan202"
         y="1268.36"
         x="450.64001 477.32001 499.56 512.88 521.76001 544 577.32001">Borjomi</tspan><tspan
         id="tspan204"
         y="1331"
         x="523.88 550.56 572.79999 592.79999 615.03998 628.35999 637.23999 659.47998 681.71997">Bakuriani</tspan><tspan
         id="tspan206"
         y="1134.08"
         x="569.35999 596.03998 618.28003 640.52002 660.52002 682.76001 705 718.32001">Khashuri</tspan><tspan
         id="tspan208"
         y="1374.24"
         x="-36.240002 -9.5600004 12.68 34.919998 54.919998 66.040001 88.279999 121.6 143.84 166.08">Abastumani</tspan><tspan
         id="tspan210"
         y="1358.48"
         x="314.04001 340.72 351.84 371.84 391.84 414.07999 427.39999">Atskuri</tspan><tspan
         id="tspan212"
         y="892.56"
         x="741.76001 761.76001 781.76001 801.76001 824 832.88 855.12 875.12 897.35999 906.23999">Tskhinvali</tspan><tspan
         id="tspan214"
         y="805.12"
         x="889.88 916.56 938.79999 952.12 963.23999">Kurta</tspan><tspan
         id="tspan216"
         y="875"
         x="1016.92 1043.6 1063.6 1085.84 1108.08 1116.96 1139.2 1161.4399 1174.76">Akhalgori</tspan><tspan
         id="tspan218"
         y="1689.88"
         x="2438.3601 2467.24 2489.48 2511.72 2533.96 2556.2 2565.0801 2573.96 2593.96 2604.396 2624.396 2644.396 2664.396 2686.636 2699.9561">Dedoplis Tskaro</tspan><tspan
         id="tspan220"
         y="1369.36"
         x="2119.3201 2150.4399 2172.6799 2186 2194.8799 2217.1201 2239.3601 2261.6001">Gurjaani</tspan><tspan
         id="tspan222"
         y="561.59998"
         x="693.79999 720.47998 740.47998 762.71997 771.59998 791.59998">Kvaisi</tspan></text>
<text
       id="text244"
       style="font-variant:normal;font-weight:normal;font-stretch:normal;font-size:80px;font-family:Arial;-inkscape-font-specification:ArialMT;writing-mode:lr-tb;fill:#000000;fill-opacity:1;fill-rule:nonzero;stroke:none"
       transform="matrix(1,0,0,-1,2026.0605,1637.8389)"><tspan
         id="tspan226"
         y="0"
         x="0 57.759998 102.24 142.24001 186.72 231.2 253.44 297.92001 342.39999 382.39999 426.88 466.88 511.35999 555.84003 622.47998 640.23999">Racha Lechkhumi </tspan><tspan
         id="tspan228"
         y="96"
         x="51.119999 104.48 144.48 188.96001 255.60001 300.07999 322.32001 375.67999 415.67999 460.16 504.64001 549.12 571.35999">Kvemo Svaneti</tspan><tspan
         id="tspan230"
         y="565.28003"
         x="26.879999 49.119999 115.76 160.24001 186.88 231.36 253.60001">Imereti</tspan><tspan
         id="tspan232"
         y="1161.6801"
         x="249.28 302.64001 347.12 413.76001 453.76001 493.76001 538.23999 582.71997">Samckhe </tspan><tspan
         id="tspan234"
         y="1257.6801"
         x="247.03999 287.04001 331.51999 371.51999 416 456 500.48001 544.96002 567.20001">Javakheti</tspan><tspan
         id="tspan236"
         y="629.44"
         x="695.03998 748.40002 792.88 810.64001 855.12 899.59998 921.84003 975.20001 1019.68 1046.3199 1068.5601 1086.3199">Shida Kartli</tspan><tspan
         id="tspan238"
         y="425.67999"
         x="1364.64 1431.28 1453.52 1493.52 1533.52 1578 1622.48 1644.72 1689.2">Mtskheta </tspan><tspan
         id="tspan240"
         y="521.67999"
         x="1386.88 1453.52 1475.76 1493.52 1538 1582.48 1626.96 1649.2">Mtianeti</tspan><tspan
         id="tspan242"
         y="908.96002"
         x="2110 2163.3601 2207.8401 2247.8401 2292.3201 2336.8 2359.04">Kakheti</tspan></text>
</g></svg>