<?xml version="1.0" encoding="UTF-8" standalone="no"?>
<svg width="53px" height="55px" viewBox="0 0 53 55" version="1.1" xmlns="http://www.w3.org/2000/svg" xmlns:xlink="http://www.w3.org/1999/xlink">
    <!-- Generator: Sketch 40.3 (33839) - http://www.bohemiancoding.com/sketch -->
    <title>icon-price</title>
    <desc>Created with Sketch.</desc>
    <defs></defs>
    <g id="01_Home" stroke="none" stroke-width="1" fill="none" fill-rule="evenodd">
        <g id="01_home_v3" transform="translate(-377.000000, -2664.000000)">
            <g id="icon-price" transform="translate(377.000000, 2664.000000)">
                <path d="M26.2506124,55 C23.9350349,55 21.8389222,53.757 20.7012884,51.7344667 C20.6430631,51.6567333 20.5937955,51.5738667 20.5467673,51.4851333 C20.2004011,50.798 19.6606969,49.9356 19.0567955,49.7434667 C18.5842743,49.5916667 17.8586969,49.7691333 16.8964856,50.2648667 C16.8031757,50.3132667 16.70688,50.3536 16.6075983,50.3822 C14.496556,51.3421333 12.0704997,51.1067333 10.2013166,49.7317333 C8.35004898,48.3743333 7.38709123,46.1457333 7.64387996,43.857 C7.64089405,43.7624 7.64686588,43.6678 7.66478137,43.5702667 C8.0171194,41.327 7.5684856,40.6941333 5.38428841,40.348 C5.27903489,40.3304 5.17751377,40.3047333 5.07823208,40.2702667 C2.82386588,39.798 1.01589405,38.1788 0.307485596,35.9846667 C-0.394951023,33.8052 0.126837709,31.4416667 1.66085179,29.7403333 C1.71609123,29.6567333 1.78028841,29.5797333 1.85269686,29.5049333 C3.4307532,27.9121333 3.4307532,27.0878667 1.85269686,25.498 C1.78028841,25.4232 1.71310531,25.3454667 1.65786588,25.2596667 C0.126837709,23.5583333 -0.391965108,21.1977333 0.307485596,19.0182667 C1.01290813,16.8212 2.82685179,15.2049333 5.08121799,14.7326667 C5.17751377,14.6982 5.27604898,14.6725333 5.3813025,14.6578667 C7.56549968,14.3088 8.01114757,13.6752 7.66179546,11.4326667 C7.65283771,11.3322 7.64686588,11.2346667 7.64686588,11.1378667 C7.39306306,8.85133333 8.35527433,6.62273333 10.2043025,5.26533333 C12.0764715,3.89033333 14.5084997,3.65493333 16.6195419,4.62073333 C16.7128518,4.64933333 16.8061617,4.68966667 16.8964856,4.73513333 C17.8586969,5.23086667 18.5842743,5.40833333 19.0567955,5.25653333 C19.6606969,5.0644 20.2004011,4.20493333 20.5467673,3.51486667 C20.5937955,3.42613333 20.646049,3.34033333 20.7012884,3.2626 C21.8419081,1.243 23.9380208,0 26.2506124,0 C28.5661898,0 30.6682743,1.24886667 31.8029222,3.27726667 C31.8581617,3.35133333 31.9074293,3.432 31.9484856,3.51486667 C32.2955983,4.202 32.8375419,5.0644 33.4414433,5.25653333 C33.9079926,5.40833333 34.636556,5.2338 35.6017532,4.73513333 C35.6920771,4.68966667 35.7883729,4.64933333 35.8846687,4.62073333 C37.9957109,3.65493333 40.4217673,3.89326667 42.2939363,5.26533333 C44.1429645,6.62273333 45.1051757,8.8484 44.8513729,11.1378667 C44.8543588,11.2346667 44.8454011,11.3322 44.831218,11.4297333 C44.4781335,13.673 44.9275138,14.3058667 47.1109645,14.6549333 C47.216218,14.6725333 47.3154997,14.6952667 47.4147814,14.7297333 C49.6684011,15.202 51.4793588,16.8182667 52.1847814,19.0153333 C52.8849786,21.1977333 52.3654293,23.5642 50.8321617,25.2655333 C50.7761757,25.3454667 50.712725,25.4232 50.642556,25.4950667 C49.0674856,27.0878667 49.0674856,27.9121333 50.642556,29.502 C50.7149645,29.5768 50.7791617,29.6545333 50.8381335,29.7374 C52.3714011,31.4387333 52.8909504,33.8022667 52.1877673,35.9817333 C51.4823448,38.1788 49.671387,39.798 47.4147814,40.2673333 C47.3184856,40.3047333 47.2192039,40.3274667 47.1139504,40.3450667 C44.9297532,40.6912 44.4841053,41.3248 44.8364433,43.5673333 C44.8513729,43.6678 44.8603307,43.7682667 44.8573448,43.8650667 C45.1111476,46.1516 44.1489363,48.3743333 42.2999081,49.7288 C40.430725,51.1067333 38.0076546,51.3421333 35.8906405,50.3763333 C35.7943448,50.3448 35.7010349,50.3081333 35.607725,50.2619333 C34.6425278,49.7662 33.9079926,49.5887333 33.4474152,49.7405333 C32.8405278,49.9326667 32.3038095,50.7921333 31.9544574,51.4822 C31.9134011,51.568 31.8611476,51.6486667 31.8051617,51.7256667 C30.6652884,53.7540667 28.5661898,55 26.2506124,55 L26.2506124,55 Z M23.5505983,49.7002 C23.6058377,49.775 23.6528659,49.8549333 23.6961617,49.9385333 C24.1977955,50.941 25.1771757,51.5621333 26.2506124,51.5621333 C27.324049,51.5621333 28.3034293,50.941 28.808049,49.9385333 C28.8483588,49.8549333 28.8983729,49.7779333 28.9506264,49.7031333 C29.8747673,47.9673333 30.9944856,46.9106 32.3650208,46.475 C33.7243588,46.0423333 35.2232884,46.2403333 36.9610912,47.0822 C37.0514152,47.1108 37.1417391,47.1482 37.2290771,47.1936667 C38.2032321,47.6982 39.3401194,47.6124 40.2060349,46.9766 C41.0988236,46.3202667 41.5384997,45.2114667 41.3578518,44.077 C41.3436687,43.9802 41.3347109,43.8856 41.3376969,43.791 C40.8360631,39.9835333 42.4895138,37.7006667 46.2540067,36.9988667 C46.3443307,36.9673333 46.4406264,36.9446 46.5369222,36.9299333 C47.6275278,36.7583333 48.5165842,35.9964 48.8517532,34.9418667 C49.19588,33.8712 48.9129645,32.7022667 48.1112462,31.8970667 C48.0440631,31.8281333 47.9798659,31.7540667 47.9246264,31.6763333 C45.3119504,28.8977333 45.3149363,26.0846667 47.9276124,23.309 C47.9798659,23.232 48.0410771,23.1601333 48.1082602,23.0912 C48.9099786,22.2867333 49.192894,21.1207333 48.8487673,20.0464 C48.5106124,18.9918667 47.6245419,18.2299333 46.5339363,18.0612667 C46.4316687,18.0466 46.3353729,18.0209333 46.2420631,17.9894 C42.4835419,17.2846667 40.8300912,15.0018 41.331725,11.1921333 C41.331725,11.1004667 41.3376969,11.0058667 41.35188,10.9142 C41.5332743,9.77973333 41.0928518,8.668 40.2008095,8.01533333 C39.3311617,7.3788 38.1942743,7.29593333 37.2231053,7.80046667 C37.1357673,7.84593333 37.0454433,7.88333333 36.9551194,7.91193333 C35.2173166,8.7516 33.7124152,8.9518 32.3597955,8.51913333 C30.9922462,8.0894 29.8725278,7.02973333 28.9446546,5.291 C28.895387,5.21913333 28.8461194,5.14213333 28.808049,5.06146667 C28.3034293,4.059 27.324049,3.43786667 26.2506124,3.43786667 C25.1771757,3.43786667 24.1977955,4.059 23.6961617,5.06146667 C23.6551053,5.14506667 23.6028518,5.22793333 23.5505983,5.30493333 C22.6264574,7.0356 21.5067391,8.09233333 20.1414293,8.52793333 C18.7917955,8.95766667 17.2839081,8.75966667 15.5431194,7.91486667 C15.4527955,7.88626667 15.3624715,7.84886667 15.2781194,7.80633333 C14.3069504,7.3018 13.1670771,7.38466667 12.3004152,8.0212 C11.4083729,8.6768 10.9649645,9.78853333 11.1493448,10.9200667 C11.1605419,11.0117333 11.1665138,11.1034 11.1665138,11.1950667 C11.6681476,15.0047333 10.0176828,17.2905333 6.25318982,17.9952667 C6.15987996,18.0268 6.0665701,18.0495333 5.96728841,18.0671333 C4.87668278,18.2387333 3.99061236,18.9977333 3.65245743,20.0552 C3.30833067,21.1266 3.59124616,22.2948 4.39296447,23.1 C4.462387,23.1718667 4.52658419,23.243 4.5825701,23.3266 C7.18927433,26.1022667 7.18927433,28.9124 4.57958419,31.6880667 C4.52434475,31.768 4.462387,31.8398667 4.39296447,31.9088 C3.59124616,32.7132667 3.30534475,33.8792667 3.65245743,34.9536 C3.99061236,36.0081333 4.87966869,36.773 5.97027433,36.9416667 C6.06955602,36.9563333 6.16585179,36.9790667 6.25916165,37.0135333 C10.0206687,37.7153333 11.6711335,40.0011333 11.1694997,43.8137333 C11.1694997,43.9054 11.1635278,43.9970667 11.1493448,44.0887333 C10.9679504,45.2202667 11.4083729,46.332 12.3004152,46.9876 C13.1700631,47.6234 14.3069504,47.7099333 15.2811053,47.2024667 C15.3684433,47.157 15.4617532,47.1196 15.5550631,47.091 C17.28988,46.2513333 18.7947814,46.0511333 20.1444152,46.4838 C21.5067391,46.9106 22.6234715,47.9673333 23.5505983,49.7002 L23.5505983,49.7002 Z" id="Fill-1" fill="#C0C6CE"></path>
                <path d="M26.5,29.2189333 C24.3508873,29.2189333 22.3159859,28.5486667 20.7670423,27.3313333 C19.1053803,26.0245333 18.1894507,24.2513333 18.1894507,22.3439333 C18.1894507,20.4328667 19.1053803,18.6596667 20.7670423,17.3536 C23.9104648,14.8815333 29.5530986,14.9790667 32.8420845,17.5626 C33.5975211,18.1558667 33.7199437,19.2353333 33.1160423,19.9774667 C32.5158732,20.7196 31.4133239,20.8398667 30.6549014,20.2466 C28.6841972,18.6970667 24.7942958,18.5914667 22.9542254,20.0376 C22.1375775,20.6792667 21.6889437,21.4984 21.6889437,22.3439333 C21.6889437,23.1887333 22.1375775,24.0049333 22.9542254,24.6466 C23.884338,25.3799333 25.1443944,25.7810667 26.5,25.7810667 C27.4651972,25.7810667 28.2497465,26.5518 28.2497465,27.5 C28.2497465,28.4482 27.4651972,29.2189333 26.5,29.2189333 L26.5,29.2189333 Z" id="Fill-2" fill="#0FBDAF"></path>
                <path d="M26.4507324,39.4364667 C24.1702394,39.4364667 21.8516761,38.7662 20.1579155,37.4374 C19.4024789,36.8412 19.2800563,35.7617333 19.8839577,35.0196 C20.4871127,34.2774667 21.5866761,34.1601333 22.3450986,34.7504667 C24.3158028,36.3029333 28.2027183,36.4063333 30.0457746,34.9594667 C30.8624225,34.3178 31.3110563,33.4986667 31.3110563,32.6531333 C31.3110563,31.8083333 30.8624225,30.9892 30.0457746,30.3475333 C29.115662,29.6200667 27.8556056,29.2189333 26.5,29.2189333 C25.5348028,29.2189333 24.7502535,28.4482 24.7502535,27.5 C24.7502535,26.5518 25.5348028,25.7810667 26.5,25.7810667 C28.6491127,25.7810667 30.6840141,26.4513333 32.2299718,27.6664667 C33.8946197,28.9725333 34.8105493,30.7457333 34.8105493,32.6560667 C34.8105493,34.5671333 33.8946197,36.3403333 32.2299718,37.6434667 C30.7049155,38.8439333 28.5938732,39.4364667 26.4507324,39.4364667 L26.4507324,39.4364667 Z" id="Fill-3" fill="#0FBDAF"></path>
                <path d="M26.5,18.9060667 C25.5348028,18.9060667 24.7502535,18.1353333 24.7502535,17.1878667 L24.7502535,13.4376 C24.7502535,12.4894 25.5348028,11.7186667 26.5,11.7186667 C27.4651972,11.7186667 28.2497465,12.4894 28.2497465,13.4376 L28.2497465,17.1878667 C28.2497465,18.1353333 27.4651972,18.9060667 26.5,18.9060667 L26.5,18.9060667 Z" id="Fill-4" fill="#0FBDAF"></path>
                <path d="M26.9878417,43.4374 C26.0226445,43.4374 25.2380952,42.6696 25.2380952,41.7184667 L25.2380952,37.9682 C25.2380952,37.0178 26.0226445,36.25 26.9878417,36.25 C27.9530389,36.25 28.7375882,37.0178 28.7375882,37.9682 L28.7375882,41.7184667 C28.7375882,42.6666667 27.9530389,43.4374 26.9878417,43.4374 L26.9878417,43.4374 Z" id="Fill-5" fill="#0FBDAF"></path>
            </g>
        </g>
    </g>
</svg>