<?xml version="1.0" encoding="UTF-8" standalone="no"?>
<svg width="44px" height="60px" viewBox="0 0 44 60" version="1.1" xmlns="http://www.w3.org/2000/svg" xmlns:xlink="http://www.w3.org/1999/xlink">
    <!-- Generator: Sketch 40.3 (33839) - http://www.bohemiancoding.com/sketch -->
    <title>icon-guarantee</title>
    <desc>Created with Sketch.</desc>
    <defs></defs>
    <g id="01_Home" stroke="none" stroke-width="1" fill="none" fill-rule="evenodd">
        <g id="01_home_v3" transform="translate(-695.000000, -2661.000000)">
            <g id="icon-guarantee" transform="translate(695.000000, 2661.000000)">
                <path d="M34.686,38.8 C40.212,34.9096 43.8201818,28.5688 43.8201818,21.4216 C43.8169091,9.6096 33.9897273,0 21.9084545,0 C9.82718182,0 0,9.6096 0,21.4216 C0,28.572 3.60818182,34.9096 9.13418182,38.8 L2.03563636,52.7936 C1.73536364,53.3816 1.818,54.0816 2.25327273,54.5872 C2.68445455,55.0904 3.36845455,55.3032 4.014,55.116 L9.03518182,53.7096 L10.9268182,58.4656 C11.1665455,59.0752 11.7548182,59.5096 12.4257273,59.5216 C12.7489091,59.5216 13.5507273,59.5216 14.0203636,58.6096 L21.9084545,43.0656 L29.7965455,58.6152 C30.0837273,59.1784 30.672,59.528 31.3044545,59.528 C31.3306364,59.528 32.5030909,59.6344 32.8737273,58.472 L34.7661818,53.716 L39.7873636,55.1216 C40.4329091,55.2968 41.1169091,55.0968 41.5480909,54.5936 C41.9792727,54.0904 42.0627273,53.3872 41.7657273,52.8 L34.686,38.8 Z M12.6908182,53.7904 L11.6239091,51.1184 C11.3105455,50.3216 10.4121818,49.9 9.585,50.1344 L6.76881818,50.9184 L12.0297273,40.5376 C13.995,41.5096 16.1271818,42.2128 18.3829091,42.5656 L12.6908182,53.7904 Z M21.9084545,39.528 C11.6975455,39.528 3.39054545,31.4064 3.39054545,21.4216 C3.39054545,11.4376 11.6975455,3.316 21.9084545,3.316 C32.1193636,3.316 40.4263636,11.4376 40.4263636,21.4216 C40.4263636,31.4064 32.1193636,39.528 21.9084545,39.528 L21.9084545,39.528 Z M34.2294545,50.1216 C33.3916364,49.8872 32.5030909,50.3216 32.1897273,51.1064 L31.1228182,53.7784 L25.4307273,42.5408 C27.684,42.1904 29.8153636,41.484 31.7839091,40.5128 L37.0448182,50.8936 L34.2294545,50.1216 Z" id="Fill-1" fill="#C0C6CE"></path>
                <path d="M34.0304569,16.6124 L27.2837296,15.65 L24.2630023,9.6748 C23.9758205,9.1124 23.3875478,8.75 22.7420023,8.75 C22.0964569,8.75 21.5081842,9.1124 21.2210023,9.6748 L18.2002751,15.65 L11.4535478,16.6124 C10.8178205,16.706 10.2900932,17.1404 10.0855478,17.7372 C9.88100233,18.3348 10.050366,18.9908 10.5175478,19.4372 L15.4070023,24.0908 L14.2566387,30.666 C14.1478205,31.2876 14.3777296,31.9532 14.9275478,32.2844 C15.4552751,32.6004 16.2448205,32.6844 16.7144569,32.4124 L22.7550932,29.306 L28.7949114,32.4124 C29.4535478,32.7628 31.5276387,32.306 31.2052751,30.4436 L30.0892751,24.1028 L34.9795478,19.45 C35.4336387,19.0156 35.6030023,18.35 35.4107296,17.75 C35.1939114,17.1404 34.6661842,16.694 34.0304569,16.6124 L34.0304569,16.6124 Z M27.0824569,22.3188 C26.6856387,22.694 26.5072751,23.2436 26.5899114,23.7844 L27.3090932,27.9092 L23.5217296,25.966 C23.0300023,25.7092 22.4417296,25.7092 21.9524569,25.966 L18.1650932,27.9092 L18.8842751,23.7844 C18.9800023,23.2468 18.8016387,22.706 18.3925478,22.3188 L15.324366,19.3876 L19.5682751,18.7908 C20.1180932,18.7092 20.5975478,18.3692 20.8405478,17.8876 L22.7321842,14.1252 L24.6246387,17.8876 C24.8766387,18.3812 25.3438205,18.7188 25.8960932,18.7908 L30.1408205,19.3876 L27.0824569,22.3188 Z" id="Fill-2" fill="#61A5F4"></path>
            </g>
        </g>
    </g>
</svg>