<?xml version="1.0" encoding="UTF-8" standalone="no"?>
<svg width="59px" height="55px" viewBox="0 0 59 55" version="1.1" xmlns="http://www.w3.org/2000/svg" xmlns:xlink="http://www.w3.org/1999/xlink">
    <!-- Generator: Sketch 40.3 (33839) - http://www.bohemiancoding.com/sketch -->
    <title>icon-timeline</title>
    <desc>Created with Sketch.</desc>
    <defs></defs>
    <g id="01_Home" stroke="none" stroke-width="1" fill="none" fill-rule="evenodd">
        <g id="01_home_v3" transform="translate(-1021.000000, -2666.000000)">
            <g id="icon-timeline" transform="translate(1021.000000, 2666.000000)">
                <path d="M29.2657471,2.3951416 C29.2657471,3.37634277 30.2575072,4.36427419 31.5632609,4.36427419 C43.826029,4.36427419 54.8026232,15.3751613 54.8026232,27.6800806 C54.8026232,39.985 43.826029,50.9958871 31.5632609,50.9958871 C20.3118551,50.9958871 9.98769565,41.5622581 8.53076812,30.6633871 L10.1063232,31.9155273 C10.2747803,32.0898438 11.7252197,32.5592041 12.4193115,31.9155273 C13.0581641,31.3230775 13.0247298,29.8942742 12.0991211,28.9619355 L7.63256522,24.026371 C6.70695652,23.0975806 6.20494203,23.0975806 5.2757971,24.026371 L1.22753906,28.9619355 C0.301930367,29.8907258 0.8359375,31.3491211 1.22753906,31.7077637 C1.61914063,32.0664062 2.80175781,32.3669434 3.32543945,31.7077637 L4.71353623,30.3280645 C6.04315942,44.018629 17.5774638,54.7578226 31.5667971,54.7578226 C46.4437246,54.7578226 58.5508986,42.6081452 58.5508986,27.6800806 C58.5473623,12.7520161 46.4437246,0.603225806 31.5632609,0.603225806 C30.253971,0.603225806 29.2657471,1.41394043 29.2657471,2.3951416 Z" id="Fill-1" fill="#C0C6CE"></path>
                <path d="M43.6191594,14.0267742 C43.6191594,17.0180645 39.1502464,17.0180645 39.1502464,14.0267742 C39.1502464,11.036371 43.6191594,11.036371 43.6191594,14.0267742" id="Fill-2" fill="#EF6E74"></path>
                <path d="M48.0907246,26.7237903 C48.0907246,29.7141935 43.6191594,29.7141935 43.6191594,26.7237903 C43.6191594,23.7333871 48.0907246,23.7333871 48.0907246,26.7237903" id="Fill-3" fill="#EF6E74"></path>
                <path d="M43.6191594,39.0597581 C43.6191594,42.0501613 39.1502464,42.0501613 39.1502464,39.0597581 C39.1502464,36.0693548 43.6191594,36.0693548 43.6191594,39.0597581" id="Fill-4" fill="#EF6E74"></path>
                <path d="M33.4586812,45.7892742 C33.4586812,48.7796774 28.9871159,48.7796774 28.9871159,45.7892742 C28.9871159,42.798871 33.4586812,42.798871 33.4586812,45.7892742" id="Fill-5" fill="#EF6E74"></path>
                <path d="M22.6254348,40.8587903 C21.9836087,40.8587903 21.3373623,40.6121774 20.8475942,40.1207258 C19.8662899,39.1360484 19.8627536,37.5348387 20.8475942,36.5510484 L28.7068696,28.6612097 L28.7068696,12.713871 C28.7068696,11.321129 29.8331594,10.1909677 31.2211304,10.1909677 C32.6091014,10.1909677 33.7353913,11.321129 33.7353913,12.713871 L33.7353913,29.7070968 C33.7353913,30.3759677 33.4728261,31.0173387 32.9998551,31.4919355 L24.4041594,40.1207258 C23.9135072,40.6121774 23.2716812,40.8587903 22.6254348,40.8587903 L22.6254348,40.8587903 Z" id="Fill-6" fill="#EF6E74"></path>
            </g>
        </g>
    </g>
</svg>