<?xml version="1.0" encoding="UTF-8" standalone="no"?>
<svg width="112px" height="117px" viewBox="0 0 112 117" version="1.1" xmlns="http://www.w3.org/2000/svg" xmlns:xlink="http://www.w3.org/1999/xlink">
    <!-- Generator: Sketch 40.3 (33839) - http://www.bohemiancoding.com/sketch -->
    <title>Page 1</title>
    <desc>Created with Sketch.</desc>
    <defs></defs>
    <g id="01_Home" stroke="none" stroke-width="1" fill="none" fill-rule="evenodd">
        <g id="01_home_v3" transform="translate(-349.000000, -1996.000000)">
            <g id="Group-3" transform="translate(311.000000, 842.000000)">
                <g id="Page-1" transform="translate(38.000000, 1154.000000)">
                    <path d="M59.5016279,0.426369863 L10.4983721,0.426369863 C4.9472093,0.426369863 0.433023256,4.94673973 0.433023256,10.507137 L0.433023256,106.492863 C0.433023256,112.05326 4.9472093,116.57363 10.4983721,116.57363 L59.5016279,116.57363 C65.0527907,116.57363 69.5669767,112.05326 69.5669767,106.492863 L69.5669767,10.507137 C69.5669767,4.94673973 65.0527907,0.426369863 59.5016279,0.426369863 L59.5016279,0.426369863 Z M65.904186,106.492863 C65.904186,110.027 63.0309302,112.905822 59.5016279,112.905822 L10.4983721,112.905822 C6.96906977,112.905822 4.09581395,110.027 4.09581395,106.492863 L4.09581395,95.9426164 L65.904186,95.9426164 L65.904186,106.492863 Z M65.904186,92.2748082 L4.09581395,92.2748082 L4.09581395,24.7251918 L65.904186,24.7251918 L65.904186,92.2748082 Z M65.904186,21.0573836 L4.09581395,21.0573836 L4.09581395,10.507137 C4.09581395,6.973 6.96906977,4.09417808 10.4983721,4.09417808 L59.5016279,4.09417808 C63.0309302,4.09417808 65.904186,6.973 65.904186,10.507137 L65.904186,21.0573836 Z" id="Fill-1" fill="#B0B5BC"></path>
                    <path d="M40.4372093,10.7418767 L29.5627907,10.7418767 C28.5518605,10.7418767 27.7313953,11.5634658 27.7313953,12.5757808 C27.7313953,13.5880959 28.5518605,14.4096849 29.5627907,14.4096849 L40.4372093,14.4096849 C41.4481395,14.4096849 42.2686047,13.5880959 42.2686047,12.5757808 C42.2686047,11.5634658 41.4481395,10.7418767 40.4372093,10.7418767 L40.4372093,10.7418767 Z" id="Fill-2" fill="#565656"></path>
                    <path d="M35,110.677425 C38.4267442,110.677425 41.212093,107.88174 41.212093,104.450301 C41.212093,101.017233 38.4267442,98.2280685 35,98.2280685 C31.5732558,98.2280685 28.787907,101.023753 28.787907,104.455192 C28.787907,107.88826 31.5732558,110.677425 35,110.677425 L35,110.677425 Z M35,101.895877 C36.4048837,101.895877 37.5493023,103.041863 37.5493023,104.455192 C37.5493023,105.86363 36.4048837,107.009616 35,107.009616 C33.5951163,107.009616 32.4506977,105.86363 32.4506977,104.450301 C32.4506977,103.041863 33.5951163,101.895877 35,101.895877 L35,101.895877 Z" id="Fill-3" fill="#F4A9AC"></path>
                    <path d="M104.183067,4.13233333 L104.183067,2.28773333 L100.5,2.28773333 L100.5,9.6554 L104.183067,9.6554 L104.183067,7.8108 L107.867667,7.8108 L107.867667,28.0492667 C107.867667,36.1590667 101.266667,42.7600667 93.1568667,42.7600667 C85.0470667,42.7600667 78.4460667,36.1590667 78.4460667,28.0492667 L78.4460667,7.81693333 L82.1306667,7.81693333 L82.1306667,9.6554 L85.8137333,9.6554 L85.8137333,2.28773333 L82.1306667,2.28773333 L82.1306667,4.13233333 L74.763,4.13233333 L74.763,28.0554 C74.763,37.5789333 82.0402,45.4372667 91.3184,46.3588 L91.3184,75.8938667 C91.3184,79.9602667 88.0171333,83.2615333 83.9507333,83.2615333 C79.8843333,83.2615333 76.5830667,79.9602667 76.5830667,75.8938667 L76.5830667,55.6554 C76.5830667,40.9446 64.3184,37.2615333 54.1892,37.2615333 C44.0615333,37.2615333 33.7953333,45.5262 33.7953333,55.6554 L33.7953333,63.2684 C30.6274667,64.101 28.2738,66.9514667 28.2738,70.3662 C28.2738,74.4326 31.5735333,77.7323333 35.6399333,77.7323333 C39.7078667,77.7323333 43.0076,74.4326 43.0076,70.3662 C43.0076,66.9514667 40.6478,64.101 37.4845333,63.2684 L37.4845333,55.6554 C37.4845333,47.5456 46.0855333,40.9446 54.1953333,40.9446 C62.3051333,40.9446 72.9061333,42.7600667 72.9061333,55.6554 L72.9061333,75.8938667 C72.9061333,81.9796667 77.8710667,86.9446 83.9568667,86.9446 C90.0426667,86.9446 95.0076,81.9796667 95.0076,75.8938667 L95.0076,46.3588 C104.2858,45.4372667 111.563,37.5789333 111.563,28.0554 L111.563,4.13233333 L104.183067,4.13233333 Z M35.6046667,74.0738 C33.5806667,74.0738 31.9216,72.4316 31.9216,70.3892 C31.9216,68.3652 33.5852667,66.7061333 35.6046667,66.7061333 C37.6225333,66.7061333 39.2877333,68.3468 39.2877333,70.3892 C39.2877333,72.4147333 37.6225333,74.0738 35.6046667,74.0738 Z" id="Fill-5" fill="#7D8288"></path>
                    <polygon id="Fill-6" fill="#0FBDAF" points="91.3122667 28.0554 94.9953333 28.0554 94.9953333 24.3723333 91.3122667 24.3723333"></polygon>
                    <polygon id="Fill-7" fill="#4299F0" points="98.6554 28.0554 102.338467 28.0554 102.338467 24.3723333 98.6554 24.3723333"></polygon>
                    <polygon id="Fill-8" fill="#FFAC46" points="83.9446 28.0554 87.6276667 28.0554 87.6276667 24.3723333 83.9446 24.3723333"></polygon>
                </g>
            </g>
        </g>
    </g>
</svg>