<?xml version="1.0" encoding="UTF-8" standalone="no"?>
<svg width="115px" height="98px" viewBox="0 0 115 98" version="1.1" xmlns="http://www.w3.org/2000/svg" xmlns:xlink="http://www.w3.org/1999/xlink">
    <!-- Generator: Sketch 40.3 (33839) - http://www.bohemiancoding.com/sketch -->
    <title>Group 4</title>
    <desc>Created with Sketch.</desc>
    <defs></defs>
    <g id="01_Home" stroke="none" stroke-width="1" fill="none" fill-rule="evenodd">
        <g id="01_home_v3" transform="translate(-329.000000, -1772.000000)">
            <g id="Group-3" transform="translate(311.000000, 842.000000)">
                <g id="Group-4" transform="translate(18.000000, 930.000000)">
                    <path d="M114.177106,86.372116 C114.177106,92.7924306 108.971505,98 102.553617,98 L11.6234895,98 C5.20732328,98 0,92.7924306 0,86.372116 L0,83.665491 C0,82.2391372 1.15718295,81.0815168 2.58299766,81.0815168 L9.0404918,81.0815168 L9.0404918,30.4463007 C9.0404918,29.019947 10.1976748,27.8623265 11.6234895,27.8623265 L18.6130811,27.8623265 C22.057078,27.8623265 22.057078,32.0969416 18.6130811,32.0969416 L13.2715278,32.0969416 L13.2715278,82.7321577 C13.2715278,84.1585114 12.1343734,84.8084635 10.7068367,84.8084635 L4.23103597,84.8084635 L4.23103597,86.372116 C4.23103597,89.9397231 8.05895269,93.7653849 11.6234895,93.7653849 L102.514011,93.7653849 C106.078548,93.7653849 109.906465,89.9397231 109.906465,86.372116 L109.906465,85.3161319 L103.44897,85.3161319 C102.021434,85.3161319 100.865973,84.1585114 100.865973,82.7321577 L100.865973,32.0969416 L96.9571221,32.0969416 C93.5131252,32.0969416 93.5131252,27.8623265 96.9571221,27.8623265 L102.514011,27.8623265 C103.939826,27.8623265 105.097009,29.019947 105.097009,30.4463007 L105.097009,81.0815168 L111.554503,81.0815168 C112.99926,81.060845 114.177106,82.225356 114.177106,83.665491 L114.177106,86.372116 Z M19.9390199,81.935988 L19.9390199,81.935988 C19.9390199,82.9334491 21.0944809,83.7429827 22.5220176,83.7429827 L42.5798554,83.7429827 L45.4452608,86.5149127 C47.0536073,88.0388117 49.602165,88.942309 52.3125906,88.942309 L64.1186119,88.942309 C66.3778738,88.9374904 68.5441479,88.3122702 70.1524944,87.1967521 L75.1497339,83.7429827 L92.3025603,83.7429827 C95.7465572,83.7429827 95.7465572,80.1289932 92.3025603,80.1289932 L74.0390449,80.1289932 C73.3536895,80.1289932 72.7010521,80.3217393 72.2171705,80.6602496 L66.5190777,84.6464801 C65.8871043,85.0837729 65.032993,85.3331381 64.1444418,85.3331381 L52.3539185,85.3331381 C51.2914455,85.3283195 50.2875204,84.9753532 49.655547,84.3730216 L45.9894123,80.877089 C45.5055307,80.4060657 44.7254654,80.1289932 43.8989062,80.1289932 L22.5220176,80.1289932 C21.0944809,80.1289932 19.9390199,80.9385268 19.9390199,81.935988 L19.9390199,81.935988 Z" id="Page-1" fill="#B0B5BC"></path>
                    <path d="M35.1132702,31.1198567 L35.1132702,35.5281167 C35.1132702,38.4755699 32.7248583,40.8631621 29.778519,40.8631621 C29.738913,40.844213 29.6924191,40.844213 29.6510911,40.8631621 C29.6235391,40.9234549 29.6235391,40.9975288 29.6510911,41.0595442 C30.2572346,43.2662581 31.1251218,45.3920076 32.2340888,47.390281 C32.2616407,47.4505737 32.3219107,47.4988079 32.3890686,47.5056985 C32.4286746,47.5246477 32.4768906,47.5246477 32.5164965,47.5056985 C34.6018366,45.41957 37.9786756,45.41957 40.0571277,47.5056985 L43.1722229,50.6202488 C45.250675,52.7063773 45.250675,56.0776023 43.1722229,58.1637308 C43.1515589,58.2050744 43.1515589,58.251586 43.1722229,58.2912069 C43.1859988,58.3583902 43.2256048,58.4204056 43.2858748,58.4462453 C45.2833929,59.5573543 47.410061,60.4255696 49.615941,61.0302196 C49.676211,61.0577819 49.7502569,61.0577819 49.8105268,61.0302196 C49.8311908,60.9974892 49.8311908,60.949255 49.8105268,60.9165247 C49.8639088,57.9828526 52.2729846,55.6400493 55.2124359,55.6676117 L59.6517479,55.6676117 C62.5980872,55.6676117 64.9864991,58.0569266 64.9864991,61.0043798 C64.9658351,61.0440008 64.9658351,61.0905123 64.9864991,61.1318559 C65.046769,61.1594183 65.120815,61.1594183 65.1810849,61.1318559 C67.3869649,60.5254833 69.513633,59.6572679 71.5111512,58.5478817 C71.652355,58.5272099 71.726401,58.3721714 71.652355,58.251586 C71.671297,58.211965 71.671297,58.1637308 71.652355,58.1241099 C69.5739029,56.0379814 69.5739029,52.6667563 71.652355,50.5806278 L74.7657282,47.4643549 C76.8510683,45.3782264 80.2279073,45.3782264 82.3063594,47.4643549 C82.3476873,47.4850267 82.3941813,47.4850267 82.4337873,47.4643549 C82.5026672,47.4505737 82.5629371,47.4109528 82.5887671,47.3506601 C83.6994561,45.3523867 84.5673433,43.2249146 85.1717648,41.0182006 C85.1993167,40.9579078 85.1993167,40.8838339 85.1717648,40.8235412 C85.1390468,40.8028694 85.0908308,40.8028694 85.0581129,40.8235412 C82.1117735,40.8166506 79.7302497,38.4342264 79.7233617,35.4867731 L79.7233617,31.1198567 C79.7233617,28.1724034 82.1117735,25.7830886 85.0581129,25.7830886 C85.0977188,25.8037604 85.1459348,25.8037604 85.1855408,25.7830886 C85.2199807,25.7159053 85.2199807,25.6418313 85.1855408,25.574648 C84.5811193,23.367934 83.7132321,21.2421846 82.6025431,19.2421885 C82.5698251,19.1887864 82.5147212,19.1491655 82.4475632,19.1422749 C82.4079573,19.1147125 82.3614633,19.1147125 82.3201354,19.1422749 C80.2347953,21.2215128 76.8648443,21.2215128 74.7795042,19.1422749 L71.666131,16.026002 C69.5807909,13.9398734 69.5807909,10.5617578 71.666131,8.48251989 C71.685073,8.44289895 71.685073,8.39638741 71.666131,8.35504383 C71.659243,8.2878605 71.6179151,8.23445836 71.5645331,8.20000537 C69.5670149,7.09061911 67.4403469,6.22240377 65.2344669,5.61603116 C65.1673089,5.58330082 65.093263,5.58330082 65.026105,5.61603116 C65.0054411,5.65048415 65.0054411,5.69699568 65.026105,5.73144867 C65.0054411,8.67890193 62.5980872,11.0596035 59.6517479,11.0406544 L55.2124359,11.0406544 C52.2660966,11.0406544 49.8776848,8.65133954 49.8776848,5.70388628 C49.8983488,5.66426534 49.8983488,5.61603116 49.8776848,5.57641022 C49.8174148,5.54195723 49.7433689,5.54195723 49.683099,5.57641022 C47.477219,6.18106019 45.3505509,7.04927552 43.3530327,8.16038444 C43.2927627,8.18794683 43.2462688,8.24823956 43.2393808,8.31542289 C43.2187168,8.35504383 43.2187168,8.40155536 43.2393808,8.44289895 C45.3247209,10.5290275 45.3247209,13.9071431 43.2393808,15.986381 L40.1242856,19.1009313 C38.0389455,21.1801692 34.6689946,21.1801692 32.5836545,19.1009313 C32.5440485,19.0819821 32.4958325,19.0819821 32.4562266,19.1009313 C32.3890686,19.1078219 32.3356867,19.1491655 32.3012467,19.2025676 C31.1922797,21.200841 30.3243925,23.3283131 29.7182491,25.5350271 C29.6855311,25.6022104 29.6855311,25.6762843 29.7182491,25.7434677 C29.752689,25.7641394 29.799183,25.7641394 29.8336229,25.7434677 C32.7730743,25.776198 35.1270461,28.179294 35.1132702,31.1198567 L35.1132702,31.1198567 Z M29.9472748,35.5281167 L29.9472748,31.1198567 C29.9472748,31.025111 29.8732289,30.951037 29.778519,30.951037 C28.1116245,30.9579276 26.5428839,30.1775674 25.5406808,28.8459594 C24.5195358,27.4988475 24.1889121,25.7572489 24.6538516,24.1276224 C25.387423,21.5178085 26.429232,19.0079082 27.7672248,16.6461558 C28.5886181,15.1784584 30.0540387,14.182767 31.7226552,13.9605452 C33.3706077,13.7314328 35.0323362,14.2895713 36.2032952,15.4747541 C36.2704531,15.5350469 36.370329,15.5350469 36.439209,15.4747541 L39.5525821,12.3584812 C39.6128521,12.2912979 39.6128521,12.1913842 39.5525821,12.1242009 C38.3695692,10.9527992 37.8099197,9.29044249 38.0389455,7.64186694 C38.2610833,5.9726196 39.2563984,4.50664489 40.7235411,3.68494109 C43.0844009,2.35333305 45.5933527,1.30251687 48.2039023,0.570390837 C49.8243028,0.0846036847 51.5790192,0.394680591 52.939398,1.40415318 C54.2705028,2.40673518 55.0505681,3.97434621 55.0436801,5.64359355 C55.0436801,5.73833927 55.117726,5.8124132 55.2124359,5.8124132 L59.6517479,5.8124132 C59.7464578,5.8124132 59.8205038,5.73833927 59.8205038,5.64359355 C59.7998398,3.9812368 60.5661291,2.41362578 61.8851799,1.40415318 C63.2300607,0.380899395 64.9727231,0.0518733446 66.6000116,0.515266054 C69.2105612,1.24911473 71.719513,2.29304032 74.0803728,3.63153896 C75.5457935,4.45324276 76.5428306,5.91921747 76.7649684,7.58846481 C76.9922722,9.23704036 76.4343447,10.8993971 75.2513318,12.0690761 C75.1893398,12.1362594 75.1893398,12.2378958 75.2513318,12.3050791 L78.3647049,15.421352 C78.4318629,15.4816447 78.5334608,15.4816447 78.6006187,15.421352 C81.1095705,12.9252329 85.3060807,13.5092111 87.0349671,16.5979216 C88.3677939,18.959674 89.4164909,21.4695743 90.1500623,24.0811109 C90.6132798,25.7021241 90.2843781,27.4523359 89.2615111,28.7977252 C88.259308,30.1310559 86.6922894,30.9114161 85.0236729,30.9045255 C84.930685,30.9045255 84.8566391,30.9785994 84.8566391,31.0733451 L84.8566391,35.4798825 C84.8566391,35.5746282 84.930685,35.6487022 85.0236729,35.6487022 C86.6922894,35.6418116 88.259308,36.4221718 89.2615111,37.7555025 C90.2843781,39.1008917 90.6132798,40.844213 90.1500623,42.4721167 C89.4164909,45.0819307 88.3746819,47.591831 87.0349671,49.9553061 C86.2152958,51.4212808 84.7481532,52.4169722 83.0795367,52.639194 C81.4315842,52.8683063 79.7715777,52.3101679 78.6006187,51.1249851 C78.5334608,51.0646923 78.4318629,51.0646923 78.3647049,51.1249851 L75.2513318,54.241258 C75.1893398,54.3084413 75.1893398,54.4100776 75.2513318,54.4772609 C76.4343447,55.6469399 76.9922722,57.3092967 76.7649684,58.9578722 C76.5428306,60.6271196 75.5457935,62.0930943 74.0803728,62.9147981 C71.719513,64.2464061 69.2105612,65.2972223 66.6000116,66.031071 C64.9796111,66.4944637 63.2300607,66.1654377 61.8851799,65.1421839 C60.5523531,64.1396019 59.7722878,62.5719908 59.7791758,60.9027435 C59.7464578,60.8631226 59.7051299,60.8355602 59.6517479,60.8355602 L55.2124359,60.8355602 C55.117726,60.8355602 55.0436801,60.9096341 55.0436801,61.0043798 C55.0505681,62.6719045 54.2705028,64.2412382 52.939398,65.2438202 C52.0095188,65.9569971 50.8661119,66.3394252 49.6968749,66.3394252 C49.1992174,66.3394252 48.7015598,66.2653513 48.2228443,66.1309847 C45.6140166,65.397136 43.1050649,64.3549331 40.7442051,63.0164344 C39.2770624,62.1947306 38.2817473,60.7287559 38.0596095,59.0595086 C37.8305837,57.410933 38.3885112,55.7485763 39.5732461,54.5771746 C39.6335161,54.5099913 39.6335161,54.4100776 39.5732461,54.3411716 L36.404769,51.1732192 C36.3376111,51.1112039 36.2360131,51.1112039 36.1688552,51.1732192 C34.9996183,52.3566794 33.3378898,52.9148179 31.6899373,52.6874281 C30.0213208,52.4652064 28.5541781,51.4677923 27.7345069,50.0018176 C26.4016801,47.6400652 25.352983,45.1301649 24.6194117,42.5186283 C24.1561941,40.8976151 24.4850958,39.1474032 25.5079629,37.802014 C26.510166,36.4686833 28.0771845,35.6883231 29.745801,35.6952137 C29.8525649,35.7158855 29.9541628,35.634921 29.9472748,35.5281167 L29.9472748,35.5281167 Z" id="Combined-Shape" fill="#8CD9DE"></path>
                    <path d="M59.4616472,20.833548 C59.370984,20.7414922 59.2595979,20.6994096 59.163754,20.6336554 C59.0471871,20.5508052 58.9461624,20.453489 58.8088725,20.3969404 C58.3128156,20.1865271 57.7519992,20.1865271 57.2559423,20.3969404 C57.03317,20.4889962 56.8363014,20.6336554 56.6588607,20.7980408 C56.6433185,20.8125067 56.6187099,20.817767 56.6031676,20.8388084 L48.5082437,29.0580784 C47.7194743,29.858964 47.7194743,31.1648417 48.5082437,31.9657273 C49.2970131,32.766613 50.5818394,32.766613 51.371904,31.9657273 L56.006086,27.249839 L56.006086,46.94584 C56.006086,48.0807568 56.9114223,49 58.0291694,49 C59.1482117,49 60.053548,48.0807568 60.053548,46.94584 L60.053548,27.249839 L64.6929108,31.9657273 C65.0879431,32.3615674 65.6086086,32.56146 66.1240934,32.56146 C66.6408733,32.56146 67.1615388,32.3615674 67.5565711,31.9552067 C68.3453405,31.154321 68.3453405,29.8497585 67.5565711,29.0475577 L59.4616472,20.833548 Z" id="Fill-2" fill="#7D8288"></path>
                </g>
            </g>
        </g>
    </g>
</svg>