<?xml version="1.0" encoding="UTF-8" standalone="no"?>
<svg width="104px" height="104px" viewBox="0 0 104 104" version="1.1" xmlns="http://www.w3.org/2000/svg" xmlns:xlink="http://www.w3.org/1999/xlink">
    <!-- Generator: Sketch 40.3 (33839) - http://www.bohemiancoding.com/sketch -->
    <title>Page 1</title>
    <desc>Created with Sketch.</desc>
    <defs></defs>
    <g id="01_Home" stroke="none" stroke-width="1" fill="none" fill-rule="evenodd" stroke-linecap="round" stroke-linejoin="round">
        <g id="01_home_v3" transform="translate(-338.000000, -1076.000000)">
            <g id="Group-3" transform="translate(311.000000, 842.000000)">
                <g id="Page-1" transform="translate(29.000000, 236.000000)">
                    <polyline id="Stroke-1" stroke="#B0B5BC" stroke-width="4.26136364" points="75.8931507 93.6863014 75.8931507 99.230137 0.769863014 99.230137 0.769863014 0.769863014 75.8931507 0.769863014 75.8931507 50.0424658"></polyline>
                    <path d="M12.8205433,16.4954338 L55.4840722,16.4954338" id="Stroke-3" stroke="#B0B5BC" stroke-width="4.26136364"></path>
                    <path d="M12.9308694,30.1369863 L63.8339618,30.1369863" id="Stroke-4" stroke="#B0B5BC" stroke-width="4.26136364"></path>
                    <path d="M12.9308694,42.4657534 L56.8546557,42.4657534" id="Stroke-5" stroke="#B0B5BC" stroke-width="4.26136364"></path>
                    <path d="M12.8109589,56.6082192 L45.2958904,56.6082192" id="Stroke-6" stroke="#B0B5BC" stroke-width="4.26136364"></path>
                    <path d="M12.8109589,69.8356164 L45.2958904,69.8356164" id="Stroke-7" stroke="#B0B5BC" stroke-width="4.26136364"></path>
                    <path d="M12.8109589,83.0479452 L45.2958904,83.0479452" id="Stroke-8" stroke="#B0B5BC" stroke-width="4.26136364"></path>
                    <path d="M99.230137,71.8643836 C99.230137,83.9465753 89.3616438,93.739726 77.1945205,93.739726 C65.0260274,93.739726 55.1643836,83.9465753 55.1643836,71.8643836 C55.1643836,59.7876712 65.0260274,49.9945205 77.1945205,49.9945205 C89.3616438,49.9945205 99.230137,59.7876712 99.230137,71.8643836" id="Stroke-9" stroke="#7D8288" stroke-width="4"></path>
                    <polyline id="Stroke-10" stroke="#0FBDAF" stroke-width="4.26136364" points="63.5753425 69.0342466 72.3561644 80.0410959 90.8178082 63.6931507"></polyline>
                </g>
            </g>
        </g>
    </g>
</svg>