<?xml version="1.0" encoding="UTF-8" standalone="no"?>
<svg width="150px" height="109px" viewBox="0 0 150 109" version="1.1" xmlns="http://www.w3.org/2000/svg" xmlns:xlink="http://www.w3.org/1999/xlink">
    <!-- Generator: Sketch 40.3 (33839) - http://www.bohemiancoding.com/sketch -->
    <title>Group 5 Copy</title>
    <desc>Created with Sketch.</desc>
    <defs></defs>
    <g id="01_Home" stroke="none" stroke-width="1" fill="none" fill-rule="evenodd">
        <g id="01_home_v3" transform="translate(-311.000000, -1295.000000)">
            <g id="Group-3" transform="translate(311.000000, 842.000000)">
                <g id="Group-5-Copy" transform="translate(0.000000, 453.000000)">
                    <g id="Page-1" transform="translate(12.765957, 20.187500)">
                        <path d="M110.638298,8.14457831 L71.0631937,8.14457831 C70.118229,3.50191442 66.0307072,0 61.1317667,0 C55.5329775,0 50.975509,4.56808294 50.975509,10.1836892 C50.975509,15.0958615 54.4696808,19.1944235 59.0981485,20.1419405 L59.0981485,28.4848363 L20.5743541,28.4848363 L20.5743541,44.7451776 L10.4180964,44.7451776 L10.4180964,20.3334779 L6.38297872,20.3334779 L6.38297872,48.8115342 L20.5743541,48.8115342 L20.5743541,88.1875 L59.1049103,88.1875 L63.1653848,88.1213942 L101.695941,88.1213942 L101.695941,28.4780562 L63.1653848,28.4780562 L63.1653848,20.1351604 C67.1278129,19.31477 70.27037,16.1891504 71.0631937,12.21602 L110.638298,12.21602 L110.638298,8.14457831 Z M24.6280668,84.1211434 L24.6280668,32.5291576 L97.6540615,32.5291576 L97.6540615,84.1211434 L24.6280668,84.1211434 Z M55.0427453,10.1565688 C55.0427453,6.80720635 57.764379,4.05279641 61.1317667,4.05279641 C64.4991544,4.05279641 67.220788,6.780086 67.220788,10.1565688 C67.220788,13.5330517 64.4737975,16.2620363 61.1317667,16.2620363 C57.7897358,16.2620363 55.0427453,13.5330517 55.0427453,10.1565688 Z" id="Fill-3" fill="#B0B5BC"></path>
                        <g id="Group-5" transform="translate(0.000000, 40.375000)">
                            <g id="Page-1" transform="translate(42.784459, 0.000000)">
                                <path d="M32.1416593,11.9157056 L35.1418464,8.93364389 L28.0204307,1.85194396 L25.0202436,4.83400572 C24.5494062,4.61104783 24.0575492,4.40481178 23.5418702,4.22505199 L23.5418702,0 L13.4426881,0 L13.4426881,4.22505199 C12.9508312,4.40899224 12.457573,4.59432599 11.965716,4.83400572 L8.96552889,1.85194396 L1.82169233,8.93364389 L4.82187948,11.9157056 C4.59767119,12.3839172 4.38887722,12.8744246 4.20810929,13.3858342 L0,13.3858342 L0,23.4063978 L4.24734574,23.4063978 C4.43371888,23.8969052 4.63550634,24.386019 4.85971463,24.8765264 L1.86092878,27.8599816 L8.98794972,34.9416816 L11.9867356,31.9582263 C12.457573,32.1811842 12.9508312,32.3888137 13.465109,32.5685735 L13.465109,36.7755102 L23.5418702,36.7755102 L23.5418702,32.5518517 C24.0351284,32.366518 24.5269853,32.1644624 25.0202436,31.9415045 L28.0204307,34.9249597 L35.1418464,27.820964 L32.1416593,24.8389023 C32.3658676,24.3706907 32.5746615,23.8801833 32.7554295,23.3687737 L37.0027752,23.3687737 L37.0027752,13.3482101 L32.7554295,13.3482101 C32.5746615,12.8744246 32.3658676,12.3839172 32.1416593,11.9157056 L32.1416593,11.9157056 Z M33.6200327,20.0592425 L30.1924485,20.0592425 L29.8645439,21.3050197 C29.5968952,22.3668567 29.163893,23.3687737 28.6117801,24.3051968 L27.9545695,25.4255602 L30.3732164,27.8321119 L27.9924047,30.199646 L25.5737578,27.7944878 L24.4457098,28.4466396 C23.504035,28.9970669 22.496499,29.4276543 21.4301084,29.6938103 L20.1759432,30.0198862 L20.1759432,33.4283549 L16.8100163,33.4283549 L16.8100163,30.0198862 L15.5558512,29.6938103 C14.4880593,29.4276543 13.465109,28.9970669 12.5402498,28.4466396 L11.4122018,27.7944878 L8.99355492,30.199646 L6.61134187,27.8321119 L9.03139007,25.4255602 L8.37417953,24.3051968 C7.82206662,23.3687737 7.38906437,22.3668567 7.12141572,21.3050197 L6.7921098,20.0592425 L3.36592691,20.0592425 L3.36592691,16.7120872 L6.7921098,16.7120872 L7.12141572,15.4649165 C7.38906437,14.4030796 7.82206662,13.3858342 8.37417953,12.4661329 L9.03139007,11.3443761 L6.61134187,8.93782435 L8.98794972,6.56471633 L11.4065966,8.97126803 L12.5346446,8.31772272 C13.4763194,7.76868892 14.4838554,7.3381015 15.550246,7.07194552 L16.8044111,6.74447612 L16.8044111,3.33740089 L20.170338,3.33740089 L20.170338,6.74447612 L21.4399175,7.07194552 C22.5077094,7.3381015 23.5152454,7.76868892 24.4569202,8.31772272 L25.5835669,8.97126803 L28.0036151,6.56471633 L30.3844268,8.93364389 L27.9657799,11.3388021 L28.6215892,12.460559 C29.1751034,13.3969821 29.6081056,14.4198014 29.8757543,15.4593426 L30.2036589,16.7218416 L33.6312431,16.7218416 L33.6312431,20.0592425 L33.6200327,20.0592425 Z" id="Fill-1" fill="#8CD9DE"></path>
                                <path d="M19.079556,10.3431122 C14.2972529,10.3431122 10.4070305,14.2097633 10.4070305,18.9616551 C10.4070305,23.7149816 14.2972529,27.5816327 19.079556,27.5816327 C23.8604155,27.5816327 27.7520814,23.7149816 27.7520814,18.9616551 C27.7463074,14.2155023 23.8546415,10.3431122 19.079556,10.3431122 L19.079556,10.3431122 Z M19.079556,24.1124073 C16.2257639,24.1124073 13.8800825,21.8038947 13.8800825,18.9458728 C13.8800825,16.1093722 16.2041114,13.7779036 19.079556,13.7779036 C21.9550005,13.7779036 24.2775859,16.087851 24.2775859,18.9458728 C24.2775859,21.7981557 21.9319045,24.1124073 19.079556,24.1124073 L19.079556,24.1124073 Z" id="Fill-2" fill="#B0B5BC"></path>
                            </g>
                            <g id="Page-1" transform="translate(0.000000, 27.581633)"></g>
                        </g>
                    </g>
                    <g id="Page-1" transform="translate(122.340426, 7.437500)">
                        <path d="M23.5677139,0.811295028 L4.22470775,0.811295028 C2.03350281,0.811295028 0.251622668,2.55784543 0.251622668,4.7062347 L0.251622668,41.7925603 C0.251622668,43.9409496 2.03350281,45.6875 4.22470775,45.6875 L23.5677139,45.6875 C25.7589189,45.6875 27.540799,43.9409496 27.540799,41.7925603 L27.540799,4.7062347 C27.540799,2.55784543 25.7589189,0.811295028 23.5677139,0.811295028 L23.5677139,0.811295028 Z M24.0450161,35.0240418 C24.0450161,36.3895381 23.1014509,37.5018382 21.9424428,37.5018382 L5.84997886,37.5018382 C4.69097075,37.5018382 3.74740558,36.3895381 3.74740558,35.0240418 L3.74740558,30.9477078 L24.0450161,30.9477078 L24.0450161,35.0240418 Z M24.0450161,30.9477078 L3.74740558,30.9477078 L3.74740558,9.8002981 C3.74740558,8.42506148 4.69097075,7.30482723 5.84997886,7.30482723 L21.9424428,7.30482723 C23.1014509,7.30482723 24.0450161,8.42506148 24.0450161,9.8002981 L24.0450161,30.9477078 Z" id="Fill-1" fill="#B0B5BC"></path>
                        <path d="M17.1028801,3.45201054 L11.7050967,3.45201054 C11.2032968,3.45201054 10.7960389,3.81713225 10.7960389,4.26701435 C10.7960389,4.71689645 11.2032968,5.08201815 11.7050967,5.08201815 L17.1028801,5.08201815 C17.60468,5.08201815 18.0119379,4.71689645 18.0119379,4.26701435 C18.0119379,3.81713225 17.60468,3.45201054 17.1028801,3.45201054 L17.1028801,3.45201054 Z" id="Fill-2" fill="#F56666"></path>
                        <path d="M13.9261977,43.5269054 C14.9218099,43.5269054 15.7310701,42.7318363 15.7310701,41.7559643 C15.7310701,40.7796287 14.9218099,39.9864139 13.9261977,39.9864139 C12.9305854,39.9864139 12.1213253,40.7814831 12.1213253,41.7573551 C12.1213253,42.7336907 12.9305854,43.5269054 13.9261977,43.5269054 L13.9261977,43.5269054 Z" id="Fill-3" fill="#7D8288"></path>
                    </g>
                    <g id="Page-1">
                        <path d="M28.8073633,32.7610334 C32.6425229,30.117432 34.9331387,25.7491684 34.9331387,21.0708179 C34.9331387,17.2428478 33.4416185,13.6557769 30.7324288,10.9725498 C28.0226153,8.28995164 24.4357305,6.8546201 20.6392469,6.92129194 C13.3095259,7.05652256 7.26609285,12.9355952 6.88369975,20.3116395 C6.62045359,25.3579431 8.95036919,30.0438414 13.1167698,32.8446877 C14.0356361,33.4610878 14.7742225,34.2793903 15.3025862,35.2203438 L15.0493209,35.2203438 C14.4036817,35.2203438 13.8796846,35.7486867 13.8796846,36.3996807 L13.8796846,41.1170279 C13.8796846,41.7680219 14.4036817,42.2963648 15.0493209,42.2963648 L26.7456843,42.2963648 C27.3913236,42.2963648 27.9153207,41.7680219 27.9153207,41.1170279 L27.9153207,36.3996807 C27.9153207,35.7486867 27.3913236,35.2203438 26.7456843,35.2203438 L26.5285998,35.2203438 C27.0794206,34.2649238 27.849821,33.4170592 28.8073633,32.7610334 L28.8073633,32.7610334 Z M25.576048,39.940207 L16.2189573,39.940207 L16.2189573,37.5815334 L25.576048,37.5815334 L25.576048,39.940207 Z M23.7251574,34.3522147 L18.0948793,34.3522147 C17.4512527,32.722762 16.3350901,31.3039587 14.8482311,30.304694 C11.6091481,28.1248536 9.79756613,24.4804422 10.0018274,20.5561427 C10.2997811,14.8240132 14.9960441,10.253683 20.6949912,10.150412 C23.6436857,10.0841073 26.4375839,11.2136342 28.5424641,13.2995919 C30.6496721,15.3855495 31.8088983,18.172694 31.8088983,21.1499511 C31.8088983,24.7849744 30.0269953,28.1841171 27.0439663,30.2378026 C25.5280103,31.2810748 24.3868242,32.7204149 23.7251574,34.3522147 L23.7251574,34.3522147 Z" id="Fill-1" fill="#7D8288"></path>
                        <path d="M16.3555708,5.16203589 C16.4553798,5.16203589 16.5576839,5.15008528 16.6599881,5.12052324 C17.2837942,4.95069873 17.654335,4.30473665 17.4859073,3.67575701 L16.8814393,1.39822174 C16.7136355,0.769242098 16.0729866,0.398144111 15.4491806,0.564823715 C14.8253746,0.734648218 14.4548338,1.38061031 14.6226376,2.00958994 L15.2271056,4.28712522 C15.3662144,4.81546811 15.8390594,5.16203589 16.3555708,5.16203589 L16.3555708,5.16203589 Z" id="Fill-2" fill="#F25757"></path>
                        <path d="M7.66345731,9.39569784 C7.89239413,9.62653337 8.19244484,9.74163664 8.48937652,9.74163664 C8.78942722,9.74163664 9.08885413,9.62653337 9.31591953,9.39569784 C9.77379317,8.93339781 9.77379317,8.18931489 9.31591953,7.72701486 L7.66096208,6.05896086 C7.20308844,5.59666082 6.46450208,5.59666082 6.00662844,6.05896086 C5.55062622,6.52063191 5.5487548,7.2653438 6.00662844,7.72701486 L7.66345731,9.39569784 Z" id="Fill-3" fill="#F25757"></path>
                        <path d="M34.131548,36.080159 C34.3604848,36.3109945 34.6599117,36.4267268 34.9574672,36.4267268 C35.2575179,36.4267268 35.5569448,36.3109945 35.7833864,36.080159 C36.2418838,35.6184879 36.2418838,34.8737761 35.7833864,34.412105 L34.1290527,32.744051 C33.6711791,32.281751 32.9325927,32.281751 32.4747191,32.744051 C32.0187169,33.2057221 32.0162216,33.9504339 32.4747191,34.412105 L34.131548,36.080159 Z" id="Fill-4" fill="#F25757"></path>
                        <path d="M6.01161889,36.080159 C6.24055571,36.3109945 6.53998261,36.4267268 6.8375381,36.4267268 C7.136965,36.4267268 7.43701571,36.3109945 7.66345731,36.080159 L9.31841475,34.412105 C9.77628839,33.9504339 9.77628839,33.2057221 9.31841475,32.744051 C8.85991731,32.2842669 8.12195475,32.281751 7.66345731,32.744051 L6.00912367,34.412105 C5.55312144,34.8737761 5.55312144,35.6210039 6.01161889,36.080159 L6.01161889,36.080159 Z" id="Fill-5" fill="#F25757"></path>
                        <path d="M35.7833864,6.06147678 C35.3255127,5.59917674 34.5869264,5.59917674 34.1290527,6.06147678 L32.4747191,7.72953078 C32.0162216,8.19120183 32.0162216,8.93591372 32.4747191,9.39758478 C32.7036559,9.62904929 33.0030828,9.74415256 33.3006383,9.74415256 C33.6000652,9.74415256 33.9001159,9.62904929 34.1265575,9.39758478 L35.7808911,7.72953078 C36.2418838,7.26785972 36.2418838,6.52063191 35.7833864,6.06147678 L35.7833864,6.06147678 Z" id="Fill-6" fill="#F25757"></path>
                        <path d="M25.4394345,5.16203589 C25.9559459,5.16203589 26.4287909,4.81295219 26.5678996,4.28712522 L27.1723677,2.00958994 C27.3401715,1.38061031 26.9671355,0.734648218 26.3458247,0.564823715 C25.7245138,0.398144111 25.0813698,0.771758016 24.913566,1.39822174 L24.3090979,3.67575701 C24.1406703,4.30473665 24.5137063,4.95069873 25.1350171,5.12052324 C25.2373213,5.15008528 25.3396255,5.16203589 25.4394345,5.16203589 L25.4394345,5.16203589 Z" id="Fill-7" fill="#F25757"></path>
                        <path d="M40.4057892,25.1201888 L38.1469875,24.5107075 C37.5256767,24.3433989 36.8825326,24.7170129 36.714105,25.3434766 C36.5463012,25.9724562 36.9193372,26.6184183 37.540648,26.7882428 L39.7994497,27.3977241 C39.9017539,27.4247702 40.0040581,27.4392367 40.1038671,27.4392367 C40.6203785,27.4392367 41.0932235,27.090153 41.2323322,26.5643261 C41.400136,25.9353464 41.0295952,25.2893843 40.4057892,25.1201888 L40.4057892,25.1201888 Z" id="Fill-8" fill="#F25757"></path>
                        <path d="M1.38921607,17.021447 L3.64801777,17.6309282 C3.75032196,17.6579744 3.85262616,17.6730699 3.95243512,17.6730699 C4.46894653,17.6730699 4.94179152,17.3239862 5.08090027,16.7981592 C5.24870409,16.1691796 4.87566808,15.5232175 4.25435725,15.353393 L1.99555555,14.7439117 C1.37424473,14.5772321 0.731100689,14.950846 0.562673056,15.5773097 C0.394869229,16.2062894 0.765410022,16.8522515 1.38921607,17.021447 L1.38921607,17.021447 Z" id="Fill-9" fill="#F25757"></path>
                        <path d="M39.8019449,14.7420248 L37.5431432,15.3508771 C36.9193372,15.5207016 36.5487964,16.1666636 36.7166002,16.7956433 C36.8582042,17.3214703 37.3310492,17.670554 37.8450654,17.670554 C37.9448743,17.670554 38.0471785,17.6579744 38.1494827,17.6284123 L40.4082844,17.01956 C41.0320905,16.8497355 41.4026313,16.2037734 41.2348274,15.5747938 C41.0663998,14.9483301 40.4232558,14.5772321 39.8019449,14.7420248 L39.8019449,14.7420248 Z" id="Fill-10" fill="#F25757"></path>
                        <path d="M5.08090027,25.3434766 C4.91247263,24.7144969 4.27182382,24.3433989 3.64801777,24.5107075 L1.38921607,25.1201888 C0.765410022,25.2893843 0.394869229,25.9353464 0.562673056,26.5643261 C0.704277029,27.090153 1.17712201,27.4392367 1.6911382,27.4392367 C1.79094717,27.4392367 1.89325136,27.4266571 1.99555555,27.3977241 L4.25435725,26.7882428 C4.8781633,26.6209342 5.24870409,25.9724562 5.08090027,25.3434766 L5.08090027,25.3434766 Z" id="Fill-11" fill="#F25757"></path>
                    </g>
                    <g id="Page-1" transform="translate(20.212766, 107.312500)"></g>
                </g>
            </g>
        </g>
    </g>
</svg>