<?xml version="1.0" encoding="UTF-8" standalone="no"?>
<svg width="70px" height="117px" viewBox="0 0 70 117" version="1.1" xmlns="http://www.w3.org/2000/svg" xmlns:xlink="http://www.w3.org/1999/xlink">
    <!-- Generator: Sketch 40.3 (33839) - http://www.bohemiancoding.com/sketch -->
    <title>Page 1</title>
    <desc>Created with Sketch.</desc>
    <defs></defs>
    <g id="01_Home" stroke="none" stroke-width="1" fill="none" fill-rule="evenodd">
        <g id="01_home_v3" transform="translate(-349.000000, -1526.000000)">
            <g id="Group-3" transform="translate(311.000000, 842.000000)">
                <g id="Page-1" transform="translate(38.000000, 684.000000)">
                    <path d="M59.0686047,0 L10.0653488,0 C4.51418605,0 0,4.52036986 0,10.0807671 L0,106.066493 C0,111.62689 4.51418605,116.14726 10.0653488,116.14726 L59.0686047,116.14726 C64.6197674,116.14726 69.1339535,111.62689 69.1339535,106.066493 L69.1339535,10.0807671 C69.1339535,4.52036986 64.6197674,0 59.0686047,0 L59.0686047,0 Z M65.4711628,106.066493 C65.4711628,109.60063 62.597907,112.479452 59.0686047,112.479452 L10.0653488,112.479452 C6.53604651,112.479452 3.6627907,109.60063 3.6627907,106.066493 L3.6627907,95.5162466 L65.4711628,95.5162466 L65.4711628,106.066493 Z M65.4711628,91.8484384 L3.6627907,91.8484384 L3.6627907,24.2988219 L65.4711628,24.2988219 L65.4711628,91.8484384 Z M65.4711628,20.6310137 L3.6627907,20.6310137 L3.6627907,10.0807671 C3.6627907,6.54663014 6.53604651,3.66780822 10.0653488,3.66780822 L59.0686047,3.66780822 C62.597907,3.66780822 65.4711628,6.54663014 65.4711628,10.0807671 L65.4711628,20.6310137 Z" id="Fill-1" fill="#B0B5BC"></path>
                    <path d="M40.4372093,10.7418767 L29.5627907,10.7418767 C28.5518605,10.7418767 27.7313953,11.5634658 27.7313953,12.5757808 C27.7313953,13.5880959 28.5518605,14.4096849 29.5627907,14.4096849 L40.4372093,14.4096849 C41.4481395,14.4096849 42.2686047,13.5880959 42.2686047,12.5757808 C42.2686047,11.5634658 41.4481395,10.7418767 40.4372093,10.7418767 L40.4372093,10.7418767 Z" id="Fill-2" fill="#565656"></path>
                    <path d="M35,110.677425 C38.4267442,110.677425 41.212093,107.88174 41.212093,104.450301 C41.212093,101.017233 38.4267442,98.2280685 35,98.2280685 C31.5732558,98.2280685 28.787907,101.023753 28.787907,104.455192 C28.787907,107.88826 31.5732558,110.677425 35,110.677425 L35,110.677425 Z M35,101.895877 C36.4048837,101.895877 37.5493023,103.041863 37.5493023,104.455192 C37.5493023,105.86363 36.4048837,107.009616 35,107.009616 C33.5951163,107.009616 32.4506977,105.86363 32.4506977,104.450301 C32.4506977,103.041863 33.5951163,101.895877 35,101.895877 L35,101.895877 Z" id="Fill-3" fill="#F4A9AC"></path>
                    <path d="M37.7527907,71.0634658 C37.0088372,70.3755479 35.8513953,70.4260822 35.1660465,71.1775753 L32.5711628,74.0123836 C32.2406977,74.3677534 32.0681395,74.8453836 32.0876744,75.3295342 C32.1072093,75.8136849 32.322093,76.2717534 32.6786047,76.6026712 L35.507907,79.2011096 C35.857907,79.5255068 36.3039535,79.6852603 36.7483721,79.6852603 C37.2448837,79.6852603 37.7348837,79.4880137 38.0962791,79.0935205 C38.7262791,78.4056027 38.7067442,77.3867671 38.1223256,76.6923288 C47.0318605,75.195863 53.8413953,67.4396712 53.8413953,58.1055068 C53.8413953,50.8709589 49.8172093,44.3830137 43.3365116,41.1797945 C42.4330233,40.7347671 41.334186,41.1031781 40.8816279,42.0144247 C40.4372093,42.9240411 40.8051163,44.0194932 41.7151163,44.4726712 C46.935814,47.0564384 50.1786047,52.2859178 50.1786047,58.1120274 C50.1786047,65.3775479 45.0604651,71.4579589 38.2493023,72.9544247 C38.4462791,72.2860685 38.2818605,71.554137 37.7527907,71.0634658 L37.7527907,71.0634658 Z" id="Fill-4" fill="#7D8288"></path>
                    <path d="M26.4160465,74.8975479 C26.6830233,75.0377397 26.967907,75.1013151 27.247907,75.1013151 C27.9153488,75.1013151 28.5583721,74.7377945 28.875814,74.100411 C29.3397674,73.1973151 28.9848837,72.0953425 28.0813953,71.6307534 C22.9811628,69.0127534 19.8148837,63.8240274 19.8148837,58.0924658 C19.8148837,50.7193562 25.0860465,44.5606986 32.0502326,43.1799726 C31.7067442,43.9249452 31.884186,44.8345616 32.5516279,45.3757671 C32.8886047,45.6496301 33.302093,45.7833014 33.7025581,45.7833014 C34.2365116,45.7833014 34.7639535,45.5550822 35.1269767,45.1084247 L37.5427907,42.1220137 C37.8488372,41.7470822 37.9953488,41.2629315 37.9448837,40.7787808 C37.8927907,40.2946301 37.6518605,39.8496027 37.275814,39.543137 L34.2934884,37.1240137 C33.5055814,36.4866301 32.3546512,36.6072603 31.7181395,37.3913562 C31.2037209,38.0222192 31.1906977,38.8943425 31.6106977,39.543137 C22.8281395,41.1471918 16.1455814,48.8463288 16.1455814,58.0924658 C16.152093,65.211274 20.0883721,71.6486849 26.4160465,74.8975479 L26.4160465,74.8975479 Z" id="Fill-5" fill="#0FBDAF"></path>
                </g>
            </g>
        </g>
    </g>
</svg>