<?xml version="1.0" encoding="UTF-8" standalone="no"?>
<svg width="112px" height="112px" viewBox="0 0 112 112" version="1.1" xmlns="http://www.w3.org/2000/svg" xmlns:xlink="http://www.w3.org/1999/xlink">
    <!-- Generator: Sketch 41.2 (35397) - http://www.bohemiancoding.com/sketch -->
    <title>icon-design</title>
    <desc>Created with Sketch.</desc>
    <defs></defs>
    <g id="01_Process" stroke="none" stroke-width="1" fill="none" fill-rule="evenodd">
        <g id="Artboard" transform="translate(-1033.000000, -1730.000000)">
            <g id="icon-design" transform="translate(1089.015765, 1786.015765) rotate(45.000000) translate(-1089.015765, -1786.015765) translate(1010.515765, 1707.515765)">
                <path d="M132.87182,40.3484078 L116.891889,24.4854916 C115.347624,22.9527631 112.662876,22.9527631 111.116963,24.4854916 L73.7843109,61.5346715 L51.9404572,39.8523312 C51.9091434,39.8193693 51.8695891,39.7946478 51.8316829,39.7616859 C51.8119058,39.7485012 51.7921287,39.7303721 51.780592,39.7171874 C51.6569848,39.6199497 51.5350258,39.5309526 51.399882,39.4534921 C51.3801049,39.4403074 51.3685682,39.4271226 51.348791,39.4205302 L32.2803297,29.3836305 C31.3392673,28.8892019 30.1806564,29.0622519 29.4274769,29.8088391 C28.6742974,30.5554262 28.5012474,31.7074447 29.0022683,32.6419147 L39.1166285,51.5752323 C39.2204585,51.7680594 39.3556023,51.9361651 39.5022828,52.0976785 C39.5220599,52.1158075 39.5352447,52.1487694 39.5550218,52.1685465 L61.3988755,73.8508869 L24.0645751,110.886882 C23.2916185,111.653246 22.868058,112.670121 22.868058,113.75292 C22.868058,114.83407 23.2916185,115.850945 24.0645751,116.617309 L40.0445061,132.480225 C40.8158147,133.24659 41.8392818,133.671798 42.933617,133.671798 C44.0279522,133.671798 45.0530674,133.24659 45.824376,132.480225 L83.152084,95.4310453 L111.123556,123.196505 L111.130148,123.203097 L113.261135,125.3209 C114.915823,126.962403 117.117678,127.870503 119.461269,127.870503 C121.798268,127.870503 124.000123,126.962403 125.661403,125.3209 C127.316091,123.679397 128.229136,121.497319 128.229136,119.173505 C128.229136,116.84969 127.316091,114.665964 125.661403,113.017869 L123.530416,110.900067 L95.5441117,83.1346071 L132.87182,46.0837791 C134.462232,44.4999596 134.462232,41.9322273 132.87182,40.3484078 L132.87182,40.3484078 Z M42.933617,128.53963 L28.0364845,113.759512 L31.5205578,110.301808 L38.3370795,117.067239 C38.5760533,117.29962 38.8842471,117.42158 39.194089,117.42158 C39.5022828,117.42158 39.8121247,117.306213 40.0494504,117.067239 C40.5257499,116.597532 40.5257499,115.83776 40.0494504,115.361461 L33.2329287,108.59603 L35.782532,106.066204 L42.5924613,112.831634 C42.8314351,113.064016 43.1396289,113.185975 43.4494708,113.185975 C43.7576646,113.185975 44.0675065,113.070608 44.3048322,112.831634 C44.7811317,112.361927 44.7811317,111.602155 44.3048322,111.125856 L37.4949029,104.360425 L40.0445061,101.828951 L46.8610278,108.59603 C47.1000016,108.826763 47.4081954,108.95037 47.7180373,108.95037 C48.0262311,108.95037 48.336073,108.833355 48.5733987,108.59603 C49.0496983,108.126323 49.0496983,107.366551 48.5733987,106.890251 L41.756877,100.123172 L44.3048322,97.5933462 L51.1164096,104.360425 C51.3553834,104.591158 51.6635772,104.713117 51.9734191,104.713117 C52.2816129,104.713117 52.5914548,104.597751 52.8287805,104.360425 C53.30508,103.88907 53.30508,103.129298 52.8287805,102.652998 L46.0172031,95.8875677 L48.5668064,93.3577416 L55.3849762,100.123172 C55.62395,100.355554 55.9321438,100.477513 56.2419857,100.477513 C56.5501795,100.477513 56.8600214,100.362146 57.0973471,100.123172 C57.5736466,99.6534652 57.5736466,98.8936933 57.0973471,98.4173938 L50.2791773,91.6519631 L52.8287805,89.1204889 L59.640358,95.8875677 C59.8793318,96.1199491 60.1875256,96.2419082 60.4973675,96.2419082 C60.8055613,96.2419082 61.1154032,96.1248934 61.3527289,95.8875677 C61.8290284,95.4178606 61.8290284,94.6580887 61.3527289,94.1817892 L54.5411514,87.4147103 L57.0907547,84.8848842 L63.9089245,91.6519631 C64.1462502,91.8826964 64.4560921,92.0046554 64.765934,92.0046554 C65.0741278,92.0046554 65.3823216,91.8892888 65.6212954,91.6519631 C66.0975949,91.1806078 66.0975949,90.420836 65.6212954,89.9445365 L58.8031256,83.1791057 L61.3527289,80.6492796 L68.1643063,87.4147103 C68.4032801,87.6470918 68.7114739,87.7690508 69.0213158,87.7690508 C69.3295096,87.7690508 69.6393515,87.6536841 69.8766772,87.4147103 C70.3529767,86.9450032 70.3529767,86.1852313 69.8766772,85.7089318 L63.0650998,78.943501 L64.7972478,77.2245378 L79.6877879,92.0046554 L42.933617,128.53963 Z M121.804861,116.012458 L122.223477,116.431074 C122.963471,117.164477 123.368903,118.136853 123.368903,119.173505 C123.368903,120.210157 122.963471,121.182533 122.223477,121.915935 C120.741839,123.38274 118.167514,123.38274 116.692469,121.915935 L116.273853,121.503911 L121.804861,116.012458 Z M112.842519,118.097299 L44.6789498,50.4429909 L50.2083092,44.9515377 L118.366934,112.612438 L112.842519,118.097299 Z M92.1127775,79.7279944 L77.2156451,64.9412843 L78.4319393,63.7299343 L85.2435168,70.4970132 C85.4824906,70.7277465 85.7906844,70.8497056 86.1005263,70.8497056 C86.4087201,70.8497056 86.718562,70.7343389 86.9558877,70.4970132 C87.4321872,70.025658 87.4321872,69.2675342 86.9558877,68.7895866 L80.1459583,62.0241558 L82.6939135,59.4943297 L89.5120833,66.2597604 C89.7510571,66.4921419 90.0592509,66.6141009 90.3690928,66.6141009 C90.6772866,66.6141009 90.9871285,66.4987342 91.2244542,66.2597604 C91.7007537,65.7900533 91.7007537,65.023689 91.2244542,64.5539819 L84.4062844,57.7885512 L86.9558877,55.258725 L93.7674651,62.0241558 C94.0064389,62.2565372 94.3146327,62.3784963 94.6244746,62.3784963 C94.9326684,62.3784963 95.2425103,62.2631296 95.479836,62.0241558 C95.9561355,61.5544487 95.9561355,60.7880844 95.479836,60.3183773 L88.6682586,53.5512984 L91.2178618,51.0214723 L98.0360317,57.7885512 C98.2750055,58.0192845 98.5831993,58.1428916 98.8930412,58.1428916 C99.201235,58.1428916 99.5110769,58.0258769 99.7484026,57.7885512 C100.224702,57.318844 100.224702,56.5524798 99.7484026,56.0827726 L92.9302328,49.3222861 L95.479836,46.79246 L102.291413,53.5578908 C102.530387,53.7902722 102.838581,53.9122313 103.148423,53.9122313 C103.456617,53.9122313 103.766459,53.7968646 104.003784,53.5578908 C104.480084,53.0881837 104.480084,52.3284118 104.003784,51.8521123 L97.1922069,45.0866815 L99.7418102,42.5568554 L106.55998,49.3222861 C106.797306,49.5546676 107.107148,49.6766266 107.415341,49.6766266 C107.725183,49.6766266 108.033377,49.5612599 108.272351,49.3222861 C108.74865,48.852579 108.74865,48.0862148 108.272351,47.6165076 L101.454181,40.8494288 L104.003784,38.3196026 L110.815362,45.0866815 C111.052687,45.3174148 111.362529,45.441022 111.670723,45.441022 C111.980565,45.441022 112.288759,45.3240072 112.527733,45.0866815 C113.004032,44.6169744 113.004032,43.8506101 112.527733,43.380903 L105.716155,36.6138241 L108.265759,34.083998 L115.083928,40.8494288 C115.321254,41.0818102 115.631096,41.2037692 115.93929,41.2037692 C116.249132,41.2037692 116.557325,41.0884026 116.796299,40.8494288 C117.272599,40.3797216 117.272599,39.6133574 116.796299,39.1436502 L109.978129,32.3848119 L113.976408,28.4178467 L128.866948,43.1996125 L92.1127775,79.7279944 Z" id="Page-1" fill="#CED5DF" transform="translate(78.466343, 78.503872) rotate(45.000000) translate(-78.466343, -78.503872) "></path>
                <path d="M89.8870099,23.9764674 C89.8556961,23.9435055 89.8161419,23.9187841 89.7782357,23.8858222 C89.6035376,23.744086 89.4815785,23.6550888 89.3464347,23.5776283 C89.3266576,23.5644436 70.2268824,13.5077667 70.2268824,13.5077667 C69.28582,13.0133382 68.1272091,13.1863882 67.3740296,13.9329753 C66.6208501,14.6795624 66.4478001,15.8315809 66.9488211,16.7660509 L77.0631813,35.6993685 C77.1670112,35.8921956 77.3021551,36.0603013 77.4488355,36.2218147 C77.4686127,36.2399437 77.4817974,36.2729056 77.5015746,36.2926828 L89.8870099,23.9764674 Z" id="Page-1-Copy-3" fill="#8CD9DE" transform="translate(78.275757, 24.760399) rotate(45.000000) translate(-78.275757, -24.760399) "></path>
                <path d="M82.9488542,129.905721 L83.8715249,130.828392 C85.5025452,132.444882 86.3961553,134.588093 86.3961553,136.872975 C86.3961553,139.157856 85.5025452,141.301068 83.8715249,142.917558 C80.6058519,146.150538 74.9317905,146.150538 71.6806477,142.917558 L70.757977,142.009417 L82.9488542,129.905721 Z" id="Path" fill="#EF7C81" transform="translate(78.577066, 137.624007) rotate(45.000000) translate(-78.577066, -137.624007) "></path>
                <path d="M23.3456344,87.5657213 L26.8297077,84.1080176 L33.6462294,90.8734484 C33.8852032,91.1058298 34.193397,91.2277888 34.5032389,91.2277888 C34.8114327,91.2277888 35.1212746,91.1124222 35.3586003,90.8734484 C35.8348998,90.4037412 35.8348998,89.6439694 35.3586003,89.1676698 L28.5420786,82.4022391 L31.0916818,79.872413 L37.9016112,86.6378437 C38.140585,86.8702251 38.4487788,86.9921842 38.7586207,86.9921842 C39.0668145,86.9921842 39.3766564,86.8768175 39.6139821,86.6378437 C40.0902816,86.1681366 40.0902816,85.4083647 39.6139821,84.9320652 L32.8040527,78.1666344 L35.353656,75.6351602 L46.3945846,86.626646 C46.6335584,86.8573793 46.9417522,86.9809865 47.2515941,86.9809865 C47.5597879,86.9809865 47.8696298,86.8639717 48.1069555,86.626646 C48.5832551,86.1569389 48.5832551,85.397167 48.1069555,84.9208675 L37.0660269,73.9293817 L39.6139821,71.3995556 L46.4255595,78.1666344 C46.6645333,78.3973678 46.9727271,78.5193268 47.282569,78.5193268 C47.5907628,78.5193268 47.9006047,78.4039601 48.1379304,78.1666344 C48.6142299,77.6952792 48.6142299,76.9355073 48.1379304,76.4592078 L41.326353,69.693777 L43.8759562,67.1639509 L50.6941261,73.9293817 C50.9330999,74.1617631 51.2412937,74.2837222 51.5511356,74.2837222 C51.8593294,74.2837222 52.1691713,74.1683555 52.406497,73.9293817 C52.8827965,73.4596746 52.8827965,72.6999027 52.406497,72.2236032 L45.5883272,65.4581724 L48.1379304,62.9266982 L59.1739148,73.918184 C59.4128886,74.1505654 59.7210824,74.2725244 60.0309243,74.2725244 C60.3391181,74.2725244 60.64896,74.1555097 60.8862857,73.918184 C61.3625852,73.4484768 61.3625852,72.688705 60.8862857,72.2124054 L49.8503013,61.2209197 L52.3999046,58.6910935 L59.2180744,65.4581724 C59.4554001,65.6889057 59.765242,65.8108648 60.0750839,65.8108648 C60.3832777,65.8108648 60.6914715,65.6954981 60.9304453,65.4581724 C61.4067448,64.9868172 61.4067448,64.2270453 60.9304453,63.7507458 L54.1122755,56.985315 L56.6618788,54.4554889 L63.4734562,61.2209197 C63.71243,61.4533011 64.0206238,61.5752601 64.3304657,61.5752601 C64.6386595,61.5752601 64.9485014,61.4598935 65.1858271,61.2209197 C65.6621266,60.7512125 65.6621266,59.9914406 65.1858271,59.5151411 L58.3742497,52.7497104 L60.1063977,51.0307471 L23.3456344,87.5657213 Z" id="Path" fill="#91C0F7" transform="translate(44.444343, 71.129268) rotate(45.000000) translate(-44.444343, -71.129268) "></path>
                <path d="M89.4274561,87.7920426 L92.9115293,84.3343389 L99.728051,91.0997697 C99.9670248,91.3321511 100.275219,91.4541102 100.585061,91.4541102 C100.893254,91.4541102 101.203096,91.3387435 101.440422,91.0997697 C101.916721,90.6300626 101.916721,89.8702907 101.440422,89.3939912 L94.6239002,82.6285604 L97.1735035,80.0987343 L103.983433,86.864165 C104.222407,87.0965465 104.5306,87.2185055 104.840442,87.2185055 C105.148636,87.2185055 105.458478,87.1031389 105.695804,86.864165 C106.172103,86.3944579 106.172103,85.634686 105.695804,85.1583865 L98.8858744,78.3929558 L101.435478,75.8614815 L112.476406,86.8529673 C112.71538,87.0837007 113.023574,87.2073078 113.333416,87.2073078 C113.64161,87.2073078 113.951451,87.090293 114.188777,86.8529673 C114.665077,86.3832602 114.665077,85.6234883 114.188777,85.1471888 L103.147849,74.155703 L105.695804,71.6258769 L112.507381,78.3929558 C112.746355,78.6236891 113.054549,78.7456481 113.364391,78.7456481 C113.672584,78.7456481 113.982426,78.6302815 114.219752,78.3929558 C114.696052,77.9216005 114.696052,77.1618286 114.219752,76.6855291 L107.408175,69.9200984 L109.957778,67.3902723 L116.775948,74.155703 C117.014921,74.3880844 117.323115,74.5100435 117.632957,74.5100435 C117.941151,74.5100435 118.250993,74.3946768 118.488319,74.155703 C118.964618,73.6859959 118.964618,72.926224 118.488319,72.4499245 L111.670149,65.6844937 L114.219752,63.1530195 L125.255736,74.1445053 C125.49471,74.3768867 125.802904,74.4988458 126.112746,74.4988458 C126.42094,74.4988458 126.730782,74.381831 126.968107,74.1445053 C127.444407,73.6747982 127.444407,72.9150263 126.968107,72.4387268 L115.932123,61.447241 L118.481726,58.9174149 L125.299896,65.6844937 C125.537222,65.9152271 125.847064,66.0371861 126.156906,66.0371861 C126.465099,66.0371861 126.773293,65.9218194 127.012267,65.6844937 C127.488566,65.2131385 127.488566,64.4533666 127.012267,63.9770671 L120.194097,57.2116363 L122.7437,54.6818102 L129.555278,61.447241 C129.794252,61.6796224 130.102445,61.8015815 130.412287,61.8015815 C130.720481,61.8015815 131.030323,61.6862148 131.267649,61.447241 C131.743948,60.9775339 131.743948,60.217762 131.267649,59.7414625 L124.456071,52.9760317 L126.188219,51.2570684 L89.4274561,87.7920426 Z" id="Path-Copy" fill="#91C0F7" transform="translate(110.526165, 71.355589) rotate(45.000000) translate(-110.526165, -71.355589) "></path>
            </g>
        </g>
    </g>
</svg>