<?xml version="1.0" encoding="UTF-8" standalone="no"?>
<svg width="140px" height="87px" viewBox="0 0 140 87" version="1.1" xmlns="http://www.w3.org/2000/svg" xmlns:xlink="http://www.w3.org/1999/xlink">
    <!-- Generator: Sketch 41.2 (35397) - http://www.bohemiancoding.com/sketch -->
    <title>Group 2</title>
    <desc>Created with Sketch.</desc>
    <defs></defs>
    <g id="01_Process" stroke="none" stroke-width="1" fill="none" fill-rule="evenodd">
        <g id="Artboard" transform="translate(-1009.000000, -2855.000000)">
            <g id="Group-2" transform="translate(1006.000000, 2840.000000)">
                <g id="icon-rocket" transform="translate(119.140330, 41.065508) rotate(42.000000) translate(-119.140330, -41.065508) translate(96.640330, 6.065508)">
                    <path d="M22.1868922,16.7915559 C18.7351464,16.7915559 15.9283021,19.5984002 15.9283021,23.0488765 C15.9283021,26.5006222 18.7351464,29.3074665 22.1868922,29.3074665 C25.6373684,29.3074665 28.4442127,26.5006222 28.4442127,23.0488765 C28.4391348,19.5984002 25.6322904,16.7915559 22.1868922,16.7915559 L22.1868922,16.7915559 Z M22.1868922,25.8607988 C20.6343048,25.8607988 19.3698919,24.5963858 19.3698919,23.0437985 C19.3698919,21.4924806 20.6343048,20.2280677 22.1868922,20.2280677 C23.73821,20.2280677 25.0026229,21.4924806 25.0026229,23.0437985 C25.0026229,24.5963858 23.73821,25.8607988 22.1868922,25.8607988 L22.1868922,25.8607988 Z" id="Fill-1" fill="#8CD9DE"></path>
                    <path d="M37.8320978,35.1141178 C37.7825876,35.0354094 37.7229216,34.9706653 37.6632555,34.9008433 C36.8495118,15.1894584 24.9937365,2.90078667 23.386561,1.32407899 C22.7175393,0.669021695 21.646089,0.669021695 20.9757979,1.32407899 C19.3648139,2.90586463 7.47349283,15.2288126 6.69402542,34.9858992 C6.65974917,35.0303314 6.62547292,35.0646077 6.59500513,35.1141178 C6.28271038,35.6104887 -1.06637234,47.4573777 0.436704864,64.6551706 C0.505257371,65.4574889 1.12096045,66.1023903 1.91947021,66.2115665 C1.99817865,66.2217224 2.07307861,66.2268004 2.15178705,66.2268004 C2.86143245,66.2268004 3.51141178,65.7850175 3.76404047,65.1058399 C4.99417713,61.7937382 7.43286912,56.5367765 9.68494594,53.8695761 C10.3793575,55.410738 11.2121435,56.879539 12.1845735,58.2670925 C12.4219683,58.6047771 12.7786952,58.8472499 13.1811238,58.9475396 C14.7527535,59.3334649 16.3497731,59.6114834 17.9569485,59.7904816 C18.4863262,62.998485 19.3394241,66.0782699 20.673659,68.4877636 C20.9757979,69.0336447 21.5521467,69.3751377 22.1818142,69.3751377 C22.8064037,69.3751377 23.386561,69.0387227 23.6886999,68.4877636 C25.0280127,66.073192 25.8760327,62.9883291 26.4066798,59.7752477 C28.0125858,59.5962495 29.6096053,59.3283869 31.1774266,58.9475396 C31.5836637,58.8472499 31.9353126,58.6047771 32.1739769,58.2670925 C33.1603713,56.8693831 33.9931574,55.3815397 34.6977248,53.8238744 C36.9536101,56.4771104 39.4240394,61.7785043 40.6579845,65.1109179 C40.9118827,65.7900955 41.5605925,66.2318783 42.2702379,66.2318783 C42.3438684,66.2318783 42.4238463,66.2268004 42.4987463,66.2166444 C43.2959865,66.1074682 43.9116896,65.4676448 43.9815116,64.6602486 C45.4985532,47.4573777 38.1443925,35.6104887 37.8320978,35.1141178 L37.8320978,35.1141178 Z M26.872583,56.2397156 C27.6012708,48.8601651 26.9766813,41.7992568 26.9322491,41.3333536 C26.877661,40.7671607 26.5552103,40.2619033 26.0588393,39.9889628 C25.8557208,39.8797866 24.0454268,38.8933922 22.1818142,38.8933922 C20.2229898,38.8933922 18.4672839,39.8950205 18.2743213,40.0092747 C17.7982622,40.2911016 17.4846979,40.7823946 17.4351878,41.3333536 C17.3907556,41.7992568 16.7661661,48.870321 17.4999318,56.2498715 C16.5376577,56.1203834 15.5855396,55.9566191 14.6435773,55.7433447 C12.9627714,53.2043629 11.7872228,50.3632423 11.1575554,47.2885354 C6.55565092,24.8744044 18.100401,9.61512394 22.1907006,5.04876524 C26.2822697,9.61512394 37.8270198,24.8744044 33.2251154,47.2885354 C32.585292,50.3733982 31.4148214,53.2145188 29.7289375,55.7484226 C28.7869753,55.9616971 27.8297791,56.1153055 26.872583,56.2397156 Z" id="Fill-2-Copy" fill="#EF7C81" opacity="0.658756996"></path>
                    <path d="M37.6632555,34.9008433 C36.8495118,15.1894584 24.9937365,2.90078667 23.386561,1.32407899 C22.7175393,0.669021695 21.646089,0.669021695 20.9757979,1.32407899 C19.3648139,2.90586463 7.47349283,15.2288126 6.69402542,34.9858992 C6.65974917,35.0303314 6.62547292,35.0646077 6.59500513,35.1141178 C6.28271038,35.6104887 7.43286912,56.5367765 9.68494594,53.8695761 C10.3793575,55.410738 11.2121435,56.879539 12.1845735,58.2670925 C12.4219683,58.6047771 12.7786952,58.8472499 13.1811238,58.9475396 C14.7527535,59.3334649 16.3497731,59.6114834 17.9569485,59.7904816 C21.4858656,59.8466564 22.6065415,60.1595247 26.4066798,59.7752477 C28.0125858,59.5962495 29.6096053,59.3283869 31.1774266,58.9475396 C31.5836637,58.8472499 31.9353126,58.6047771 32.1739769,58.2670925 C33.1603713,56.8693831 33.9931574,55.3815397 34.6977248,53.8238744 C36.9536101,56.4771104 38.1443925,35.6104887 37.8320978,35.1141178 C37.7825876,35.0354094 37.7229216,34.9706653 37.6632555,34.9008433 Z M29.7289375,55.7484226 C28.7869753,55.9616971 27.8297791,56.1153055 26.872583,56.2397156 C27.6012708,48.8601651 26.9766813,41.7992568 26.9322491,41.3333536 C26.877661,40.7671607 26.5552103,40.2619033 26.0588393,39.9889628 C25.8557208,39.8797866 24.0454268,38.8933922 22.1818142,38.8933922 C20.2229898,38.8933922 18.4672839,39.8950205 18.2743213,40.0092747 C17.7982622,40.2911016 17.4846979,40.7823946 17.4351878,41.3333536 C17.3907556,41.7992568 16.7661661,48.870321 17.4999318,56.2498715 C16.5376577,56.1203834 15.5855396,55.9566191 14.6435773,55.7433447 C12.9627714,53.2043629 11.7872228,50.3632423 11.1575554,47.2885354 C6.55565092,24.8744044 18.100401,9.61512394 22.1907006,5.04876524 C26.2822697,9.61512394 37.8270198,24.8744044 33.2251154,47.2885354 C32.585292,50.3733982 31.4148214,53.2145188 29.7289375,55.7484226 L29.7289375,55.7484226 Z" id="Fill-2" fill="#CED5DF"></path>
                </g>
                <path d="M25.1378189,45 L18,50.8041" id="Path-17" stroke="#979797"></path>
                <path d="M13.6631998,55.6786012 L6.52538088,61.4827012" id="Path-17" stroke="#979797" transform="translate(10.094290, 58.580651) rotate(-12.000000) translate(-10.094290, -58.580651) "></path>
                <path d="M8.16792882,67.5820367 L1.03010995,73.3861366" id="Path-17" stroke="#979797" transform="translate(4.599019, 70.484087) rotate(-38.000000) translate(-4.599019, -70.484087) "></path>
                <path d="M8.63474454,80.5170697 L1.49692566,86.3211697" id="Path-17" stroke="#979797" transform="translate(5.065835, 83.419120) rotate(-67.000000) translate(-5.065835, -83.419120) "></path>
                <path d="M17.1495607,92.1922403 L10.0117418,97.9963403" id="Path-17" stroke="#979797" transform="translate(13.580651, 95.094290) rotate(-102.000000) translate(-13.580651, -95.094290) "></path>
                <path d="M31.0860595,96.697295 L23.9482406,102.501395" id="Path-17" stroke="#979797" transform="translate(27.517150, 99.599345) rotate(-130.000000) translate(-27.517150, -99.599345) "></path>
                <path d="M48.1107007,97.3956537 L40.9728818,103.199754" id="Path-17" stroke="#979797" transform="translate(44.541791, 100.297704) rotate(-150.000000) translate(-44.541791, -100.297704) "></path>
                <path d="M64.767317,91.8248168 L57.6294982,97.6289167" id="Path-17" stroke="#979797" transform="translate(61.198408, 94.726867) rotate(-165.000000) translate(-61.198408, -94.726867) "></path>
                <path d="M78.3771684,84.3000078 L71.2393495,90.1041077" id="Path-17" stroke="#979797" transform="translate(74.808259, 87.202058) rotate(-175.000000) translate(-74.808259, -87.202058) "></path>
                <path d="M90.5069738,73.4684536 L83.3691549,79.2725536" id="Path-17" stroke="#979797" transform="translate(86.938064, 76.370504) rotate(-188.000000) translate(-86.938064, -76.370504) "></path>
            </g>
        </g>
    </g>
</svg>