<?xml version="1.0" encoding="UTF-8" standalone="no"?>
<svg width="58px" height="56px" viewBox="0 0 58 56" version="1.1" xmlns="http://www.w3.org/2000/svg" xmlns:xlink="http://www.w3.org/1999/xlink">
    <!-- Generator: Sketch 41.2 (35397) - http://www.bohemiancoding.com/sketch -->
    <title>icon-group</title>
    <desc>Created with Sketch.</desc>
    <defs></defs>
    <g id="01_Process" stroke="none" stroke-width="1" fill="none" fill-rule="evenodd">
        <g id="Artboard" transform="translate(-278.000000, -1222.000000)">
            <g id="icon-group" transform="translate(307.142222, 1249.736642) rotate(10.000000) translate(-307.142222, -1249.736642) translate(274.142222, 1217.236642)">
                <path d="M15.6921448,37.3755371 L15.6921448,37.3755371 C15.9174371,38.2133125 16.4353169,38.9408799 17.155082,39.4246245 L19.7649621,41.2084327 C19.8946759,41.2952337 19.9931803,41.4288486 20.0351179,41.5809941 L20.6944149,44.0153217 C20.8660662,44.6560882 21.4453894,45.0978953 22.1076123,45.0978953 C22.2334249,45.0939941 22.3592375,45.0783894 22.481149,45.0403531 C23.2623575,44.8306654 23.7226951,44.0270252 23.5139827,43.2497178 L22.839081,40.7851562 C22.6108627,39.958109 22.0890818,39.2383439 21.3761437,38.7585004 L18.8238058,37.0020004 C18.640451,36.880089 18.5302431,36.6743025 18.5302431,36.4538866 L18.5302431,35.0514174 L18.5302431,34.9938752 C19.8527383,33.1466731 20.5988364,30.9522672 20.6788103,28.6817885 C20.6788103,24.7230803 17.6427278,21.5007171 13.913213,21.5007171 C10.1836983,21.5007171 7.12030764,24.6928462 7.12030764,28.6856897 C7.20028154,31.0702774 8.01952641,33.3680642 9.45905669,35.2689074 L9.45905669,36.4607136 C9.45905669,36.6821048 9.34884875,36.8878913 9.16646923,37.0098027 L6.55658914,38.7926356 C5.84365105,39.2724791 5.32187009,39.9893183 5.09365187,40.8192914 L4.43435481,43.253619 C4.22466714,44.0348275 4.68598002,44.8345666 5.46718852,45.0442542 C6.24742173,45.2539419 7.04813607,44.792629 7.25782374,44.0123958 L7.91614551,41.5848952 C7.95808305,41.4327498 8.05756278,41.2991348 8.18727655,41.2123339 L10.7971566,39.4285257 C11.4935148,38.9603858 12.0084687,38.2591512 12.2405881,37.4477086 C13.3533957,37.897318 14.598843,37.8709852 15.6921448,37.3755371 L15.6921448,37.3755371 Z M10.0461822,28.6856897 L10.0461822,28.6856897 C9.9398754,26.4532474 11.6534626,24.551429 13.8868802,24.4295175 C16.1193224,24.551429 17.8329096,26.4532474 17.7266028,28.6856897 C17.7266028,31.2302252 15.7457858,34.8456309 13.8868802,34.8456309 C12.0269992,34.8456309 10.0461822,31.2302252 10.0461822,28.6856897 L10.0461822,28.6856897 Z M60.9856579,43.2497178 L60.3273362,40.7851562 C60.0981426,39.958109 59.5763617,39.2383439 58.8643989,38.7585004 L56.2730493,37.0020004 C56.0906698,36.880089 55.9804619,36.6743025 55.9804619,36.4538866 L55.9804619,35.0514174 L55.9804619,34.9938752 C57.3019819,33.1466731 58.0490552,30.9522672 58.1290291,28.6817885 C58.1290291,24.7230803 55.0929466,21.5007171 51.3624566,21.5007171 C47.6329418,21.5007171 44.5968593,24.7191791 44.5968593,28.6817885 C44.6768332,31.0663763 45.4960781,33.3641631 46.9356084,35.2650062 L46.9356084,36.4568125 C46.9356084,36.6782036 46.8254004,36.8839901 46.6420456,37.0059016 L44.0331408,38.7887345 C43.3202027,39.2685779 42.7984218,39.9854172 42.5702036,40.8153902 L41.9109065,43.2497178 C41.7012188,44.0348275 42.1732599,44.8423689 42.9622708,45.0403531 C43.7434793,45.2500407 44.5432183,44.7887279 44.752906,44.0084946 L45.412203,41.5809941 C45.4541406,41.4288486 45.552645,41.2952337 45.6823588,41.2084327 L48.2922389,39.4246245 C48.9778688,38.9525834 49.4811192,38.2591512 49.7093374,37.4594121 C50.8250709,37.9090215 52.0753947,37.8817134 53.1686964,37.3872406 C53.3930135,38.225016 53.9118686,38.9525834 54.6316337,39.436328 L57.2415138,41.2191609 C57.3702523,41.3069372 57.469732,41.4405521 57.5116696,41.5926976 L58.1709666,44.0270252 C58.3426179,44.6668164 58.9209658,45.1095988 59.584164,45.1095988 C59.7138778,45.1095988 59.8396904,45.0900929 59.965503,45.0598589 C60.7496374,44.8462701 61.2070491,44.0309264 60.9856579,43.2497178 L60.9856579,43.2497178 Z M51.3663577,34.8456309 C49.5152544,34.8456309 47.526635,31.2341264 47.526635,28.6856897 C47.2828122,26.4035075 49.0695462,24.410987 51.3663577,24.410987 C53.6641445,24.410987 55.4508786,26.4035075 55.2070557,28.6856897 C55.2070557,31.2302252 53.2028316,34.8456309 51.3663577,34.8456309 L51.3663577,34.8456309 Z M13.2880512,14.3079422 C17.0595035,8.60053625 24.2298467,5.01536465 31.9902412,5.01536465 C38.5734589,5.01536465 44.7685106,7.60573891 48.8140198,11.9145768 L49.0042017,11.1831082 C49.5415873,9.38564592 52.2353425,10.0790782 51.8354729,11.9145768 L50.9128472,15.461712 L50.9128472,15.541686 C50.8904155,15.625561 50.8562803,15.7094361 50.8182439,15.78941 L50.768504,15.8547545 L50.6729255,15.9873942 C50.6163586,16.0634669 50.5471129,16.1366138 50.4749413,16.200983 L50.2769571,16.311191 C50.193082,16.3687332 50.1014046,16.418473 50.0068014,16.4565094 L49.8809888,16.505274 C49.7395715,16.5511127 49.5952283,16.5784208 49.4499099,16.5784208 L45.4044007,16.5784208 C43.4538177,16.5784208 43.4538177,13.6525463 45.4044007,13.6525463 L46.4138274,13.6525463 C42.9622708,10.0634735 37.6586355,7.94123919 31.9902412,7.94123919 C25.201237,7.94123919 18.9681489,11.0007287 15.7379835,15.9230249 C14.659311,17.5576135 12.210354,15.9415555 13.2880512,14.3079422 L13.2880512,14.3079422 Z M51.6140818,51.1700602 C47.8426295,56.8774662 40.6722863,60.4626378 32.9118917,60.4626378 C26.328674,60.4626378 20.1345976,57.8722635 16.0881131,53.5634256 L15.8979313,54.2948942 C15.3605456,56.0923565 12.6677658,55.3989242 13.0676353,53.5634256 L13.9892858,50.0162904 C14.0156186,49.9090083 14.053655,49.8066027 14.107296,49.707123 L14.107296,49.6622595 C14.1570359,49.5783845 14.2106769,49.5023117 14.2750462,49.4291649 L14.3394154,49.3569933 C14.4154882,49.2809206 14.5032644,49.2126502 14.5949418,49.1512068 C14.6983227,49.0907387 14.8046295,49.0449 14.9148374,49.014666 L15.0026137,49.014666 C15.0981922,48.991259 15.1927955,48.9795555 15.2883741,48.9756543 L19.4070301,48.9756543 C21.3576132,48.9756543 21.3576132,51.9015289 19.4070301,51.9015289 L18.4805032,51.9015289 C21.9554668,55.4788981 27.2581268,57.6167371 32.9118917,57.6167371 C39.7008959,57.6167371 45.933984,54.5572477 49.1641495,49.6349514 C50.2574513,48.3631713 52.2850823,49.6310502 51.6140818,51.1700602 L51.6140818,51.1700602 Z" id="Page-1" fill="#7D8288" opacity="0.330107276" transform="translate(32.712613, 32.739001) rotate(-10.000000) translate(-32.712613, -32.739001) "></path>
                <path d="M60.7992875,39.9871809 L60.1409657,37.5226193 C59.9117722,36.6955721 59.3899913,35.9758069 58.6780285,35.4959635 L56.0866789,33.7394635 C55.9042994,33.6175521 55.7940915,33.4117656 55.7940915,33.1913497 L55.7940915,31.7888805 L55.7940915,31.7313383 C57.1156115,29.8841362 57.8626848,27.6897303 57.9426587,25.4192516 C57.9426587,21.4605434 54.9065762,18.2381802 51.1760862,18.2381802 C47.4465714,18.2381802 44.4104889,21.4566422 44.4104889,25.4192516 C44.4904628,27.8038394 45.3097077,30.1016262 46.749238,32.0024693 L46.749238,33.1942756 C46.749238,33.4156667 46.63903,33.6214532 46.4556752,33.7433647 L43.8467704,35.5261976 C43.1338323,36.006041 42.6120514,36.7228802 42.3838332,37.5528533 L41.7245361,39.9871809 C41.5148484,40.7722906 41.9868895,41.579832 42.7759004,41.7778162 C43.5571089,41.9875038 44.3568479,41.526191 44.5665356,40.7459577 L45.2258326,38.3184572 C45.2677702,38.1663117 45.3662746,38.0326968 45.4959884,37.9458958 L48.1058685,36.1620876 C48.7914984,35.6900465 49.2947488,34.9966143 49.522967,34.1968752 C50.6387005,34.6464846 51.8890243,34.6191765 52.982326,34.1247037 C53.2066431,34.9624791 53.7254982,35.6900465 54.4452633,36.1737911 L57.0551434,37.956624 C57.1838819,38.0444002 57.2833616,38.1780152 57.3252992,38.3301607 L57.9845962,40.7644883 C58.1562475,41.4042795 58.7345954,41.8470619 59.3977936,41.8470619 C59.5275074,41.8470619 59.65332,41.827556 59.7791326,41.797322 C60.563267,41.5837332 61.0206787,40.7683894 60.7992875,39.9871809 L60.7992875,39.9871809 Z M51.1799873,31.583094 C49.328884,31.583094 47.3402646,27.9715895 47.3402646,25.4231528 C47.0964418,23.1409706 48.8831758,21.1484501 51.1799873,21.1484501 C53.4777741,21.1484501 55.2645082,23.1409706 55.0206853,25.4231528 C55.0206853,27.9676883 53.0164612,31.583094 51.1799873,31.583094 L51.1799873,31.583094 Z" id="Page-1-Copy" fill="#8CD9DF" transform="translate(51.264912, 30.042621) rotate(-10.000000) translate(-51.264912, -30.042621) "></path>
                <path d="M17.151162,40.9647419 L17.151162,40.9647419 C17.5047376,41.7569594 18.130058,42.3945551 18.916636,42.7597479 L21.7734332,44.1133192 C21.9151286,44.1787598 22.0333223,44.2953202 22.0985443,44.4390321 L23.1305371,46.7402523 C23.400313,47.3462777 24.0416176,47.6920193 24.6956875,47.5884248 C24.8193409,47.5648902 24.9411634,47.5297963 25.0556237,47.473157 C25.7944118,47.143843 26.1233649,46.2780843 25.7956244,45.5429967 L24.7434895,43.2143558 C24.3887023,42.4331921 23.7607493,41.803913 22.9815246,41.4415053 L20.1858331,40.1059044 C19.9856645,40.0141769 19.8446213,39.8281643 19.8101407,39.6104621 L19.5907462,38.2252596 L19.5817446,38.1684258 C20.5989917,36.137082 20.9926233,33.8529774 20.7164315,31.5979414 C20.0971531,27.6879715 16.5943611,24.9802289 12.9107629,25.5636535 C9.22716467,26.1470782 6.70084846,29.7791268 7.32546679,33.7228117 C7.77748779,36.0655305 8.94609945,38.2068696 10.6652641,39.8591181 L10.8517037,41.0362512 C10.8863369,41.2549167 10.8096779,41.47541 10.6486149,41.6243509 L8.34976329,43.7935094 C7.72066669,44.3789732 7.31744809,45.1686115 7.22187601,46.0240674 L6.95150873,48.5315612 C6.86661059,49.3359541 7.4473507,50.0536818 8.25174361,50.13858 C9.05517323,50.2236307 9.77386421,49.642738 9.85891491,48.8393084 L10.1293869,46.3387101 C10.1470073,46.1818774 10.2243603,46.0343454 10.3388984,45.9283214 L12.6375975,43.7581997 C13.2521491,43.1868889 13.6510658,42.4137311 13.7533898,41.5759673 C14.9228313,41.8459598 16.1488257,41.6251203 17.151162,40.9647419 L17.151162,40.9647419 Z M10.0278707,33.3611888 L10.0278707,33.3611888 C9.57364187,31.1728616 10.968622,29.0263936 13.1554713,28.5565996 C15.3794997,28.3277792 17.3694997,29.9381191 17.6137327,32.1597063 C18.0117858,34.6729144 16.6209299,38.5536765 14.7849105,38.8444734 C12.9479278,39.1354228 10.4259238,35.8743969 10.0278707,33.3611888 L10.0278707,33.3611888 Z" id="Combined-Shape" fill="#91C0F7"></path>
                <path d="M55.9144292,50.7962515 C52.1429769,56.5036575 44.9726337,60.0888291 37.2122391,60.0888291 C30.6290214,60.0888291 24.434945,57.4984548 20.3884605,53.1896169 L20.1982787,53.9210855 C19.660893,55.7185478 16.9681132,55.0251155 17.3679827,53.1896169 L18.2896332,49.6424817 C18.315966,49.5351996 18.3540024,49.432794 18.4076434,49.3333142 L18.4076434,49.2884508 C18.4573833,49.2045758 18.5110243,49.128503 18.5753936,49.0553562 L18.6397628,48.9831846 C18.7158356,48.9071119 18.8036118,48.8388414 18.8952892,48.7773981 C18.9986701,48.71693 19.1049769,48.6710913 19.2151848,48.6408573 L19.302961,48.6408573 C19.3985396,48.6174503 19.4931429,48.6057468 19.5887215,48.6018456 L23.7073775,48.6018456 C25.6579606,48.6018456 25.6579606,51.5277201 23.7073775,51.5277201 L22.7808506,51.5277201 C26.2558142,55.1050894 31.5584742,57.2429284 37.2122391,57.2429284 C44.0012433,57.2429284 50.2343314,54.1834389 53.4644969,49.2611427 C54.5577987,47.9893625 56.5854297,49.2572415 55.9144292,50.7962515 L55.9144292,50.7962515 Z" id="Path" fill="#CED5DF" transform="translate(36.687629, 54.345337) rotate(-9.000000) translate(-36.687629, -54.345337) "></path>
                <path d="M9.95488521,14.6032558 C13.7263375,8.89584988 20.8966807,5.31067828 28.6570753,5.31067828 C35.240293,5.31067828 41.4353447,7.90105254 45.4808539,12.2098904 L45.6710357,11.4784218 C46.2084213,9.68095955 48.9021765,10.3743918 48.502307,12.2098904 L47.5796812,15.7570257 L47.5796812,15.8369996 C47.5572495,15.9208747 47.5231143,16.0047497 47.4850779,16.0847236 L47.4353381,16.1500682 L47.3397595,16.2827078 C47.2831926,16.3587805 47.2139469,16.4319274 47.1417753,16.4962966 L46.9437911,16.6065046 C46.8599161,16.6640468 46.7682387,16.7137867 46.6736354,16.751823 L46.5478228,16.8005876 C46.4064055,16.8464263 46.2620624,16.8737345 46.1167439,16.8737345 L42.0712347,16.8737345 C40.1206517,16.8737345 40.1206517,13.9478599 42.0712347,13.9478599 L43.0806615,13.9478599 C39.6291048,10.3587872 34.3254695,8.23655282 28.6570753,8.23655282 C21.868071,8.23655282 15.634983,11.2960423 12.4048175,16.2183386 C11.3261451,17.8529271 8.87718808,16.2368691 9.95488521,14.6032558 L9.95488521,14.6032558 Z" id="Path" fill="#CED5DF" transform="translate(29.114734, 11.104984) rotate(-9.000000) translate(-29.114734, -11.104984) "></path>
            </g>
        </g>
    </g>
</svg>